<svg id="Logo_PG_Grants" xmlns="http://www.w3.org/2000/svg" width="243.419" height="32.316" viewBox="0 0 243.419 32.316">
  <path id="Path_753" data-name="Path 753" d="M89.72,46.56H71.177a4.471,4.471,0,0,0-4.2,2.936l-7.2,19.742a4.476,4.476,0,0,1-4.193,2.927H74.147a4.467,4.467,0,0,0,4.188-2.936l7.2-19.742A4.476,4.476,0,0,1,89.72,46.56Z" transform="translate(-49.66 -39.848)" fill="#d5ae75"/>
  <path id="Path_754" data-name="Path 754" d="M59.239,41.743A5.877,5.877,0,0,1,64.747,37.9H66.6l1.07-2.936a3.646,3.646,0,0,1,3.425-2.4H55.948a3.656,3.656,0,0,0-3.43,2.4L46.655,51.074a3.646,3.646,0,0,1-3.425,2.4H54.97Z" transform="translate(-43.23 -32.57)" fill="#e6d4b6"/>
  <path id="Path_755" data-name="Path 755" d="M140.858,51.852h-.8V47.39h-2.73v4.462h-.792V46.68h4.318Z" transform="translate(-91.774 -39.911)" fill="#dadada"/>
  <path id="Path_756" data-name="Path 756" d="M151.2,46.8a1.919,1.919,0,0,1,.619.374,1.6,1.6,0,0,1,.408.561,1.761,1.761,0,0,1,.144.734,1.78,1.78,0,0,1-.154.758,1.621,1.621,0,0,1-.437.571,1.919,1.919,0,0,1-.657.365,2.543,2.543,0,0,1-.8.125h-1.319v1.564h-.8V46.68h2.2A2.576,2.576,0,0,1,151.2,46.8Zm-.888,2.807a1.358,1.358,0,0,0,.931-.3,1.031,1.031,0,0,0,.341-.825,1.08,1.08,0,0,0-.317-.825,1.262,1.262,0,0,0-.9-.3h-1.358v2.25Z" transform="translate(-97.845 -39.911)" fill="#dadada"/>
  <path id="Path_757" data-name="Path 757" d="M159.842,50.661l2.975-4h.71v5.181h-.772v-3.9l-2.9,3.9h-.782V46.67h.772Z" transform="translate(-103.495 -39.9)" fill="#dadada"/>
  <path id="Path_758" data-name="Path 758" d="M180.178,51.852h-.8V47.39h-2.725v4.462h-.8V46.68h4.318Z" transform="translate(-112.23 -39.911)" fill="#dadada"/>
  <path id="Path_759" data-name="Path 759" d="M190.843,46.662a2.538,2.538,0,0,1,1.41,1.439,3,3,0,0,1,.192,1.065,2.879,2.879,0,0,1-.192,1.041,2.807,2.807,0,0,1-.557.868,2.634,2.634,0,0,1-.864.571,2.711,2.711,0,0,1-1.1.216,2.8,2.8,0,0,1-1.108-.211,2.672,2.672,0,0,1-.864-.576,2.879,2.879,0,0,1-.557-.849,2.989,2.989,0,0,1-.192-1.06,2.8,2.8,0,0,1,.2-1.06,2.476,2.476,0,0,1,.561-.849,2.672,2.672,0,0,1,.849-.571,2.8,2.8,0,0,1,1.108-.216A3.066,3.066,0,0,1,190.843,46.662Zm-1.919.643a1.67,1.67,0,0,0-.614.422,1.862,1.862,0,0,0-.374.633,2.428,2.428,0,0,0,0,1.593,1.962,1.962,0,0,0,.384.633,1.7,1.7,0,0,0,.6.422,2.087,2.087,0,0,0,.811.158,2.241,2.241,0,0,0,.811-.149,1.818,1.818,0,0,0,.614-.422,1.842,1.842,0,0,0,.379-.643,2.433,2.433,0,0,0,0-1.607,1.971,1.971,0,0,0-.379-.633,2.014,2.014,0,0,0-.609-.417,2.26,2.26,0,0,0-.811-.149A2.034,2.034,0,0,0,188.924,47.3Z" transform="translate(-118.031 -39.801)" fill="#dadada"/>
  <path id="Path_760" data-name="Path 760" d="M204.831,51.151h.758v.35l-.077,1.439h-.657l-.053-1.123h-4.14l-.072,1.123h-.652L199.88,51.5v-.345h.211a.6.6,0,0,0,.393-.187,1.243,1.243,0,0,0,.341-.542,6.817,6.817,0,0,0,.177-.662c.053-.249.091-.509.13-.787s.053-.566.072-.868,0-.595,0-.892V46.68h3.617Zm-3.042-1.439a3.478,3.478,0,0,1-.518,1.439h2.778V47.356h-2.068A14.443,14.443,0,0,1,201.789,49.712Z" transform="translate(-124.726 -39.911)" fill="#dadada"/>
  <path id="Path_761" data-name="Path 761" d="M218.3,51.151h.758v.35l-.082,1.439h-.652l-.058-1.123h-4.121l-.067,1.123h-.667L213.36,51.5v-.345h.211a.619.619,0,0,0,.393-.187,1.242,1.242,0,0,0,.341-.542,6.813,6.813,0,0,0,.178-.662c.053-.249.091-.509.13-.787s.053-.566.067-.868.024-.595.024-.892V46.68h3.617Zm-3.046-1.439a3.421,3.421,0,0,1-.513,1.439h2.763V47.356h-2.068a13.912,13.912,0,0,1-.182,2.356Z" transform="translate(-131.739 -39.911)" fill="#dadada"/>
  <path id="Path_762" data-name="Path 762" d="M231.115,47.366h-2.926v1.439h2.6v.681h-2.6v1.665h3.09v.7H227.44V46.68h3.723Z" transform="translate(-139.064 -39.911)" fill="#dadada"/>
  <path id="Path_763" data-name="Path 763" d="M240.639,46.8a1.857,1.857,0,0,1,.619.374,1.6,1.6,0,0,1,.408.561,1.76,1.76,0,0,1,.149.734,1.78,1.78,0,0,1-.163.763,1.689,1.689,0,0,1-.441.571,1.919,1.919,0,0,1-.657.365,2.5,2.5,0,0,1-.8.125h-1.319v1.564h-.8V46.68h2.2A2.552,2.552,0,0,1,240.639,46.8Zm-.907,2.807a1.382,1.382,0,0,0,.96-.3,1.046,1.046,0,0,0,.341-.825,1.094,1.094,0,0,0-.317-.825,1.281,1.281,0,0,0-.907-.3h-1.358v2.25Z" transform="translate(-144.371 -39.911)" fill="#dadada"/>
  <path id="Path_764" data-name="Path 764" d="M249.632,48.753l.835.048V46.68h.753v2.1l.835-.048,1.391-2.053h.926l-1.689,2.36,1.919,2.811h-.916l-1.6-2.423h-.873v2.423h-.753V49.429h-.873L248,51.852h-.926l1.919-2.811L247.3,46.68h.926Z" transform="translate(-149.277 -39.911)" fill="#dadada"/>
  <path id="Path_765" data-name="Path 765" d="M265.272,48.8l.8-.058,1.684-2.063h.959l-2.015,2.4,2.207,2.778h-1l-1.833-2.4h-.816v2.4H264.5V46.68h.772Z" transform="translate(-158.345 -39.911)" fill="#dadada"/>
  <path id="Path_766" data-name="Path 766" d="M279.373,47.366h-2.95v1.439h2.6v.681h-2.6v1.665h3.09v.7H275.65V46.68h3.723Z" transform="translate(-164.145 -39.911)" fill="#dadada"/>
  <path id="Path_767" data-name="Path 767" d="M140.73,69.5h.609a3.281,3.281,0,0,1,1.132.178,2.481,2.481,0,0,1,.907.48,2.346,2.346,0,0,1,.576.825,2.8,2.8,0,0,1,.206,1.1,2.625,2.625,0,0,1-.225,1.123,2.4,2.4,0,0,1-.619.859,2.48,2.48,0,0,1-.9.48,3.359,3.359,0,0,1-1.079.178h-.609v.892H139.2V74.73h-.6a3.358,3.358,0,0,1-1.142-.178,2.4,2.4,0,0,1-.888-.48,2.346,2.346,0,0,1-.576-.825,2.8,2.8,0,0,1-.206-1.1A2.605,2.605,0,0,1,136,71.027a2.4,2.4,0,0,1,.619-.825,2.481,2.481,0,0,1,.888-.513,3.359,3.359,0,0,1,1.079-.178h.6V68.58h1.535Zm-2.087,1.329a1.2,1.2,0,0,0-1.319,1.315,1.175,1.175,0,0,0,.36.96,1.363,1.363,0,0,0,.96.331h.552V70.825Zm2.643,2.576a1.2,1.2,0,0,0,1.315-1.3,1.257,1.257,0,0,0-.35-.96,1.439,1.439,0,0,0-.96-.331h-.561v2.567Z" transform="translate(-91.378 -51.304)" fill="#ededed"/>
  <path id="Path_768" data-name="Path 768" d="M160.588,68.812a3.311,3.311,0,0,1,1.151.763,3.19,3.19,0,0,1,.753,1.132,3.79,3.79,0,0,1,.269,1.439,3.631,3.631,0,0,1-.269,1.391,3.4,3.4,0,0,1-.753,1.151,3.474,3.474,0,0,1-1.151.763,3.68,3.68,0,0,1-1.492.288,4.025,4.025,0,0,1-1.468-.278,3.627,3.627,0,0,1-1.151-.763,3.2,3.2,0,0,1-.768-1.156,3.838,3.838,0,0,1-.269-1.439,3.732,3.732,0,0,1,.269-1.4,3.2,3.2,0,0,1,.763-1.142,3.627,3.627,0,0,1,1.151-.763,3.665,3.665,0,0,1,1.473-.288,4.131,4.131,0,0,1,1.492.3Zm-2.4,1.286a2.034,2.034,0,0,0-1.079,1.175,2.548,2.548,0,0,0-.144.864,2.653,2.653,0,0,0,.144.878,1.89,1.89,0,0,0,.422.7,2.231,2.231,0,0,0,.667.48,2.342,2.342,0,0,0,.888.168,2.183,2.183,0,0,0,.9-.178,1.862,1.862,0,0,0,.676-.48,2.139,2.139,0,0,0,.413-.7,2.951,2.951,0,0,0,.134-.859,2.687,2.687,0,0,0-.144-.873,1.856,1.856,0,0,0-.422-.71,1.972,1.972,0,0,0-.657-.48,2.48,2.48,0,0,0-1.794,0Z" transform="translate(-101.607 -51.267)" fill="#ededed"/>
  <path id="Path_769" data-name="Path 769" d="M174.959,71.581h3.013v-2.7h1.554v6.9h-1.554V73.011h-3.013v2.768H173.4v-6.9h1.559Z" transform="translate(-110.95 -51.46)" fill="#ededed"/>
  <path id="Path_770" data-name="Path 770" d="M195.623,74.392h1v.422l-.134,2.4H195.1l-.062-1.439h-4.663l-.086,1.439h-1.382l-.086-2.4v-.422h.288a.768.768,0,0,0,.437-.154,1.175,1.175,0,0,0,.36-.48,5.825,5.825,0,0,0,.4-1.6A16.5,16.5,0,0,0,190.427,70V68.88h5.2Zm-3.872-1.617a5.756,5.756,0,0,1-.48,1.626h2.8v-4.14h-2.14A16.493,16.493,0,0,1,191.751,72.776Z" transform="translate(-118.973 -51.46)" fill="#ededed"/>
  <path id="Path_771" data-name="Path 771" d="M214.223,75.768h-1.708l-.523-1.367h-2.955l-.518,1.367H206.84l2.835-6.908h1.7Zm-2.739-2.725-.916-2.629h-.1l-.926,2.629Z" transform="translate(-128.347 -51.45)" fill="#ededed"/>
  <path id="Path_772" data-name="Path 772" d="M241.175,75.779h-1.554V70.314h-2.926v5.464H235.14v-6.9h6.035Z" transform="translate(-143.07 -51.46)" fill="#ededed"/>
  <path id="Path_773" data-name="Path 773" d="M255.278,69.067a2.749,2.749,0,0,1,.878.48,2.5,2.5,0,0,1,.556.782,2.533,2.533,0,0,1,.192,1.031,2.568,2.568,0,0,1-.216,1.07,2.241,2.241,0,0,1-.614.782,2.284,2.284,0,0,1-.907.48,3.358,3.358,0,0,1-1.132.178h-1.4V75.75H251.09V68.88h3.066A3.224,3.224,0,0,1,255.278,69.067Zm-1.243,3.459a1.41,1.41,0,0,0,.959-.307,1.036,1.036,0,0,0,.369-.835,1.079,1.079,0,0,0-.307-.816,1.314,1.314,0,0,0-.96-.307h-1.439v2.264Z" transform="translate(-151.368 -51.46)" fill="#ededed"/>
  <path id="Path_774" data-name="Path 774" d="M271.077,70.271h-3.632v1.3h3.243V72.92h-3.243v1.473h3.79v1.386H265.92v-6.9h5.157Z" transform="translate(-159.083 -51.46)" fill="#ededed"/>
  <path id="Path_775" data-name="Path 775" d="M282.791,71.243a.624.624,0,0,0,.206-.48.686.686,0,0,0-.269-.585,1.483,1.483,0,0,0-.9-.206,2.927,2.927,0,0,0-1.814.648l-.8-1.06a3.66,3.66,0,0,1,1.247-.729,4.246,4.246,0,0,1,1.439-.24,4.049,4.049,0,0,1,1.1.144,2.648,2.648,0,0,1,.825.4,1.957,1.957,0,0,1,.542.609,1.824,1.824,0,0,1,.178.792,1.732,1.732,0,0,1-.178.792,1.3,1.3,0,0,1-.547.566v.1a1.511,1.511,0,0,1,.772.552,1.679,1.679,0,0,1,.278.96,2.029,2.029,0,0,1-.2.9,1.842,1.842,0,0,1-.552.71,2.936,2.936,0,0,1-.96.48,4.548,4.548,0,0,1-1.3.173,5.436,5.436,0,0,1-.859-.062,3.492,3.492,0,0,1-.758-.173,3.358,3.358,0,0,1-.691-.321,3.838,3.838,0,0,1-.648-.48l.811-1.132a3.492,3.492,0,0,0,1.06.595,3.838,3.838,0,0,0,1.185.178,1.727,1.727,0,0,0,1.022-.249.811.811,0,0,0,.326-.667c0-.48-.307-.72-.936-.72h-1.742V71.42h1.578a.859.859,0,0,0,.576-.178Z" transform="translate(-165.841 -51.309)" fill="#ededed"/>
  <path id="Path_776" data-name="Path 776" d="M295.511,73.476l3.358-4.6h1.362v6.9H298.7V71.461l-3.171,4.318H294v-6.9h1.526Z" transform="translate(-173.692 -51.46)" fill="#ededed"/>
  <path id="Path_777" data-name="Path 777" d="M316.367,74.392h1v.422l-.134,2.4h-1.386l-.062-1.439h-4.663l-.086,1.439h-1.4l-.086-2.4v-.422h.293a.753.753,0,0,0,.432-.154,1.175,1.175,0,0,0,.36-.48,5.825,5.825,0,0,0,.4-1.6A16.488,16.488,0,0,0,311.157,70V68.88h5.21ZM312.5,72.776a5.938,5.938,0,0,1-.48,1.626h2.8v-4.14h-2.14a16.5,16.5,0,0,1-.177,2.514Z" transform="translate(-181.782 -51.46)" fill="#ededed"/>
  <path id="Path_778" data-name="Path 778" d="M333.622,70.271h-3.637v1.3h3.243V72.92h-3.243v1.473h3.809v1.386H328.46v-6.9h5.162Z" transform="translate(-191.62 -51.46)" fill="#ededed"/>
  <path id="Path_779" data-name="Path 779" d="M343.969,71.581h3.013v-2.7h1.554v6.9h-1.554V73.011h-3.013v2.768H342.41v-6.9h1.559Z" transform="translate(-198.877 -51.46)" fill="#ededed"/>
  <path id="Path_780" data-name="Path 780" d="M364.031,70.281h-2.356v5.5H360.14v-5.5h-2.36v-1.4h6.237Z" transform="translate(-206.873 -51.46)" fill="#ededed"/>
  <path id="Path_781" data-name="Path 781" d="M376.9,70.173A2.773,2.773,0,0,0,375.857,70a2.533,2.533,0,0,0-.916.158,2.053,2.053,0,0,0-.691.451,2.092,2.092,0,0,0-.441.7,2.455,2.455,0,0,0-.153.873,2.53,2.53,0,0,0,.153.9,2.058,2.058,0,0,0,.451.681,2.125,2.125,0,0,0,.691.451,2.4,2.4,0,0,0,.888.154,3.358,3.358,0,0,0,1.1-.192,2.956,2.956,0,0,0,.907-.585l.878,1.084a4.145,4.145,0,0,1-2.965,1.108,4.237,4.237,0,0,1-1.473-.245,3.651,3.651,0,0,1-1.156-.72,3.455,3.455,0,0,1-.739-1.132,3.926,3.926,0,0,1-.269-1.473,3.536,3.536,0,0,1,.269-1.4,3.2,3.2,0,0,1,.749-1.156,3.636,3.636,0,0,1,1.195-.772,4.5,4.5,0,0,1,3.061-.038,3.531,3.531,0,0,1,1.195.7l-.854,1.123A2.274,2.274,0,0,0,376.9,70.173Z" transform="translate(-214.333 -51.309)" fill="#ededed"/>
  <path id="Path_782" data-name="Path 782" d="M390.021,71.509l.753-.082,1.948-2.547h1.919L392.074,72.1l2.811,3.675H392.9l-2.1-2.946h-.763v2.946H388.5v-6.9h1.521Z" transform="translate(-222.855 -51.46)" fill="#ededed"/>
  <path id="Path_783" data-name="Path 783" d="M405.58,73.476l3.358-4.6h1.319v6.9h-1.535V71.461l-3.171,4.318H404.04v-6.9h1.521Z" transform="translate(-230.94 -51.46)" fill="#ededed"/>
  <path id="Path_784" data-name="Path 784" d="M422.8,71.331h.1l1.372-2.461h1.919l-2.221,3.421,2.423,3.5h-1.981l-1.545-2.653h-.1l-1.526,2.653H419.25l2.423-3.584-2.207-3.315h1.919Z" transform="translate(-238.853 -51.455)" fill="#ededed"/>
  <path id="Path_785" data-name="Path 785" d="M451.51,70.281h-3.675v5.5H446.29v-6.9h5.22Z" transform="translate(-252.92 -51.46)" fill="#ededed"/>
  <path id="Path_786" data-name="Path 786" d="M463.818,69.067a2.672,2.672,0,0,1,.873.48,2.5,2.5,0,0,1,.556.782,2.538,2.538,0,0,1,.2,1.031,2.567,2.567,0,0,1-.216,1.07,2.2,2.2,0,0,1-.633.8,2.284,2.284,0,0,1-.907.48,3.359,3.359,0,0,1-1.132.177h-1.4v1.881H459.61V68.879h3.066a3.223,3.223,0,0,1,1.142.187Zm-1.247,3.459a1.439,1.439,0,0,0,.96-.307,1.051,1.051,0,0,0,.35-.835,1.084,1.084,0,0,0-.312-.816,1.3,1.3,0,0,0-.959-.307h-1.463v2.264Z" transform="translate(-259.85 -51.46)" fill="#ededed"/>
  <path id="Path_787" data-name="Path 787" d="M480.139,75.768h-1.708l-.523-1.367h-2.955l-.518,1.367H472.76l2.831-6.908h1.7ZM477.4,73.043l-.916-2.629h-.106l-.926,2.629Z" transform="translate(-266.691 -51.45)" fill="#ededed"/>
  <path id="Path_788" data-name="Path 788" d="M492.194,71.581h3.013v-2.7h1.559v6.9h-1.559V73.011h-3.013v2.768H490.64v-6.9h1.554Z" transform="translate(-275.993 -51.46)" fill="#ededed"/>
  <path id="Path_789" data-name="Path 789" d="M512.237,70.281h-2.356v5.5h-1.535v-5.5H506v-1.4h6.237Z" transform="translate(-283.984 -51.46)" fill="#ededed"/>
  <path id="Path_790" data-name="Path 790" d="M525.488,68.812a3.358,3.358,0,0,1,1.156.763,3.243,3.243,0,0,1,.729,1.132,3.789,3.789,0,0,1,.269,1.439,3.632,3.632,0,0,1-.269,1.4,3.458,3.458,0,0,1-.748,1.151,3.545,3.545,0,0,1-1.137.768,3.679,3.679,0,0,1-1.492.288,4.025,4.025,0,0,1-1.473-.264,3.626,3.626,0,0,1-1.151-.763,3.2,3.2,0,0,1-.763-1.18,3.837,3.837,0,0,1-.269-1.439,3.734,3.734,0,0,1,.269-1.4,3.205,3.205,0,0,1,.763-1.142,3.627,3.627,0,0,1,1.151-.763A3.665,3.665,0,0,1,524,68.51,4.131,4.131,0,0,1,525.488,68.812Zm-2.4,1.286a1.949,1.949,0,0,0-.657.48,1.891,1.891,0,0,0-.422.7,2.673,2.673,0,0,0-.144.864,2.783,2.783,0,0,0,.144.878,1.891,1.891,0,0,0,.422.7,2.294,2.294,0,0,0,.667.48,2.34,2.34,0,0,0,.887.168,2.183,2.183,0,0,0,.9-.178,1.861,1.861,0,0,0,.676-.48,2.139,2.139,0,0,0,.413-.7,2.949,2.949,0,0,0,.134-.859,2.686,2.686,0,0,0-.144-.873,1.857,1.857,0,0,0-.422-.71,1.92,1.92,0,0,0-.657-.48,2.481,2.481,0,0,0-1.794,0Z" transform="translate(-291.444 -51.267)" fill="#ededed"/>
  <path id="Path_791" data-name="Path 791" d="M543.111,69.376a1.813,1.813,0,0,1,.451,2.154,1.194,1.194,0,0,1-.48.48v.1a1.506,1.506,0,0,1,.806.595,1.617,1.617,0,0,1,.307.988,2.369,2.369,0,0,1-.144.8,1.7,1.7,0,0,1-.48.652,2.4,2.4,0,0,1-.792.441,3.357,3.357,0,0,1-1.142.163H538.28V68.872h3.046a2.73,2.73,0,0,1,1.785.5ZM541.4,71.593a.959.959,0,0,0,.614-.187.667.667,0,0,0,.221-.523c0-.48-.3-.691-.888-.691h-1.526v1.4Zm.245,2.879c.681,0,1.022-.269,1.022-.816a.686.686,0,0,0-.269-.585,1.185,1.185,0,0,0-.763-.206h-1.814v1.607Z" transform="translate(-300.777 -51.453)" fill="#ededed"/>
</svg>
