<svg width="564" height="143" viewBox="0 0 564 143" fill="none" xmlns="http://www.w3.org/2000/svg">
<g id="CLOUD 1 ANIMATION 1">
<g clip-path="url(#clip0)">
<g id="CLOUD 1 ANIMATION">
<path id="Ellipse 3" d="M360.653 142.373C472.8 142.373 563.714 141.043 563.714 139.402C563.714 137.761 472.8 136.431 360.653 136.431C248.505 136.431 157.592 137.761 157.592 139.402C157.592 141.043 248.505 142.373 360.653 142.373Z" fill="white"/>
<path id="Path 1" d="M0 124.289H244.933L266.614 130.489L512.56 126.355L453.66 112.921C445.555 105.856 436.514 99.9448 426.792 95.354C396.115 80.905 366.963 83.766 353.421 86.054C345.355 68.6504 334.144 52.886 320.353 39.554C305.58 25.339 275.992 -3.13301 235.615 0.284995C199.829 3.31499 176.907 29.585 170.515 37.485C167.615 36.334 142.633 26.902 117.815 41.618C92.9 56.39 89.247 82.987 88.88 86.054C84.828 84.576 55.587 74.454 27.91 91.221C10.104 102.001 2.534 118.097 0 124.289Z" fill="#E0EADD"/>
<path id="Path 7" d="M221.217 12.831C261.594 9.41202 291.182 37.884 305.955 52.1C319.746 65.4321 330.957 81.1964 339.023 98.6C352.565 96.312 381.717 93.452 412.394 107.9C422.116 112.491 431.157 118.402 439.262 125.467L447.91 127.439L512.56 126.352L453.66 112.918C445.554 105.854 436.511 99.9436 426.788 95.354C396.111 80.905 366.959 83.766 353.418 86.054C345.352 68.6505 334.141 52.8862 320.35 39.554C305.577 25.339 275.99 -3.13301 235.612 0.284995C207.804 2.63899 187.766 19.027 177.212 29.924C188.262 21.867 203.088 14.366 221.217 12.831Z" fill="white"/>
<path id="Path 8" d="M13.5067 103.768C41.1837 87.003 70.4247 97.123 74.4767 98.601C75.1999 93.324 76.607 88.1637 78.6627 83.25C66.8687 80.885 47.0127 79.643 27.9017 91.219C21.9126 94.8539 16.5362 99.4133 11.9717 104.728C12.475 104.405 12.9867 104.085 13.5067 103.768Z" fill="white"/>
<path id="Path 9" d="M103.412 54.1659C128.233 39.4499 153.219 48.881 156.112 50.033C159.948 45.3 164.155 40.8809 168.693 36.8179C161.93 34.4999 139.805 28.5749 117.805 41.6179C112 45.049 106.841 49.4705 102.562 54.6819C102.845 54.5089 103.125 54.3369 103.412 54.1659Z" fill="white"/>
</g>
</g>
</g>
<defs>
<clipPath id="clip0">
<rect width="563.713" height="142.373" fill="white"/>
</clipPath>
</defs>
</svg>
