<svg id="Logo_ECO-Z" xmlns="http://www.w3.org/2000/svg" width="271.323" height="94.792" viewBox="0 0 271.323 94.792">
  <path id="Path_792" data-name="Path 792" d="M1132.714,727.61c7.753-1.886,28.183-6.286,28.183-6.286l10.9,6.077s-.419,14.144,1.885,22.106,4.61,14.458,4.61,14.458,1.017,2.609-1.563,3.222a19.893,19.893,0,0,0-4.967,2c-2.534,1.4-5.062,3.593-9.709,4.735-7.88,1.937-16.857.752-23.147-.812-3.913-.973-7.044-1.643-7.445-3.169-1.047-3.981-.245-5.85,0-6.391s1.86-.773,1.467-1.781c-.559-1.436-3.623-3.33-5.343-4.82-3.62-.312-3.134,9.587-.628,12.677,3.1,3.817,25.018,12.865,39.707,9.639s15.192-6.234,16.659-8.958,2.723-8.749,2.723-8.749.073-.735-1.5-9.926c1.316,2.976,3.03,7.442,2.767,9.807-.42,3.772-3.012,13.961-3.012,13.961s6.155,1.179,8.669-1.021a51.062,51.062,0,0,0,1.886-7.387l4.61,8.748c2.5-.366,7.836-1.395,8.591-2.671.3-.51-5.029-5.553-6.7-8.172-.926-1.447,1.5-4.747,3.865-7.412-.666,7.472,4.286,16.967,9.572,16.92,6.487-.057,5.279-2.644,7.019-3.51,5.08-2.524,6.833-10.785.359-19.389-2.584-3.435-8.958-3.552-12.46-1.67a7.824,7.824,0,0,0-2.224,1.771,17.748,17.748,0,0,0-3.513-3.264l-9.22,10.32s-.523-10.005-.628-10.634c-.087-.518-7.506.245-10.109.529q-.271-1.547-.59-3.344c-2.724-15.3,0-12.131-2.829-15.506s-16.587-10.29-19.7-10.582c-1.48-.139-7.838.642-14.316,2.117-7.131,1.624-14.409,3.988-15.491,4.588-2.065,1.146-.539,2.859,1.938,7.334,3.467,6.261,3.868,3.479,4.013,1.49C1136.284,732.056,1132.7,728.032,1132.714,727.61Zm74.792,14.81c4.087-.054,3.538.456,3.955-2.462a139.536,139.536,0,0,1,18.835.851,253.258,253.258,0,0,1,26.609,4.637c-1.245,1.131-7.074,6.036-14.585,13.384-8.9,8.71-18.265,18.95-17.526,19.972,1.361,1.885,16.239-6.365,30.907-.812a28.732,28.732,0,0,1,4.348-7.1c-10.537-1.934-17.3-2.361-26.863,1.572l15.62-15.79,15.853-13.913c.944-.829.067-2.853-.526-2.909-9.245-.876-17.992-1.444-25.557-2.555-11.3-1.659-22.137-5.592-38.193-9.518-.51-.124-1.714.756-1.664,1.26.127,1.26,1.825,3.51,3.295,5.583,1.413,1.995,3.124,3.564,4.112,5.068.352.534.232,1.209.42,1.668a1.714,1.714,0,0,0,.961,1.062Zm12.206,23.757c2.722-2.056,2.242-6.886-.277-9.306-2.8-2.687-6.449-1.8-7.2,1.909C1211.207,763.842,1216.713,768.443,1219.713,766.177Z" transform="translate(-1124.969 -685.152)" fill="#565d8d" fill-rule="evenodd"/>
  <g id="Group_3" data-name="Group 3" transform="translate(102.584 10.201)">
    <path id="Path_793" data-name="Path 793" d="M1581.9,616.641l.249-.309h0l.114.084.1.059.087.036.073.017.061,0,.053-.009.05-.02.052-.033.054-.049.055-.064.054-.08.053-.1.051-.108.048-.12.046-.13.043-.139.041-.145.039-.151.036-.156.035-.158.033-.16.031-.159.031-.16.03-.157.029-.153.03-.149.031-.143.031-.136.032-.128.034-.12.037-.111.041-.1.361.164-.03.075-.03.09-.03.106-.03.118-.029.128-.029.138-.029.145-.03.152-.03.156-.031.16-.032.163-.034.163-.035.163-.037.162-.041.159-.043.156-.047.151-.051.146-.057.139-.061.13-.068.122-.076.113-.085.1-.1.088-.111.071-.124.05-.134.023-.14-.005-.142-.032-.141-.058-.143-.082-.146-.107h0Zm-.42-1.822.379-.118.013.048.012.049.009.052.009.053.007.055.007.057.006.06,0,.06.005.062.005.063,0,.064,0,.065,0,.065,0,.065.006.065.006.064.006.064.007.063.008.061.009.059.01.057.01.055.011.051.013.049.014.046.014.04.015.037.015.032.015.026.013.02.013.015.011.01-.249.309-.047-.044-.041-.048-.036-.052-.03-.054-.026-.055-.023-.057-.021-.06-.018-.06-.016-.062-.014-.065-.012-.065-.011-.066-.01-.067-.009-.068-.008-.068-.007-.068-.006-.068-.005-.067-.006-.066,0-.066,0-.064-.005-.063,0-.061,0-.06-.005-.057-.005-.053-.006-.051-.006-.047-.007-.043-.007-.038-.008-.033Z" transform="translate(-1581.479 -613.395)" fill="#565d8d"/>
  </g>
  <g id="Group_4" data-name="Group 4" transform="translate(96.959 15.657)">
    <path id="Path_794" data-name="Path 794" d="M1559.355,639.033l.2.343-.086.041-.094.032-.1.027-.114.023-.124.019-.133.016-.141.012-.148.008-.153,0h-.156l-.159-.006-.16-.01-.16-.015-.159-.021-.154-.026-.151-.032-.145-.039-.138-.047-.13-.055-.122-.065-.11-.075-.1-.089-.081-.105-.061-.122-.031-.135v-.142l.031-.144.059-.145.086-.146.112-.149.14-.153.169-.159.263.3-.151.142-.118.129-.088.116-.059.1-.035.085-.015.069v.055l.011.047.022.044.036.046.053.048.07.048.086.046.1.042.113.038.123.033.132.029.139.023.144.019.146.014.148.009.147,0h.146l.141,0,.136-.007.128-.011.119-.014.107-.017.095-.019.079-.021.058-.02Z" transform="translate(-1556.444 -637.677)" fill="#565d8d"/>
  </g>
  <g id="Group_5" data-name="Group 5" transform="translate(99.443 17.085)">
    <path id="Path_795" data-name="Path 795" d="M1568.874,645.768l.069.39h0l-.09.013-.09.009-.091,0h-.089l-.088-.007-.087-.011-.086-.017-.083-.022-.081-.028-.079-.033-.077-.039-.073-.045-.069-.051-.064-.057-.06-.063-.054-.07-.047-.075-.041-.08-.034-.086-.026-.09-.019-.094-.011-.1,0-.1.006-.106.014-.11.022-.113.03-.117.039-.12.047-.124.056-.127.066-.132.075-.135.343.2-.067.121-.058.116-.048.11-.04.1-.031.1-.025.094-.016.087-.01.082,0,.076,0,.071.006.065.012.06.016.055.021.05.024.047.028.044.031.04.035.036.039.034.041.031.046.028.049.025.052.022.055.018.058.016.06.012.063.008.065,0h.067l.067,0,.069-.007.07-.01Zm1.426-1.1.378.12-.016.046-.02.044-.023.045-.026.045-.029.046-.031.047-.035.048-.037.049-.041.05-.042.05-.045.051-.048.051-.049.05-.052.051-.055.051-.057.05-.058.05-.061.049-.063.048-.064.046-.066.046-.068.044-.068.042-.07.041-.072.038-.073.036-.075.033-.075.03-.077.027-.078.024-.079.02-.08.016-.069-.39.06-.012.06-.016.061-.019.062-.022.061-.024.062-.027.061-.03.061-.032.059-.034.06-.036.058-.038.057-.04.056-.041.055-.042.053-.043.052-.044.05-.045.047-.044.045-.045.045-.045.041-.044.038-.043.037-.043.033-.041.03-.04.028-.039.024-.035.021-.034.017-.031.014-.027.01-.022.006-.017Z" transform="translate(-1567.501 -644.031)" fill="#565d8d"/>
  </g>
  <g id="Group_6" data-name="Group 6" transform="translate(91.388 16.711)">
    <path id="Path_796" data-name="Path 796" d="M1535.522,643.893l-.03.4-.127-.011-.13-.013-.132-.016-.134-.018-.134-.02-.137-.023-.137-.025-.137-.029-.138-.03-.138-.034-.137-.036-.138-.039-.136-.041-.135-.045-.135-.047-.133-.05-.131-.053-.128-.056-.126-.059-.123-.061-.121-.065-.117-.068-.115-.071-.111-.075-.106-.078-.1-.082-.1-.085-.092-.089-.087-.094-.081-.1-.075-.1-.068-.1.339-.206.054.084.061.082.067.08.072.078.078.075.083.074.089.071.093.069.1.067.1.064.106.062.11.059.113.057.117.054.12.052.121.049.124.047.126.044.127.042.129.039.13.037.13.034.131.032.131.029.131.027.13.024.129.022.129.019.127.017.125.015.123.013Z" transform="translate(-1531.652 -642.365)" fill="#565d8d"/>
  </g>
  <g id="Group_7" data-name="Group 7" transform="translate(91.152 13.394)">
    <path id="Path_797" data-name="Path 797" d="M1534.2,629.552l-.079.389h0l-.08-.016-.083-.015-.086-.016-.089-.015-.091-.014-.094-.013-.1-.012-.1-.01-.1-.008-.1-.007-.1,0-.105,0h-.107l-.107,0-.109.007-.108.01-.109.014-.109.018-.109.022-.108.026-.109.031-.108.035-.107.041-.106.045-.105.051-.1.056-.1.063-.1.069-.1.075-.1.082-.1.09-.094.1-.291-.269.107-.111.111-.1.114-.1.116-.088.118-.08.118-.073.121-.066.122-.059.123-.053.124-.046.123-.041.124-.035.124-.03.123-.025.123-.02.122-.016.121-.011.12-.008.118,0h.117l.116,0,.112.005.111.006.109.009.106.011.1.013.1.014.1.015.094.016.089.016.086.016.083.017Zm-.3.271.35-.187-.139-.1h0l.009,0h-.006l.019,0h0l.009,0h.012l.014,0h.005l.007,0h.007l.008,0,.008,0h-.005l.013,0,.017,0,.01,0-.063.386-.033,0-.026-.006.018,0h0l-.012,0h0l.079-.389.009,0h0l.023.006-.023-.005-.032,0-.063.386.007,0,.014,0,.008,0-.009,0-.01,0h-.01l-.011,0h-.018l-.013,0-.007,0h-.014l-.009,0,.011,0h-.009l-.01,0h0l-.139-.1Zm.139.1-.094-.017-.045-.084Zm.429-2.319.264.295-.02.02-.023.029-.026.035-.026.042-.027.048-.027.054-.027.058-.026.062-.026.066-.025.069-.025.072-.023.073-.021.075-.022.076-.02.076-.018.078-.018.077-.016.076-.014.074-.013.073-.011.071-.009.068-.009.065-.006.061,0,.057,0,.052v.084l0,.031,0,.02v.007l0-.011-.35.187-.023-.057-.013-.054-.007-.052,0-.054v-.116l0-.064.005-.066.007-.07.009-.073.01-.075.012-.077.014-.079.016-.081.017-.082.019-.083.02-.082.021-.084.023-.083.024-.082.026-.082.027-.079.028-.078.03-.075.031-.073.032-.07.034-.067.036-.064.038-.061.041-.056.043-.052Z" transform="translate(-1530.605 -627.605)" fill="#565d8d"/>
  </g>
  <g id="Group_8" data-name="Group 8" transform="translate(94.921 3.119)">
    <path id="Path_798" data-name="Path 798" d="M1552.861,590.627l-.32-.233h0l.162-.233.152-.242.144-.25.136-.258.128-.264.121-.27.115-.276.11-.281.1-.285.1-.288.1-.292.093-.293.091-.3.089-.3.087-.3.087-.295.087-.294.087-.292.089-.289.09-.286.094-.282.1-.278.1-.272.105-.267.111-.26.117-.253.124-.245.131-.236.14-.228.15-.217.158-.206.17-.195.291.27-.153.177-.146.188-.138.2-.13.211-.124.222-.117.232-.112.241-.106.249-.1.258-.1.265-.1.271-.091.276-.09.282-.087.286-.088.29-.086.293-.087.3-.088.3-.089.3-.092.3-.094.3-.1.3-.1.295-.107.292-.113.289-.119.285-.126.281-.134.275-.142.27-.151.263-.161.256-.172.247h0Zm-5.483,1.855.327-.224.119.159.122.138.125.118.128.1.13.08.133.064.136.048.139.033.143.018.147,0,.15-.01.154-.023.157-.036.16-.049.162-.062.165-.074.167-.085.168-.1.168-.107.168-.117.169-.126.168-.136.167-.144.166-.151.164-.158.161-.165.159-.17.156-.175.153-.18.149-.183.144-.186.141-.189.32.233-.145.2-.15.193-.155.19-.158.186-.161.182-.166.177-.169.172-.171.165-.174.159-.176.152-.178.144-.18.135-.181.126-.182.116-.184.106-.184.095-.185.083-.186.07-.187.057-.186.042-.185.028-.186.012-.184-.006-.183-.023-.179-.042-.175-.062-.172-.082-.166-.1-.159-.123-.153-.143-.145-.164Z" transform="translate(-1547.378 -581.881)" fill="#565d8d"/>
  </g>
  <g id="Group_9" data-name="Group 9" transform="translate(104.675 0.059)">
    <path id="Path_799" data-name="Path 799" d="M1591.164,574.125l-.382-.109.027-.1.029-.115.031-.127.033-.14.034-.151.035-.161.037-.171.037-.179.038-.187.038-.194.04-.2.039-.2.039-.209.039-.212.039-.214.039-.216.037-.217.037-.217.036-.216.034-.214.034-.212.032-.208.031-.2.029-.2.028-.192.025-.185.023-.177.02-.169.018-.158.015-.148.012-.136.009-.124.4.025-.009.13-.013.142-.015.153-.018.162-.021.172-.023.18-.025.187-.027.194-.029.2-.031.205-.033.21-.034.213-.035.216-.036.217-.038.219-.038.218-.039.218-.039.216-.039.213-.04.21-.039.206-.039.2-.039.2-.038.188-.038.181-.037.173-.036.163-.035.153-.034.144-.032.131-.031.119Z" transform="translate(-1590.782 -568.263)" fill="#565d8d"/>
  </g>
  <g id="Group_10" data-name="Group 10" transform="translate(103.649 0)">
    <path id="Path_800" data-name="Path 800" d="M1586.455,573.533l-.237-.317.117-.1.113-.107.108-.119.1-.131.1-.141.1-.15.091-.159.087-.167.082-.174.079-.18.074-.185.071-.189.067-.192.064-.2.06-.2.057-.2.054-.2.052-.2.048-.2.047-.193.044-.191.043-.186.041-.181.039-.176.039-.169.037-.162.036-.154.036-.146.036-.136.036-.126.037-.116.038-.106.37.143-.032.089-.032.1-.034.118-.034.13-.035.14-.036.15-.036.16-.038.169-.039.176-.042.182-.043.188-.045.192-.047.2-.05.2-.052.2-.056.2-.059.2-.061.2-.066.2-.07.2-.074.2-.078.195-.083.191-.088.186-.094.18-.1.174-.106.167-.112.157-.119.15-.127.139-.134.128Z" transform="translate(-1586.218 -568)" fill="#565d8d"/>
  </g>
  <g id="Group_11" data-name="Group 11" transform="translate(81.303 30.127)">
    <path id="Path_801" data-name="Path 801" d="M1487.162,705.7l-.389-.078.042-.2.046-.193.048-.187.052-.18.054-.174.057-.168.059-.161.061-.155.064-.15.067-.143.067-.138.069-.131.071-.127.073-.12.074-.116.076-.109.076-.1.078-.1.078-.094.079-.089.08-.084.081-.08.08-.075.081-.07.08-.065.08-.06.08-.057.08-.051.079-.048.078-.044.077-.04.077-.036.161.362-.063.029-.065.033-.066.036-.067.041-.068.044-.069.048-.07.053-.07.057-.07.061-.071.066-.071.07-.071.075-.071.08-.071.084-.07.089-.069.095-.069.1-.068.105-.066.111-.066.116-.064.122-.064.128-.061.133-.059.14-.058.146-.055.152-.054.158-.052.165-.048.171-.047.178-.043.184Z" transform="translate(-1486.774 -702.068)" fill="#565d8d"/>
  </g>
  <g id="Group_12" data-name="Group 12" transform="translate(79.798 33.005)">
    <path id="Path_802" data-name="Path 802" d="M1483.51,714.874l.27.29-.1.093-.1.092-.1.091-.1.09-.095.089-.094.088-.093.087-.093.087-.094.086-.094.085-.094.084-.094.084-.1.083-.1.082-.1.082-.1.081-.1.081-.1.08-.106.079-.108.079-.112.079-.115.078-.118.077-.121.077-.125.077-.129.076-.132.076-.137.076-.141.076-.147.075-.151.075-.156.075-.169-.359.151-.072.146-.073.141-.072.136-.073.132-.073.127-.073.123-.073.119-.073.116-.074.112-.074.109-.075.107-.075.1-.076.1-.076.1-.077.1-.077.1-.078.095-.079.093-.08.092-.081.092-.081.092-.083.092-.083.091-.085.092-.085.092-.087.094-.088.094-.089.1-.09.1-.091.1-.092Z" transform="translate(-1480.079 -714.874)" fill="#565d8d"/>
  </g>
  <g id="Group_13" data-name="Group 13" transform="translate(85.355 26.52)">
    <path id="Path_803" data-name="Path 803" d="M1505.983,686.993l-.39-.069.207.232-.1,0h-.1l-.09,0-.083-.007-.079-.011-.073-.016-.069-.019-.064-.025-.061-.029-.056-.036-.049-.039-.044-.044-.038-.049-.03-.052-.024-.054-.017-.055-.01-.053-.006-.053,0-.052,0-.051.005-.048.007-.048.009-.047.01-.046.012-.044.012-.043.013-.041.013-.039.013-.038.011-.036.011-.034.01-.032.379.117-.011.036-.012.036-.012.037-.012.036-.011.036-.011.036-.009.034-.009.035-.008.033-.006.031,0,.03,0,.029v.047l0,.02,0,.017,0,.014.005.011.006.01.007.01.01.01.014.011.018.012.024.012.032.012.039.012.047.01.055.008.063.005.071,0h.08l.088,0Zm-.207-.233.251-.016-.044.248Zm1.1.829-.026.4h0l-.08-.007-.078-.01-.075-.012-.072-.015-.071-.018-.067-.02-.064-.022-.062-.024-.061-.027-.056-.028-.054-.03-.052-.032-.049-.034-.046-.034-.044-.036-.042-.037-.037-.038-.036-.039-.033-.04-.031-.041-.028-.042-.025-.041-.023-.042-.02-.044-.017-.043-.013-.042-.012-.044-.008-.045-.005-.043,0-.045,0-.043.006-.044.39.069v.031l0,.016,0,.017,0,.018.007.021.009.021.01.022.012.023.015.024.016.025.018.024.021.025.023.026.026.026.027.024.03.024.032.024.034.023.036.022.039.021.042.021.043.019.046.018.049.017.051.016.053.013.057.011.06.01.061.008.065.005Zm1.639-.629.239.317-.075.056-.074.053-.072.05-.072.048-.069.045-.069.043-.067.04-.066.038-.065.036-.065.033-.063.031-.063.029-.061.027-.06.025-.061.023-.058.02-.058.019-.058.017-.056.015-.056.013-.055.012-.054.01-.053.009-.054.007-.052.005-.051,0-.052,0h-.148l-.049,0-.048,0,.026-.4.04,0h.162l.041,0,.042,0,.043,0,.042-.005.043-.007.044-.008.045-.01.046-.011.047-.013.048-.014.048-.016.05-.018.051-.019.052-.021.054-.023.054-.025.056-.027.056-.029.059-.032.06-.035.062-.036.062-.039.064-.041.066-.044.066-.046.069-.05Z" transform="translate(-1504.808 -686.017)" fill="#565d8d"/>
  </g>
  <g id="Group_14" data-name="Group 14" transform="translate(86.995 22.244)">
    <path id="Path_804" data-name="Path 804" d="M1516.144,666.986l.316.24-.11.136-.115.128-.119.119-.123.111-.127.1-.13.1-.133.089-.137.082-.139.075-.14.069-.142.064-.144.058-.145.053-.146.048-.146.044-.146.04-.146.036-.147.034-.145.03-.144.028-.143.025-.141.023-.14.021-.137.021-.135.019-.133.019-.129.018-.127.019-.123.018-.119.019-.115.02-.11.021-.078-.389.118-.022.12-.021.123-.02.126-.019.129-.018.13-.018.132-.019.134-.019.135-.02.137-.021.138-.023.138-.025.139-.026.138-.029.138-.031.137-.034.137-.038.136-.041.135-.045.133-.048.131-.053.129-.057.127-.063.125-.067.121-.073.118-.079.115-.085.111-.091.108-.1.1-.1.1-.112Z" transform="translate(-1512.104 -666.986)" fill="#565d8d"/>
  </g>
  <g id="Group_15" data-name="Group 15" transform="translate(88.556 20.72)">
    <path id="Path_805" data-name="Path 805" d="M1523.442,660.285l.389-.078.019.111.014.124.009.134,0,.146,0,.156-.009.166-.016.174-.025.182-.033.189-.042.2-.052.2-.063.205-.074.209-.087.211-.1.214-.113.214-.126.214-.141.213-.156.211-.172.208-.189.2-.206.2-.224.194-.242.187-.262.179-.281.17-.3.161-.322.15-.342.139-.365.127-.387.113-.41.1-.085-.387.392-.1.369-.108.346-.121.324-.131.3-.142.282-.151.263-.159.243-.166.225-.173L1522,664l.19-.184.175-.188.159-.191.144-.194.13-.2.116-.2.1-.2.091-.2.08-.2.068-.192.058-.189.048-.184.038-.18.031-.174.022-.166.015-.159.008-.15,0-.14,0-.129-.008-.118-.012-.1Z" transform="translate(-1519.049 -660.208)" fill="#565d8d"/>
  </g>
  <g id="Group_16" data-name="Group 16" transform="translate(81.075 36.249)">
    <path id="Path_806" data-name="Path 806" d="M1489.366,730.316l.169.359-.13.056-.135.047-.14.04-.143.032-.148.025-.15.018-.152.011-.155,0-.156,0-.156-.008-.156-.014-.156-.019-.154-.026-.153-.031-.15-.037-.147-.042-.143-.047-.14-.053-.134-.058-.129-.063-.124-.068-.116-.073-.109-.079-.1-.084-.093-.09-.083-.1-.071-.1-.06-.11-.047-.116-.031-.122-.014-.126,0-.13.395.037,0,.074.009.072.018.07.028.07.038.069.049.069.059.068.069.067.079.066.088.063.1.061.1.058.111.054.118.05.123.046.127.042.133.038.135.033.138.028.14.023.14.018.142.012.141.007.139,0,.138,0,.135-.01.131-.016.128-.021.123-.027.118-.033.11-.039Z" transform="translate(-1485.758 -729.311)" fill="#565d8d"/>
  </g>
  <g id="Group_17" data-name="Group 17" transform="translate(73.435 41.363)">
    <path id="Path_807" data-name="Path 807" d="M1455.6,755.3l.28.281-.14.123-.148.1-.155.073-.16.048-.164.022h-.164l-.163-.022-.162-.042-.159-.06-.157-.076-.155-.091-.153-.1-.15-.116-.148-.127-.146-.137-.143-.147-.14-.155-.137-.163-.133-.169-.13-.174-.125-.179-.121-.183-.115-.185-.11-.186-.1-.188-.1-.188-.091-.186-.085-.184-.077-.182-.07-.178-.062-.174-.053-.169.381-.112.048.154.057.16.066.167.073.171.081.175.087.178.094.178.1.179.1.179.11.176.115.174.118.169.123.165.126.159.128.152.13.144.132.135.133.125.134.114.133.1.131.089.13.076.127.061.123.047.119.031.115.016h.109l.1-.015.1-.03.1-.048.1-.067Z" transform="translate(-1451.762 -752.069)" fill="#565d8d"/>
  </g>
  <g id="Group_18" data-name="Group 18" transform="translate(74.3 41.528)">
    <path id="Path_808" data-name="Path 808" d="M1455.613,752.908l.383-.1.049.158.066.164.081.171.1.174.11.178.124.181.136.182.148.183.159.183.17.182.178.18.187.178.2.174.2.17.208.166.214.16.218.153.223.146.225.139.227.13.229.121.229.111.228.1.227.089.225.077.222.064.217.051.212.037.206.023.2.008.192-.008.184-.023.068.391-.219.027-.225.009-.229-.009-.232-.026-.236-.041-.239-.055-.24-.07-.241-.083-.242-.095-.242-.107-.241-.117-.24-.127-.239-.136-.235-.145-.232-.153-.228-.16-.223-.167-.218-.172-.211-.177-.2-.182-.2-.186-.187-.189-.178-.191-.169-.193-.157-.195-.145-.195-.134-.195-.121-.194-.106-.194-.092-.192-.076-.19Z" transform="translate(-1455.613 -752.805)" fill="#565d8d"/>
  </g>
  <g id="Group_19" data-name="Group 19" transform="translate(71.609 41.026)">
    <path id="Path_809" data-name="Path 809" d="M1446.536,755.236l-.16.363-.107-.05-.1-.052-.1-.056-.089-.058-.085-.061-.08-.063-.074-.065-.069-.068-.064-.069-.059-.071-.054-.072-.049-.074-.044-.075-.039-.076-.036-.076-.031-.077-.027-.076-.023-.077-.02-.077-.016-.077-.013-.076-.009-.075-.007-.075,0-.074v-.144l0-.069.005-.069.008-.068.009-.066.01-.063.012-.061.389.079-.01.052-.009.054-.008.054-.006.056,0,.057,0,.058v.118l0,.059.005.06.008.061.01.061.012.06.016.06.018.06.021.059.024.059.027.059.03.058.033.057.037.056.042.056.046.055.05.054.054.053.059.052.063.051.069.049.074.048.08.046.086.044.092.043Zm-2.888-4.664.387.084,0,.028,0,.051.011.07.021.086.03.1.04.11.05.12.058.128.068.137.077.143.085.149.094.154.1.157.109.161.117.163.124.164.131.165.138.164.144.164.151.162.157.159.162.155.168.151.173.146.178.14.183.134.187.126.191.118.195.109.2.1.2.089.205.078-.13.374-.225-.085-.22-.1-.215-.108-.211-.117-.205-.127-.2-.135-.194-.142-.189-.148-.183-.155-.177-.159-.171-.164-.165-.167-.158-.169-.151-.172-.144-.172-.138-.173-.129-.172-.123-.171-.115-.169-.107-.166-.1-.163-.091-.157-.082-.153-.074-.148-.064-.141-.056-.134-.047-.128-.036-.12-.027-.113-.017-.107,0-.1Z" transform="translate(-1443.636 -750.572)" fill="#565d8d"/>
  </g>
  <g id="Group_20" data-name="Group 20" transform="translate(89.686 18.452)">
    <path id="Path_810" data-name="Path 810" d="M1526.735,651.809l.305-.253-.234.307-.2-.082-.185-.066-.173-.05-.161-.035-.151-.023-.14-.01h-.13l-.119.011-.111.02-.1.027-.094.035-.087.041-.081.046-.074.052-.069.057-.063.059-.057.062-.053.065-.047.066-.043.067-.037.066-.034.066-.029.063-.024.059-.021.055-.017.051-.013.044-.01.038-.007.029,0,.018h0l-.364-.124.334.213-.365-.131.005-.031.007-.033.009-.04.013-.048.017-.056.021-.062.026-.069.031-.073.036-.077.041-.08.047-.083.054-.084.061-.085.067-.083.075-.083.084-.079.092-.075.1-.07.109-.063.118-.055.127-.047.136-.037.145-.026.153-.013h.161l.17.012.179.027.188.042.2.057.206.074.216.09Zm.305-.253.545.658-.779-.351Zm-.228-1.444.28.281-.05.052-.045.05-.041.048-.035.047-.031.046-.027.044-.023.041-.019.041-.016.038-.013.037-.01.037-.007.034,0,.033,0,.033v.033l0,.031,0,.031.006.032.007.03.01.032.011.031.014.032.015.033.017.033.018.031.02.033.022.034.023.033.024.033.026.034.027.034.027.033-.305.253-.031-.038-.031-.039-.03-.039-.03-.041-.029-.042-.027-.042-.027-.044-.025-.046-.024-.046-.022-.047-.02-.049-.018-.051-.016-.051-.013-.054-.01-.054-.007-.055,0-.057v-.057l0-.058.008-.06.013-.059.016-.06.02-.06.025-.06.029-.06.033-.061.037-.06.042-.061.046-.061.051-.061.055-.061Z" transform="translate(-1524.08 -650.113)" fill="#565d8d"/>
  </g>
  <g id="Group_21" data-name="Group 21" transform="translate(96.147 3.2)">
    <path id="Path_811" data-name="Path 811" d="M1560.2,583.456l-.38-.114h0l.013-.039.014-.038.016-.039.016-.037.018-.036.018-.037.02-.037.02-.036.021-.036.02-.034.021-.036.022-.035.021-.035.022-.035.022-.034.021-.034.022-.036.021-.033.021-.034.021-.034.02-.034.019-.033.018-.032.018-.033.017-.033.016-.033.015-.031.013-.03.013-.032.011-.03.01-.031.009-.029.382.107-.013.044-.014.042-.016.041-.017.042-.019.041-.019.04-.019.039-.02.038-.021.038-.022.039-.021.038-.022.036-.021.036-.023.037-.022.036-.022.034-.021.035-.022.036-.021.033-.021.033-.02.032-.019.032-.019.032-.018.031-.017.03-.015.029-.014.029-.014.029-.012.027-.01.026-.009.026-.008.025Zm-3.539,7.115-.32-.233h0l.156-.214.149-.2.143-.194.137-.187.132-.18.126-.173.121-.168.117-.165.112-.161.109-.16.1-.158.1-.159.1-.16.1-.162.1-.166.093-.171.093-.176.091-.182.091-.191.092-.2.091-.209.092-.22.094-.233.094-.245.1-.259.1-.275.1-.291.1-.308.107-.326.111-.345.113-.366.118-.387.38.114-.119.389-.114.368-.111.349-.107.329-.1.311-.1.295-.1.279-.1.264-.1.25-.1.237-.094.226-.094.215-.094.205-.094.2-.095.19-.1.183-.1.176-.1.173-.1.168-.1.166-.105.164-.108.163-.111.164-.115.165-.119.167-.123.17-.127.175-.133.18-.137.187-.143.194-.149.2-.155.213h0Zm-3.675,2.95-.156-.365.117-.052.119-.057.122-.062.124-.067.125-.071.127-.075.127-.078.127-.083.128-.085.127-.089.128-.091.128-.093.126-.1.125-.1.124-.1.123-.1.12-.1.118-.1.115-.1.114-.1.11-.1.107-.1.1-.1.1-.1.1-.1.091-.1.086-.094.082-.091.076-.089.071-.085.065-.082.058-.078.321.233-.065.087-.07.089-.075.092-.081.094-.086.1-.091.1-.1.1-.1.1-.1.1-.107.1-.111.1-.114.105-.116.1-.119.105-.122.105-.125.1-.125.1-.128.1-.13.1-.131.1-.132.1-.132.094-.133.092-.133.089-.134.086-.133.082-.133.079-.133.075-.131.071-.13.066-.129.062-.128.057Z" transform="translate(-1552.834 -582.243)" fill="#565d8d"/>
  </g>
  <g id="Group_22" data-name="Group 22" transform="translate(119.493 47.601)">
    <path id="Path_812" data-name="Path 812" d="M1656.81,780.571l.292.1h0l-.028.093-.021.094-.014.1-.006.1v.1l.009.1.016.1.024.1.031.1.039.1.046.1.055.1.062.1.07.095.078.093.087.092.094.089.1.086.111.084.119.081.128.078.136.074.144.07.153.065.161.061.17.056.178.051.186.046.194.04.2.034.212.027.221.021-.023.308-.231-.021-.223-.029-.215-.035-.207-.042-.2-.049-.19-.054-.182-.06-.174-.066-.165-.071-.157-.077-.149-.081-.14-.086-.133-.09-.124-.094-.115-.1-.107-.1-.1-.1-.091-.108-.082-.11-.073-.112-.064-.114-.056-.116-.047-.118-.038-.12-.029-.12-.02-.12-.01-.121,0-.12.008-.12.016-.119.026-.118.035-.116Zm4.157.494-.178.252-.2-.138-.2-.129-.192-.12-.187-.111-.182-.1-.177-.093-.171-.085-.166-.076-.161-.067-.156-.059-.149-.051-.144-.043-.138-.036-.132-.029-.126-.021-.119-.014-.114-.007h-.108l-.1.006-.094.011-.089.018-.082.022-.076.028-.069.032-.064.037-.058.041-.052.045-.047.05-.042.054-.037.059-.032.064-.027.068-.292-.1.037-.094.045-.089.053-.084.06-.078.067-.072.075-.066.082-.058.088-.051.094-.044.1-.036.105-.029.111-.021.116-.014.12-.006h.126l.131.008.135.016.14.023.146.031.15.039.155.047.16.055.165.063.169.071.174.08.179.088.184.1.188.105.193.115.2.124.2.132Z" transform="translate(-1656.725 -779.828)" fill="#565d8d"/>
  </g>
  <g id="Group_23" data-name="Group 23" transform="translate(123.554 44.018)">
    <path id="Path_813" data-name="Path 813" d="M1675.207,765.782l.287.113h0l-.04.1-.038.1-.036.1-.035.105-.033.106-.03.106-.028.105-.026.1-.024.1-.021.1-.019.1-.016.1-.014.1-.011.1-.008.1-.005.094,0,.092v.089l0,.088.005.084.009.082.012.078.014.074.017.071.02.068.023.064.026.059.029.056.032.052.034.047.037.043.04.039-.207.228-.059-.058-.053-.063-.048-.067-.043-.071-.039-.074-.034-.078-.03-.081-.026-.083-.021-.087-.017-.089-.013-.091-.011-.094-.006-.1,0-.1v-.1l0-.1.006-.1.01-.1.011-.106.015-.107.018-.108.02-.108.022-.109.024-.11.028-.11.029-.112.032-.11.034-.111.036-.11.038-.111.04-.11.043-.109h0Zm1.811-1.872.035.307h0l-.078.01-.074.014-.073.017-.068.022-.067.024-.064.028-.062.03-.06.034-.058.037-.056.039-.054.042-.053.045-.051.048-.049.05-.048.053-.047.056-.045.057-.044.06-.042.063-.042.064-.04.066-.039.068-.039.07-.036.071-.036.072-.036.074-.035.075-.033.076-.033.077-.032.077-.032.079-.031.079-.287-.113.032-.081.033-.081.033-.08.034-.08.036-.08.036-.078.037-.078.039-.078.04-.077.042-.075.043-.074.045-.073.046-.071.048-.069.049-.068.052-.067.054-.063.056-.062.058-.059.06-.056.064-.055.066-.051.068-.048.072-.045.074-.042.077-.038.08-.034.082-.03.085-.026.088-.021.091-.018.094-.013h0Zm1.778.633-.174.255h0l-.042-.03-.041-.03-.04-.03-.039-.031-.038-.03-.038-.03-.037-.029-.037-.029-.037-.029-.037-.028-.036-.026-.037-.026-.039-.026-.038-.024-.04-.023-.04-.022-.042-.021-.042-.019-.045-.019-.047-.017-.048-.016-.05-.014-.054-.013-.057-.011-.059-.009-.062-.007-.065,0-.069,0h-.073l-.077,0-.08.005-.085.008-.035-.307.094-.009.09-.006.087,0h.083l.08,0,.076.006.075.008.071.011.068.013.065.015.063.018.061.02.058.022.055.023.054.025.052.026.049.027.048.028.046.029.044.03.043.03.041.031.04.03.039.03.039.031.038.03.037.029.036.029.036.028.036.027.037.027.036.026Zm1.414.358-.025.308.1-.028-.054.037-.054.034-.053.03-.052.026-.052.023-.052.019-.053.016-.052.011-.051.008-.052,0h-.051l-.052,0-.05-.008-.05-.011-.049-.015-.047-.017-.048-.019-.047-.022-.047-.025-.047-.026-.048-.028-.048-.03-.049-.032-.05-.033-.052-.035-.052-.036-.054-.038-.056-.039-.058-.041-.059-.042-.062-.043-.064-.044.174-.255.066.045.063.044.061.042.057.041.056.039.053.037.051.036.048.033.047.031.045.029.043.026.041.024.039.022.038.019.035.016.034.014.033.012.031.009.03.007.029,0,.028,0h.029l.029,0,.03,0,.03-.006.031-.009.034-.013.036-.015.037-.019.04-.023.042-.027.044-.031Zm-.1.028.046-.033.056,0Zm.762.486.054.3h0l-.042,0-.043,0-.04-.01-.039-.017-.033-.021-.027-.022-.024-.024-.02-.024-.016-.023-.016-.023-.014-.023-.013-.022-.014-.023-.012-.022-.013-.021-.013-.022-.013-.02-.013-.019-.014-.019-.015-.018-.016-.018-.016-.015-.017-.015-.019-.014-.02-.013-.023-.012-.024-.012-.027-.01-.03-.009-.032-.008-.036-.006-.04,0,.025-.308.057.007.056.009.053.013.049.015.047.018.043.021.041.023.038.025.034.026.032.028.029.029.026.029.024.029.022.029.02.029.019.028.016.026.015.025.013.024.012.021.012.02.009.017.009.013.008.011.006.007,0,0h0l0,0-.009,0-.007,0h-.015Zm.074-.5.221.215h0l-.023.025-.02.023-.018.022-.016.023-.014.021-.011.019-.01.019-.008.017-.007.018-.005.016,0,.015,0,.015,0,.014v.086l0,.008,0,.006v.011l0,.011v0l0,.009.008.032-.125.175-.054-.3-.126.173.007.028v0l0-.006h0l-.005-.012,0-.014,0-.012,0-.016,0-.015-.005-.02,0-.02,0-.02,0-.023,0-.024v-.05l0-.029,0-.028.005-.029.007-.029.009-.031.011-.031.013-.031.015-.032.017-.032.02-.033.021-.033.023-.032.026-.034.03-.034.031-.033Zm.9-.967.3-.065.018.093.012.087.007.082v.078l0,.073-.01.069-.016.065-.021.061-.027.057-.033.052-.037.047-.04.042-.042.036-.043.032-.046.029-.047.025-.047.022-.046.02-.047.019-.046.018-.046.017-.046.017-.045.017-.044.017-.042.017-.041.018-.039.02-.037.02-.036.022-.033.024-.031.026-.029.028-.221-.215.046-.044.048-.039.049-.035.05-.031.05-.028.051-.025.051-.023.049-.02.048-.019.048-.018.046-.017.044-.017.042-.016.04-.016.037-.016.035-.017.031-.017.027-.017.026-.019.022-.019.019-.02.018-.021.014-.023.012-.026.011-.031.009-.036.006-.042,0-.049v-.055l-.005-.062-.01-.071Z" transform="translate(-1674.797 -763.885)" fill="#565d8d"/>
  </g>
  <g id="Group_24" data-name="Group 24" transform="translate(131.312 43.578)">
    <path id="Path_814" data-name="Path 814" d="M1710.6,763.334l-.309,0,0-.122-.008-.115-.015-.107-.02-.1-.025-.094-.029-.087-.033-.079-.035-.072-.038-.064-.04-.057-.041-.05-.041-.042-.04-.035-.04-.027-.036-.02-.033-.013-.03-.008-.025,0h-.019l-.015,0-.015.007-.013.01-.015.016-.015.024-.014.034-.013.044-.008.055,0,.066,0,.077.01.088.018.1.027.109-.3.083-.031-.125-.022-.118-.013-.109,0-.1,0-.095.013-.089.022-.082.032-.075.042-.067.052-.058.061-.047.068-.033.073-.02.074-.006.074.007.071.018.07.028.067.037.066.045.062.054.06.061.057.069.053.077.049.084.046.092.04.1.036.106.029.113.024.12.017.127.01.133Z" transform="translate(-1709.321 -761.926)" fill="#565d8d"/>
  </g>
  <g id="Group_25" data-name="Group 25" transform="translate(128.003 48.594)">
    <path id="Path_815" data-name="Path 815" d="M1695.759,784.469l.132.279h0l-.079.038-.073.039-.069.04-.064.041-.061.042-.057.042-.053.043-.049.043-.047.045-.043.045-.039.046-.037.048-.034.047-.031.048-.029.049-.027.05-.024.051-.023.053-.02.053-.018.054-.017.056-.015.058-.014.058-.011.059-.011.061-.009.062-.008.063-.006.064-.005.065-.005.066,0,.068,0,.069-.309-.013,0-.072,0-.072.005-.071.006-.07.007-.07.009-.07.01-.068.012-.068.014-.068.016-.067.017-.066.02-.066.023-.066.025-.065.027-.063.03-.063.033-.062.036-.061.039-.06.043-.059.045-.057.049-.057.052-.056.056-.053.06-.053.064-.051.067-.049.07-.048.074-.047.079-.046.083-.044.087-.043Zm2.307,1.71-.3-.057.009-.06.005-.066,0-.071,0-.074-.007-.077-.01-.08-.015-.081-.019-.082-.024-.082-.028-.083-.033-.081-.036-.079-.041-.077-.045-.075-.05-.071-.053-.067-.058-.063-.062-.058-.066-.052-.07-.047-.075-.041-.08-.034-.083-.028-.09-.02-.095-.013-.1,0-.107,0-.114.015-.12.025-.127.037-.134.049-.141.062-.132-.279.158-.069.153-.056.149-.043.144-.03.139-.018.133-.005.129.005.122.017.118.027.111.037.105.045.1.054.092.061.086.068.08.074.073.079.067.084.061.087.055.091.05.093.044.1.038.1.033.1.028.1.023.1.018.1.013.095.007.093,0,.091,0,.088-.007.085-.012.082Z" transform="translate(-1694.595 -784.248)" fill="#565d8d"/>
  </g>
  <g id="Group_26" data-name="Group 26" transform="translate(131.698 50.169)">
    <path id="Path_816" data-name="Path 816" d="M1711.088,792.041l.231.2h0l-.057.042h-.13l-.069-.062-.018-.042-.006-.029v-.08l0-.021v-.023l0-.025,0-.026,0-.028,0-.029,0-.031.005-.031.006-.033.005-.035.006-.035.007-.038.008-.038.008-.038.009-.04.009-.041.01-.042.011-.042.011-.042.011-.044.013-.045.014-.044.014-.045.295.094-.014.042-.012.042-.012.041-.011.041-.011.041-.01.04-.01.038-.009.038-.008.037-.008.037-.008.035-.006.033-.006.034-.006.031,0,.03,0,.029,0,.027,0,.025,0,.023,0,.022,0,.019v.055l0-.014-.014-.033-.065-.057h-.124l-.05.036Zm1.861.07-.3.065-.011-.042-.014-.039-.016-.037-.019-.034-.021-.032-.023-.03-.026-.027-.028-.025-.03-.023-.032-.02-.034-.018-.037-.015-.039-.014-.041-.01-.042-.008-.044,0h-.095l-.049.005-.051.009-.053.012-.054.016-.054.02-.056.024-.056.029-.057.033-.058.038-.058.043-.057.046-.057.052-.059.057-.057.062-.231-.2.068-.072.067-.066.069-.062.07-.057.07-.051.071-.047.072-.042.071-.036.073-.032.071-.027.071-.022.071-.017.071-.012.071-.007.068,0,.067,0,.067.007.065.011.064.016.061.021.059.025.057.03.054.034.05.038.047.042.044.046.039.05.036.054.031.058.026.06.022.063Z" transform="translate(-1711.037 -791.258)" fill="#565d8d"/>
  </g>
  <g id="Group_27" data-name="Group 27" transform="translate(138.161 52.883)">
    <path id="Path_817" data-name="Path 817" d="M1740.389,803.334l.308.009,0,.062,0,.061,0,.06,0,.059-.006.058-.006.057-.007.055-.008.054-.01.053-.01.052-.014.05-.014.048-.017.047-.019.046-.021.045-.023.043-.026.041-.029.039-.031.037-.036.034-.039.031-.04.028-.045.024-.046.02-.049.016-.052.012-.052.008-.054,0h-.056l-.057,0-.06-.007-.06-.01.059-.3.046.008.041,0,.039,0h.035l.032,0,.029,0,.025-.006.023-.008.021-.009.018-.011.018-.012.017-.014.016-.015.016-.018.015-.02.015-.023.014-.025.013-.029.013-.031.011-.034.011-.037.01-.038.009-.042.008-.044.007-.046.007-.048.005-.05,0-.053,0-.053,0-.057,0-.058Z" transform="translate(-1739.8 -803.334)" fill="#565d8d"/>
  </g>
  <g id="Group_28" data-name="Group 28" transform="translate(133.636 51.578)">
    <path id="Path_818" data-name="Path 818" d="M1719.841,798.765l.2.231-.206-.23.037-.036.035-.038.034-.039.031-.041.029-.043.027-.044.024-.044.022-.045.019-.046.017-.044.013-.044.011-.044.007-.042,0-.041,0-.038,0-.037,0-.034-.006-.031-.009-.029-.012-.026-.012-.023-.016-.021-.018-.019-.021-.017-.025-.016-.03-.014-.034-.012-.041-.01-.046-.007-.053,0h-.06l-.066.006-.035-.307.086-.007h.083l.078,0,.074.011.07.017.065.023.061.029.055.036.051.041.044.047.038.049.031.054.024.056.019.058.013.06.007.06,0,.061,0,.062-.007.061-.011.062-.015.06-.018.062-.022.061-.026.059-.028.059-.032.058-.035.057-.038.055-.041.055-.044.051-.047.05-.049.047Zm1.043-.1.293-.1-.224.181-.031-.017-.03-.014-.03-.012-.03-.01-.029-.008-.029-.006-.028,0-.029,0h-.056l-.028,0-.027,0-.03.006-.029.006-.028.008-.028.009-.029.011-.03.012-.028.013-.028.014-.03.016-.029.017-.028.017-.028.018-.029.019-.028.02-.027.02-.027.021-.027.022-.026.021-.027.023-.026.022-.2-.231.029-.025.029-.025.031-.025.031-.024.031-.025.033-.024.033-.023.033-.023.035-.023.037-.022.036-.02.036-.02.039-.019.039-.018.039-.016.04-.015.042-.013.042-.011.042-.01.043-.008.044-.006.044,0h.046l.046,0,.046,0,.047.007.046.01.047.013.047.016.046.019.046.022.046.025-.224.181Zm.293-.1.127.387-.351-.205Zm1.162-.941-.078.3h0l-.061-.014-.06-.01-.059-.006-.058,0h-.057l-.057,0-.055.007-.054.01-.053.014-.052.015-.05.019-.049.021-.046.023-.044.025-.043.027-.04.028-.037.029-.035.031-.032.032-.029.032-.027.034-.024.034-.02.032-.017.033-.014.033-.01.031-.008.031,0,.029,0,.027v.026l0,.024.007.024-.293.1-.016-.057-.008-.058,0-.058,0-.058.01-.057.014-.055.019-.055.023-.053.027-.053.032-.051.034-.049.038-.047.042-.046.044-.044.048-.042.051-.041.054-.037.056-.035.058-.033.061-.03.063-.027.066-.024.068-.021.069-.018.071-.013.073-.01.074-.006h.075l.077,0,.078.008.078.013.079.018Zm1.516,1.626-.3.062-.013-.057-.015-.057-.018-.057-.02-.057-.023-.057-.025-.057-.027-.056-.03-.056-.031-.056-.033-.054-.035-.053-.037-.053-.039-.052-.04-.051-.042-.049-.043-.048-.045-.047-.046-.045-.047-.044-.048-.042-.049-.041-.05-.038-.051-.036-.052-.034-.052-.032-.053-.03-.053-.028-.054-.026-.055-.023-.054-.021-.054-.018-.055-.016.078-.3.068.019.068.022.067.026.065.028.065.03.064.033.063.036.062.038.06.04.06.042.059.045.057.047.056.048.054.051.052.052.052.053.049.055.048.057.046.057.044.06.043.061.041.061.038.063.036.064.034.065.031.066.029.066.027.067.024.067.021.069.019.069Z" transform="translate(-1719.661 -797.53)" fill="#565d8d"/>
  </g>
  <g id="Group_29" data-name="Group 29" transform="translate(135.856 49.55)">
    <path id="Path_819" data-name="Path 819" d="M1731.51,788.794l-.222.213-.039-.037-.042-.032-.043-.028-.046-.025-.047-.021-.051-.017-.052-.014-.055-.011-.056-.007-.057,0h-.058l-.06,0-.06.006-.06.008-.06.011-.059.014-.059.016-.058.018-.056.02-.055.022-.052.023-.05.024-.046.025-.044.027-.041.026-.036.027-.032.027-.028.025-.022.023-.017.022-.013.018-.008.014-.284-.12.025-.049.03-.045.034-.042.039-.041.042-.038.046-.037.05-.036.052-.034.055-.033.058-.031.06-.03.063-.028.065-.026.067-.024.069-.022.07-.019.072-.016.073-.013.074-.011.075-.006.074,0h.076l.076.005.075.01.074.015.074.02.073.025.071.031.068.037.066.043.063.051Z" transform="translate(-1729.541 -788.503)" fill="#565d8d"/>
  </g>
  <g id="Group_30" data-name="Group 30" transform="translate(132.607 45.5)">
    <path id="Path_820" data-name="Path 820" d="M1716.441,770.481l.017.308h0l-.062.005-.06.008-.059.01-.058.013-.057.015-.053.017-.053.02-.051.022-.05.024-.048.026-.047.027-.044.029-.043.031-.04.032-.038.033-.036.035-.035.035-.032.035-.03.036-.028.037-.025.037-.023.037-.02.037-.019.037-.015.036-.013.036-.01.035-.009.034-.005.032,0,.032v.031l0,.029-.308.028,0-.053,0-.053.005-.053.009-.053.012-.053.016-.052.018-.052.022-.052.025-.05.028-.051.031-.05.033-.049.036-.048.039-.047.041-.046.043-.044.046-.043.049-.042.051-.04.053-.039.056-.036.057-.034.06-.032.063-.03.063-.027.066-.025.069-.022.069-.019.072-.016.073-.013.075-.01.077-.006h0Zm2.454,1.211-.305.042h0l-.008-.036-.013-.038-.019-.039-.026-.042-.033-.044-.039-.044-.046-.044-.052-.045-.056-.044-.062-.044-.067-.043-.071-.042-.074-.041-.078-.04-.081-.038-.083-.037-.086-.035-.087-.033-.088-.031-.09-.029-.089-.027-.089-.025-.089-.023-.088-.02-.087-.018-.085-.015-.083-.012-.08-.009-.077-.007-.073,0h-.069l-.064,0-.017-.308.078,0h.082l.085,0,.087.008.088.01.092.014.093.016.094.019.1.022.1.024.1.026.1.029.1.031.1.034.094.035.093.038.091.04.089.042.087.044.083.046.08.047.077.05.073.052.069.054.064.056.06.059.053.061.048.064.042.067.034.071.026.074.016.077Zm-.549.7-.108-.29h0l.022-.008.021-.009.021-.01.02-.01.019-.011.019-.012.018-.013.019-.014.017-.013.015-.013.016-.015.016-.015.014-.014.013-.015.013-.015.012-.016.011-.014.01-.015.009-.015.009-.014.008-.015.006-.013.006-.014,0-.012,0-.01,0-.011,0-.01v-.025l.305-.042,0,.027v.053l0,.027-.005.026-.006.025-.007.024-.009.026-.01.024-.01.024-.013.025-.013.023-.014.024-.016.024-.016.023-.018.024-.019.023-.018.022-.021.022-.021.022-.022.021-.024.021-.024.021-.025.019-.026.019-.027.018-.027.018-.03.017-.03.016-.031.015-.033.014-.032.013Zm-1.021-.072.008.308-.109-.267.027-.023.028-.02.029-.017.03-.014.027-.012.031-.011.032-.01.03-.008.032-.008.032-.007.033-.006.032-.006.033-.005.034-.005.034,0,.034,0,.035,0,.033,0,.034,0,.035,0,.033,0,.034-.005.034,0,.033-.006.033-.005.032-.006.032-.007.032-.007.03-.008.029-.009.029-.008.027-.01.108.29-.037.013-.037.012-.037.01-.038.01-.037.009-.037.008-.039.008-.036.006-.037.006-.038.006-.036.005-.036.005-.035,0-.035,0-.035,0-.033,0-.033,0-.032,0-.029,0-.03,0-.028,0-.027.005-.024,0-.023.005-.023.006-.018.006-.016.006-.016.006-.011.006-.008,0-.006,0,0,0-.109-.267Zm.008.308-.407.01.3-.278Zm.861.363-.3-.064,0-.017,0-.017v-.026l0-.014,0-.01,0-.012-.006-.012-.006-.011-.008-.011-.008-.011-.011-.013-.011-.011-.014-.012-.016-.012-.016-.011-.02-.012-.019-.01-.022-.01-.024-.01-.025-.009-.026-.009-.028-.008-.028-.007-.03-.006-.031-.005-.032,0-.033,0-.033,0h-.1l-.008-.309h.088l.044,0,.043,0,.042,0,.042.006.04.007.041.008.04.01.039.011.036.012.038.014.035.015.035.016.034.018.033.019.031.021.029.023.029.023.027.027.024.027.023.03.022.032.019.033.015.034.013.037.01.04.006.038,0,.04v.041l0,.04Z" transform="translate(-1715.083 -770.478)" fill="#565d8d"/>
  </g>
  <path id="Path_821" data-name="Path 821" d="M1587.267,612.065c.894.374.77.019,1.541,1.5.429.826.864,1.479,1.288,2.245l2.833,4.31c-1.3-.254-1.932-.6-3.107-.3-1.43.371-2.472,1.754-2.007,2.94.291.741,2.948,2.144,3.2,2.37-.088.9-.433,2.313,1.314,2.723l.287-1.494c.094-.576.176-.854.571-.9a3.432,3.432,0,0,0,.464-1.1l-.062-.3a23.089,23.089,0,0,1-3.3-1.936c.091-.122.015-.365.864-.231.429.068.762.117,1.167.16.63.067,1.265.454,2.079.572.725.1,1.626-.123,2.035-.031.759.172,1.045.581,2.081.528a1.635,1.635,0,0,0,.389-.849l-.694-.677c-.2-.28-.064,0-.194-.344a20.217,20.217,0,0,1-2.12-1.5,12.266,12.266,0,0,1-1.87-1.857,24.149,24.149,0,0,1-2.633-4.283c-.626-.521-1.76-3.524-2.5-4.134a1.129,1.129,0,0,0-1.221-.135c-.554.345-.766.551-1.679-1.15-.4-.752-.376-1.052-.14-2.152,1.069.4,2,1.733,3.261,2,.369-.431.324-.2.563-.395.607-.5.151-1.4,0-2.176a19.263,19.263,0,0,1-.716-3.732c.935.228,3.538,1.233,4.053.142-.744-.556-1.155-2.316-1.626-3.434-.337-.835-1.719-5.226-2.315-6.071-.432-.325-.541-1.868-.921-2.268a1.1,1.1,0,0,1-.929-1.53c-.187-.147-.545.1-.721.486a3.955,3.955,0,0,0,.233,2.329,32.32,32.32,0,0,0,1.495,3.733c.759,1.84,1.289,3.865,1.666,4.476a1.531,1.531,0,0,1,.29.936c-1.792-.38-.935-2.224-2.953-2.148-.418.415-.471.451-.5,1.307-.064,1.672.768,2.418.6,4.734-.717-.274-1.322-.885-2.247-.807-1.445.122-1.954,4.093-.8,5.9a5.635,5.635,0,0,0,2.989,2.547Z" transform="translate(-1480.57 -583.919)" fill="#565d8d" fill-rule="evenodd"/>
  <path id="Path_822" data-name="Path 822" d="M1463.83,738.335l11.209,1.589c-.3-.411-1.706-.577-2.292-.811-.728-.291-1.6-.545-2.262-.852.263-1.088.264-1.288-.732-1.578-.93-.271-2.832-1.143-3.9-1.367-.767-.162-1.54-.258-2.292-.417a.447.447,0,0,1-.023-.092l-.1-.582c-.471-.171-.974-.227-1.409-.419-.8-.353-.349-.326-.576-.643-.419-.585-1.458-.635-1.721-1.387.531-.056,2.149.126,3.064.08.7-.035.644-.312.688-.4-.493-.385-1.016-.348-1.361-.617-.863-.673-1.666-.532-2.009-1.063a1.708,1.708,0,0,1-.682-1.36c.117-.411.691-.615,1.242-.537a3.711,3.711,0,0,1,1.273.581c-.078-.324-.511-.568-.912-.673a1.945,1.945,0,0,0-1.628.153c-.631.507.354,1.741.2,1.938-1.36-.279-3.728-.527-2.424,1.855a6.018,6.018,0,0,0,2.122,2.013c.338.149.567.146.847.3.4.227,0,.174.676.335s1.444.275,2.152.429c.186.651.375.5,1.144.823.585.248,1.09.349,1.714.558.566.19,1.11.358,1.68.564.59.213,1.222.414,1.391.779-.462.52-.547.167-2.121-.468-.833-.336-1.541-.64-2.415-.956-1.023-.371.055.324-2.343-.678-.962-.4-1.177-.062-1.37.2-.109.146-.306.14-.392.269.227.414.667.534,1.015.881.88.586,1.677.969,2.539,1.555Z" transform="translate(-1382.242 -691.8)" fill="#565d8d" fill-rule="evenodd"/>
  <path id="Path_823" data-name="Path 823" d="M1540.5,669.559c-.178-.383-.49-.053-.509-.136-.006-.024-.052.017-.078.014.083-1.16-.419-3.737-1.066-4.222-.2.757-.095.849-.392,2.046-.152.614.057,1.158-.083,1.884l-.433.1c-.676.231-4.242,5.046-5.289,6.156-.323.342-2.219,2.158-1.253,3.04a1.188,1.188,0,0,0,.773.222,1.632,1.632,0,0,0,.162-.044c.023-.008.052-.023.075-.032.554-.223.578-.392.788-.774a5.672,5.672,0,0,1,.942-1.156,61.635,61.635,0,0,0,4.346-5.6c.536.368.255.428.631.761a2.765,2.765,0,0,0,1.1.4c.47.975.243,1.626,1.076,2.961a2.175,2.175,0,0,0,2.76,1.135c-.075-.364-.144-.132.024-.483.011-.022.029-.05.042-.073l.239-.428a2.327,2.327,0,0,1-.316-.261c-.589-.545-.723-.472-1.034-1.033a16.729,16.729,0,0,1-1.094-3.694c-.14-.869-.061-1.215-1.2-1.364l-.206.587Z" transform="translate(-1439.855 -643.369)" fill="#565d8d" fill-rule="evenodd"/>
  <path id="Path_824" data-name="Path 824" d="M1564.552,734.827l.414.012c.515-.691,1.353-.059,1.654-2.5a.911.911,0,0,0-.854-1.169l-.044,0-.045,0-.336.087c-.018,0-.056,0-.072-.007l-.158-.05c-.007-.033-.058-.018-.1-.036l-.011-.956-.647-.359a.709.709,0,0,0-.9.185c-.616.691-.434,1.792-.874,2.256-.02.021-.471.4-.476.4-.308.221-.255.243-.719.081-.589-.377.37-.7-.892-1.5-.259-.164-.1.063-.243-.4l-.154.514-.226-.382c-.219.561-.384.227-.533.984a3.187,3.187,0,0,0-.006,1.108,1.869,1.869,0,0,0,1.035,1.437c1.776,1,1.661-.269,3.023.014.424.088.711.2,1.172.271Z" transform="translate(-1461.681 -693.416)" fill="#565d8d" fill-rule="evenodd"/>
  <path id="Path_825" data-name="Path 825" d="M1525.017,738.913c.25.1.246.21.6.123a1.235,1.235,0,0,0,.847-.807c.4-.862.258-.389.874-.833.416-.3.446-.564.945-.6.4.376.189.538.775,1.748.229.064.569.092.707.117.523.1-.032-.065.428.229.2-.757.047-.228.286-.443.011-.01.133-.089.187-.136.016-.014.043-.034.058-.049.293-.294.286-.739.374-1.208.21-1.114.261-2.2-1.075-1.982-1.622.266-.9-1.033-1.824-1.549-1.344-.753-2.224,1.207-2.746,1.99l-1.092,1.935c-.115.228-.04-.027-.1.2-.1.348-.064-.025.056.41.007.025.018.056.025.082l.083.329c.017.072.045.229.069.341Z" transform="translate(-1434.485 -696.198)" fill="#565d8d" fill-rule="evenodd"/>
  <path id="Path_826" data-name="Path 826" d="M1515.221,695.967c.013,0,.146-.062.171-.067l.6.073c.331.076.363.09.652-.248a56.872,56.872,0,0,0,2.895-4.928c-1.591-1.094-2.361.563-2.994,1.116-.86-.207-1.239-.4-2.014-.082-.9.376-2.422,1.242-2.389,2.358.026.874.908.894,1.486.979.528-.879.856-1.193,1.58-1.264C1514.606,696.255,1515.293,694.867,1515.221,695.967Z" transform="translate(-1425.135 -662.919)" fill="#565d8d" fill-rule="evenodd"/>
  <path id="Path_827" data-name="Path 827" d="M1542.14,773.55c1.137.429,4.816.6,6.325.866.118-.078-.15-.277.326-.1a18.711,18.711,0,0,1-4.146-1.562,7.622,7.622,0,0,1-1.706-1.053c-.676-.58-.685-.856-1.781-.846-.516.674-.729,1.1.051,1.988A2.775,2.775,0,0,0,1542.14,773.55Z" transform="translate(-1447.276 -725.273)" fill="#565d8d" fill-rule="evenodd"/>
  <path id="Path_828" data-name="Path 828" d="M1505.084,733.808c-1.191-.177-3.76,2.822-3.429,3.314.464.689,1.667-.919,1.932-1.3C1503.906,735.371,1504.943,734.147,1505.084,733.808Z" transform="translate(-1416.985 -696.543)" fill="#565d8d" fill-rule="evenodd"/>
  <path id="Path_829" data-name="Path 829" d="M1611.516,614.69a16.968,16.968,0,0,1,2.011,1.978,7.544,7.544,0,0,1,.606,1.066,7.752,7.752,0,0,1-.8-.941c-.612-.678-1.83-1.535-2.605-2.294a9.614,9.614,0,0,1-1.023-1.183,7.723,7.723,0,0,1-.5-.795c-.189-.376-.94-2.275-.6-2.608.056.025.369,1.078.417,1.206a8.749,8.749,0,0,0,.579,1.182c.175.3.355.565.558.842a13.093,13.093,0,0,0,.88,1.059C1611.2,614.367,1611.354,614.529,1611.516,614.69Zm10.521-9.343a7.853,7.853,0,0,1-.838.271c-.344.1-1.755.864-1.767.864a4.318,4.318,0,0,1,1.694-1.136,5.027,5.027,0,0,0,2.3-1.386,4.078,4.078,0,0,0,.916-1.7c.005-.021.033-.134.038-.142.078-.388.092-3.625.1-3.63.14-.033.373,1.067.387,1.148a6.4,6.4,0,0,1,.107,1.695,2.132,2.132,0,0,1,.209-.454,10.181,10.181,0,0,1-.381,1.912,3.963,3.963,0,0,1-.648,1.351,6.508,6.508,0,0,1-1.41,1.31,19.406,19.406,0,0,1-2.376,1.306c-.012.006-.059.029-.068.035a8.1,8.1,0,0,0-1.725,1.136,4.31,4.31,0,0,0-1.187,1.814,2.86,2.86,0,0,0-.147,1.272c-.292-.2-.121-1.074-.049-1.338a4.412,4.412,0,0,1,1.158-1.991,7.933,7.933,0,0,1,1.763-1.251C1620.775,606.063,1621.411,605.739,1622.037,605.347Zm-3.252-10.847c-.025.205-.259,1.431-.5,1.478-.04-.051.1-1.365.1-1.586-.008-.2-.026-.391-.046-.59a5.937,5.937,0,0,1-.135-1.315c.1-.047.32.361.351.424a2.412,2.412,0,0,1,.256.889,3.15,3.15,0,0,1-.01.619C1618.8,594.426,1618.786,594.488,1618.785,594.5ZM1614,605.09a7.437,7.437,0,0,0,.266,2.1c.11.387,1.222,2.98,1.222,3.01-.463-.181-1.389-2.475-1.539-2.925a6.128,6.128,0,0,1-.2-3.362,7.974,7.974,0,0,1,.74-1.785c.258-.4,2.4-3.059,2.882-3.161.074.169-.681,1.077-.791,1.207a14.16,14.16,0,0,0-1.77,2.34,8.356,8.356,0,0,0-.634,1.526,4.215,4.215,0,0,0-.174,1.049Zm2.958,15.93c.029-.139.254-1.448.417-1.438.266.105-.107,2.153-.161,2.451-.122.575-.571.711-.407-.131C1616.868,621.61,1616.892,621.309,1616.962,621.02Zm1.214.088a7.784,7.784,0,0,0,.031.882.819.819,0,0,0,.029.16,12.551,12.551,0,0,1,.758-3.74,4.011,4.011,0,0,1,1.272-1.145c.1-.064.206-.125.312-.184.385-.2,2.482-1.1,2.931-.856.317-.13.637-.247.972-.359.562-.185,1.118-.342,1.691-.487.269-.068.538-.132.809-.194.18-.041,1.042-.229,1.991-.42.2-.138.4-.284.582-.436a6.387,6.387,0,0,0,.752-.756,7.21,7.21,0,0,0,1.16-2.591c.325.571-.528,2.3-.883,2.816a7.1,7.1,0,0,1-.712.79,9.748,9.748,0,0,1,1.963-.274,18.661,18.661,0,0,1-2.482.717,9.038,9.038,0,0,1-.92.615c-.144.082-.288.16-.436.236-.262.125-2.918,1.286-3.171,1.007-.078-.141.547-.38.613-.407.845-.366,1.663-.66,2.487-1.093-.806.2-1.465.361-1.642.41-.592.156-1.215.365-1.8.562-.472.161-.928.329-1.389.519-.2.086-2.335,1.317-2.346,1.316-.086-.218.853-.944.99-1.042a7.605,7.605,0,0,1,.881-.523c-.124.045-.22.079-.252.092a14.064,14.064,0,0,0-1.562.765c-.14.081-.275.163-.411.251a4.188,4.188,0,0,0-1.052.9,1.5,1.5,0,0,0-.091.147c-.233.516-.882,3.741-.906,3.763a.305.305,0,0,1-.078-.15.092.092,0,0,1-.049,0,.183.183,0,0,1-.1-.059.743.743,0,0,1-.172-.307,3.528,3.528,0,0,1-.191-1.036,6.683,6.683,0,0,1,0-.8c.009-.131.088-1.146.354-1.093.107.022.12.223.125.305a5.3,5.3,0,0,1-.014.872c-.016.242-.034.482-.047.724C1618.177,621.034,1618.177,621.079,1618.176,621.108Zm8.686,3.79c.126.084.25.161.378.235l.093-.045c.006.02-.009.047-.036.077l.082.045a2.512,2.512,0,0,0,1.029.316,2.091,2.091,0,0,0,1.13-.275c.268-.151,1.443-1.126,1.444-1.126-.031.3-1.068,1.185-1.318,1.355a2.364,2.364,0,0,1-1.272.38,2.779,2.779,0,0,1-1.19-.309c-.091-.045-.18-.091-.266-.139a1.366,1.366,0,0,1-.354.087,3.037,3.037,0,0,1-1.062-.1c-.8-.2-1.532-.512-2.313-.755a6.671,6.671,0,0,0-2.541-.307,5,5,0,0,0-.943.171,3.974,3.974,0,0,0-.927.4,2.928,2.928,0,0,0-1.114,1.143c-.114.241-.316,1.51-.33,1.525-.318-.132-.105-1.342,0-1.632l.017-.042a2.978,2.978,0,0,1,1.2-1.379,4.005,4.005,0,0,1,1.2-.506,5.145,5.145,0,0,1,.876-.134,6.259,6.259,0,0,1,1.681.134,8.174,8.174,0,0,1,1.012.276c.765.272,1.491.616,2.264.863a3.328,3.328,0,0,0,.982.172,1.714,1.714,0,0,0,.185-.014c-.231-.138-.451-.287-.683-.449-.5-.352-.976-.7-1.506-1.009a5.365,5.365,0,0,0-.817-.384,3.527,3.527,0,0,0-1.358-.217c-.2.011-1.732.335-1.737.333.041-.242,1.214-.611,1.421-.658.1-.021.19-.036.288-.049a3.526,3.526,0,0,1,1.534.161,5.145,5.145,0,0,1,1.037.486,17,17,0,0,1,1.395.99C1626.507,624.644,1626.681,624.773,1626.862,624.9Zm1.313-14.7c-.014.065-.028.13-.039.194a2.915,2.915,0,0,1-.03.808,3.977,3.977,0,0,1-.18.664c-.019.208-.035.42-.047.638a1.761,1.761,0,0,1-.6,1.24c-.017-.279.345-.361.346-1.237-.3.506-.967,1.544-1.219,1.6,0-.009,1-1.724,1.1-1.946.042-.106.081-.207.114-.306a10.926,10.926,0,0,1,.131-1.573q-.012-.058-.028-.119a4.454,4.454,0,0,1-.02-2.128,5.17,5.17,0,0,1,.654-1.6c.083-.131.167-.254.261-.378a4.259,4.259,0,0,1,1.655-1.347c.357-.142,1.891-.5,2.106-.129-.013.014-1.379.233-1.559.3a4.137,4.137,0,0,0-.38.178,4.394,4.394,0,0,0-1.449,1.281,4.653,4.653,0,0,0-.314.479,5.221,5.221,0,0,0-.543,1.324,4.8,4.8,0,0,0-.142.983v.071q.083-.294.189-.589c.038-.1.079-.2.122-.3a5.043,5.043,0,0,1,.8-1.3c.173-.188,1.172-1.083,1.437-.882,0,.039-.7.639-.795.735-.117.132-.222.26-.327.4a6.8,6.8,0,0,0-.731,1.332c-.025.059-.05.119-.073.179A10.734,10.734,0,0,0,1628.174,610.193Zm-13.8,26.365-.875-.243c.224-.275.007-.119.347-.268a6.49,6.49,0,0,1,1.358-.6C1615,636.368,1615.2,635.434,1614.378,636.558Zm-.994-1.406c.191-.569.315-.6.765-.772a2.11,2.11,0,0,1,1.025-.228A2.868,2.868,0,0,1,1613.384,635.152Zm3.406-4.336-.252.7C1615.441,631.333,1615.234,630.344,1616.79,630.817Zm18.748-12.432c-.389-.195.32-3.2.32-3.848a15.032,15.032,0,0,0-.153-1.937c-.088-.642-.2-1.277-.255-1.925a5.752,5.752,0,0,0-.056-.983c-.479.21-.222,2.469-.17,2.861a14.812,14.812,0,0,1-.978,7.661c-1.532,3.364-2.011,4.126-7.025,7.54a30.927,30.927,0,0,1-5.595,2.184c-2.863.772-2.7.22-3.2.26a3.653,3.653,0,0,1-2.759.014c-.2-.055-.43-.246-.666-.32.692.006,1.515.216,2.05-.255-.537-.067-1.713-.15-2.148-.234a3.871,3.871,0,0,0-1.658-.185c-.087.176-.113.316.753.623.85.3.424.135.884.708a1.672,1.672,0,0,0-1.1.032c.027.444.3.507.687.762-.481.633-.532.027-.754.7.623.185.872-.082,1.517-.067a6.41,6.41,0,0,1-1.36,1.051l-.018.308c.621-.039,1.123-.491,1.8-.6a3.482,3.482,0,0,1-1.891,1.3c-.246-.348-.054-.654-.651-.752l-.5.052c-.559.109-.152-.127-.568.248a2.262,2.262,0,0,1-.227-1.137,1.76,1.76,0,0,0-.04-.633c-.142-.539-.1-.006-.2-.569l-.235-.107c-.606-.245.229.411-.423-.06-.145-.088-.294-.05-.316.158-.215-.168-.251-.265-.49.007a2.174,2.174,0,0,0-.286.582,12.509,12.509,0,0,0-2.8-.8c-1-.117-1.463.444-1.609,1.352.768.652-.15.233,1.554.639,1.812.432,1.644.635,1.66,1.227.016.608.173.266.189.792.745.441.638-.13,1.381.54,1.517,1.367,2.457.149,2.479.14.369-.156.272.08,1.358-.2-.4.388-.7.15-1.17.522.137.365.193.252.54.5.381.271.52.772,1.185.224.171-.141.15-.177.273-.308l.191-.174c.016-.038.045-.038.07-.051.066.048.123.084.1.191.032.231-.137.048-.126.371a8.145,8.145,0,0,0,.37,1.132c.308-.188.486-2.75.763-3.791l.771-2.4c.2-.559.047-.339-.032-.736l.576-.063c.492-.007,1.493-.1,1.743-.121,2.4-.187,3.368-.149,5.747-1.388,2.3-1.2,4.446-2.121,6.291-3.967a13.624,13.624,0,0,0,4.2-7.078Zm-2.39-13.91c.562,1.331,1.793,5.184,1.4,6.568-1.117-4.186-.46-4.528-3.135-8.858,0-.008-.058-.092-.067-.106a24.83,24.83,0,0,0-2.012-2.705c-.076-.083-1.146-1.153-1.353-1.386.092.336.254,1.054.123,1.166-.01-.006-.387-1.042-.464-1.2a3.182,3.182,0,0,0-.674-.893,4.276,4.276,0,0,0-.573-.431c-.256-.156-1.691-.787-1.714-.85.02-.12.714-.01.787,0a3.274,3.274,0,0,1,1.235.485,3.049,3.049,0,0,1,.574.494c.015.008.15.178.17.2a3.12,3.12,0,0,1,.491.868c.007.021.017.053.029.094.066-.028.19.024.342.118a2.992,2.992,0,0,1,.935.495,12.3,12.3,0,0,1,2.493,2.552c.007.005.04.054.047.063a15.522,15.522,0,0,1,1.212,1.932c.525,1,1.928,4.32,1.729,5.4-1.209-2.621-.9-3.394-2.5-5.871A18.767,18.767,0,0,1,1633.148,604.475Zm-7.527-9.691a7.048,7.048,0,0,1,1.617,1.11,5.722,5.722,0,0,1,.664.92c-.056.048-.8-.705-.854-.757a17.248,17.248,0,0,0-2.455-1.311c-.307-.135-.613-.263-.924-.388-.13-.051-1.515-.5-2.169-.718a4.091,4.091,0,0,1,.39.565c0,.005.014.023.018.029.081.134.161.264.25.393.008.012.024.031.033.043a.943.943,0,0,0,.2.169.106.106,0,0,0,.065.02.643.643,0,0,0,.139-.016c.019,0,.108-.033.136-.041a.137.137,0,0,1,.048-.007c.01,0,.051.023.072.027.043.009.063.016.07.066a.185.185,0,0,1-.014.1.492.492,0,0,1-.142.207.709.709,0,0,1-.251.156.592.592,0,0,1-.34.019,1.178,1.178,0,0,1-.523-.276,1.9,1.9,0,0,1-.428-.489v0c-.12-.222-.5-1.06-.077-1.191a.231.231,0,0,1,.158.038,3.085,3.085,0,0,1,.733-.009,7.007,7.007,0,0,1,1.913.527c.286.119.561.244.839.381s.559.285.835.441Zm-10.771-3.643a14.319,14.319,0,0,1,3.65,1.084c-.008,0-3.355-.65-3.976-.7a9.246,9.246,0,0,0-1.649-.019,4.4,4.4,0,0,0-.565.086,1.129,1.129,0,0,0-.4.17c-.005,0-.024.028-.026.023s0,0,0-.006,0,.014,0,.014a.3.3,0,0,0,.09.092,1.141,1.141,0,0,0,.231.128c.094.071.872.272.866.335-.084.125-.843,0-.974-.03a1.245,1.245,0,0,1-.192-.066c-.045-.018-.085-.042-.127-.059a.676.676,0,0,1-.22-.186.429.429,0,0,1-.063-.13.386.386,0,0,1-.012-.149.456.456,0,0,1,.128-.259,1.267,1.267,0,0,1,.586-.313,3.439,3.439,0,0,1,.744-.126,8.412,8.412,0,0,1,1.638.073c.091.013.184.028.275.043Zm-4.929.166a2.057,2.057,0,0,1,.481.149c.176.082,1.136.614,1.157.8-.061.021-1.1-.406-1.3-.463a1.639,1.639,0,0,0-.413-.081.569.569,0,0,0-.263.037.439.439,0,0,0-.17.133.928.928,0,0,0-.077.114,1.414,1.414,0,0,0-.086.178c-.093.132-.322,1.222-.442,1.213s-.1-.587-.1-.659a2.338,2.338,0,0,1,.109-.72,1.4,1.4,0,0,1,.146-.3,1.132,1.132,0,0,1,.1-.131.824.824,0,0,1,.383-.248.987.987,0,0,1,.457-.018Zm-3.349,5.664c.01.027.073.184.074.2a6.638,6.638,0,0,1,.21.807,1.565,1.565,0,0,0,.508.752,14.848,14.848,0,0,1,1.422,1.416,15.054,15.054,0,0,1-1.62-1.194,1.941,1.941,0,0,1-.655-.871,7.739,7.739,0,0,0-.232-.757,4.62,4.62,0,0,1-.391-2.287c.017-.191.04-.371.074-.56.076-.364.716-2.586,1.095-2.7a5.452,5.452,0,0,1-.286,1.219,14.967,14.967,0,0,0-.354,1.562c-.031.214-.054.419-.068.635A4.665,4.665,0,0,0,1606.571,596.97Zm2.44,2.51a4.652,4.652,0,0,0,.553.761c.616.608,2.606,1.629,2.679,1.759a9.088,9.088,0,0,1-2.948-1.513,5.3,5.3,0,0,1-1.264-2.169c-.071-.225-.128-.443-.178-.673a9.753,9.753,0,0,1-.195-1.92c0-.123.015-1.7.026-1.721.241.063.333,1.094.341,1.3.008.136.013.27.026.406a15.615,15.615,0,0,0,.289,1.96c.04.175.084.344.133.516a6.243,6.243,0,0,0,.536,1.3Zm3.9,7.265c.033.254.073.5.127.745.779,3.074,1.781,3.086,2.462,4.533-1.152-.491-2.493-3.26-2.837-4.449a7.794,7.794,0,0,1,0-3.868,8.414,8.414,0,0,1,.355-1.059,13.438,13.438,0,0,1,1.481-2.028c.055-.087.588-1.379.62-1.4.293.216-.222,1.351-.338,1.572,0,.017-.1.177-.118.2a13.493,13.493,0,0,0-1.221,1.83,9.185,9.185,0,0,0-.367,1.178,8.069,8.069,0,0,0-.167,2.748Zm-2.508,8.49c.536.459,1.1.85,1.659,1.277.537.425,2.136,1.9,2.1,2.638a12.408,12.408,0,0,0-2.3-2.376,12.7,12.7,0,0,1-2.514-1.994,8.9,8.9,0,0,1-1.029-1.455,5.322,5.322,0,0,1-.557-1.457,3.593,3.593,0,0,1-.008-1.536c.062-.243.5-1.411.777-1.417.009.028-.413,1.3-.441,1.477,0,.006-.005.047-.007.057a3.781,3.781,0,0,0,.105,1.323,5.9,5.9,0,0,0,.621,1.466,10.16,10.16,0,0,0,.88,1.26A6.631,6.631,0,0,0,1610.408,615.234Z" transform="translate(-1497.455 -585.84)" fill="#565d8d" stroke="#565d8d" stroke-miterlimit="22.926" stroke-width="1.345"/>
  <path id="Path_830" data-name="Path 830" d="M1619.551,637.66a.307.307,0,0,1-.028-.054.049.049,0,0,1,0-.037c.013-.03.029-.024.038-.074s.018-.079.074-.1a.218.218,0,0,1,.1-.016.358.358,0,0,1,.195.055.164.164,0,0,1,.043.042.154.154,0,0,1,.023.115.168.168,0,0,1-.032.1.153.153,0,0,1-.037.048.065.065,0,0,1-.089.013.08.08,0,0,0-.08-.016l-.042.012a.225.225,0,0,1-.045.009h-.024a.071.071,0,0,1-.071-.028.141.141,0,0,1-.014-.027C1619.562,637.695,1619.553,637.671,1619.551,637.66Zm-3.238-22.967c.017-.059.03-.119.042-.179a.87.87,0,0,0-.042-.332,1.4,1.4,0,0,0-.222-.448.779.779,0,0,0-.37-.284.659.659,0,0,0-.25-.032c-.052-.009-.345.069-.35.043-.015-.074.274-.193.328-.211a.8.8,0,0,1,.332-.02.965.965,0,0,1,.549.312,1.661,1.661,0,0,1,.329.532,1.2,1.2,0,0,1,.086.507,1.8,1.8,0,0,1-.214.688.933.933,0,0,1-.421.382.835.835,0,0,1-.448.063l-.059-.009a1.073,1.073,0,0,1-.446-.2,1.149,1.149,0,0,1-.319-.363.9.9,0,0,1-.122-.462.734.734,0,0,1,.173-.462c.065-.067.42-.344.522-.233.006.042-.22.279-.279.4a.536.536,0,0,0-.049.177.467.467,0,0,0,.007.1.623.623,0,0,0,.112.255.855.855,0,0,0,.221.212.722.722,0,0,0,.266.111.51.51,0,0,0,.08.007.406.406,0,0,0,.162-.028.51.51,0,0,0,.228-.2A1.319,1.319,0,0,0,1616.313,614.693Zm-4.013,7.172c-.007.071-.01.138-.012.209a.174.174,0,0,0,.02.056.577.577,0,0,0,.089.123.916.916,0,0,0,.333.228.6.6,0,0,0,.393.027.608.608,0,0,0,.206-.108c.047-.022.237-.245.257-.226.055.051-.106.307-.139.353a.755.755,0,0,1-.244.2.815.815,0,0,1-.575.043,1.2,1.2,0,0,1-.49-.268.97.97,0,0,1-.163-.194.5.5,0,0,1-.077-.234,2.123,2.123,0,0,1,.07-.7,1.177,1.177,0,0,1,.286-.489,1.009,1.009,0,0,1,.26-.182.905.905,0,0,1,.175-.063,1.046,1.046,0,0,1,.465-.01,1.154,1.154,0,0,1,.412.17,1,1,0,0,1,.3.307.725.725,0,0,1,.117.4c-.005.073-.075.4-.2.368a3.284,3.284,0,0,1-.06-.338.592.592,0,0,0-.132-.217l-.005-.006a.858.858,0,0,0-.233-.16.89.89,0,0,0-.278-.08.694.694,0,0,0-.27.02.583.583,0,0,0-.134.057.545.545,0,0,0-.1.073.774.774,0,0,0-.19.3A1.565,1.565,0,0,0,1612.3,621.865Zm14.686,8.885c-.008.07-.093.358-.2.335-.127-.06-.144-.364-.238-.374,0,0-.012.011-.007.02s0,0,0,0-.064-.18-.015-.273a.2.2,0,0,1,.187-.091.232.232,0,0,1,.149.039.338.338,0,0,1,.091.106.334.334,0,0,1,.04.141A.38.38,0,0,1,1626.986,630.75Zm-5.156-18.07a1.834,1.834,0,0,0,.087.431.967.967,0,0,0,.2.353.422.422,0,0,0,.263.14.731.731,0,0,0,.421-.105.369.369,0,0,0,.128-.118.755.755,0,0,0,.1-.212,1.279,1.279,0,0,0,.045-.542.871.871,0,0,0-.062-.227.393.393,0,0,0-.1-.138.21.21,0,0,0-.127-.05c-.042-.018-.241.052-.248.039-.008-.056.192-.141.243-.153a.324.324,0,0,1,.22.04.49.49,0,0,1,.172.179.945.945,0,0,1,.109.274,1.439,1.439,0,0,1,0,.654,1.055,1.055,0,0,1-.118.3.653.653,0,0,1-.219.225,1.05,1.05,0,0,1-.606.175.766.766,0,0,1-.489-.228,1.3,1.3,0,0,1-.3-.478,2.234,2.234,0,0,1-.134-.594,2.045,2.045,0,0,1,.2-1.161.96.96,0,0,1,.171-.219.723.723,0,0,1,.239-.153.688.688,0,0,1,.295-.043.9.9,0,0,1,.311.082,1.642,1.642,0,0,1,.176.086,2.118,2.118,0,0,1,.778.658,1.687,1.687,0,0,1,.3.926c0,.229-.215,1.7-.469,1.792a6,6,0,0,1,.086-1.293,2.951,2.951,0,0,0-.014-.471,1.393,1.393,0,0,0-.265-.692,1.99,1.99,0,0,0-.758-.567l-.025-.011a.444.444,0,0,0-.149-.043.232.232,0,0,0-.1.012.271.271,0,0,0-.09.056.5.5,0,0,0-.094.115,1.683,1.683,0,0,0-.183.9S1621.83,612.673,1621.83,612.68ZM1633,620.739c.016-.059.03-.119.04-.179a.846.846,0,0,0-.042-.332,1.389,1.389,0,0,0-.222-.448.775.775,0,0,0-.369-.283.655.655,0,0,0-.25-.032c-.053-.009-.339.067-.351.044-.008-.076.274-.194.328-.211a.807.807,0,0,1,.332-.02.968.968,0,0,1,.549.313,1.647,1.647,0,0,1,.328.531,1.172,1.172,0,0,1,.086.508,1.8,1.8,0,0,1-.214.687.937.937,0,0,1-.421.383.841.841,0,0,1-.448.063l-.059-.009a1.075,1.075,0,0,1-.445-.2,1.149,1.149,0,0,1-.319-.362.906.906,0,0,1-.122-.463.736.736,0,0,1,.174-.462c.065-.067.419-.343.521-.232.006.042-.219.279-.278.4a.426.426,0,0,0-.043.281.631.631,0,0,0,.112.255.853.853,0,0,0,.221.212.719.719,0,0,0,.265.11.5.5,0,0,0,.081.008.412.412,0,0,0,.161-.028.513.513,0,0,0,.229-.2A1.32,1.32,0,0,0,1633,620.739Zm-3.618,2.337c-.007.071-.01.138-.011.209a.163.163,0,0,0,.019.055.557.557,0,0,0,.089.123.916.916,0,0,0,.333.228.6.6,0,0,0,.393.028.606.606,0,0,0,.205-.108c.047-.022.237-.244.258-.225.054.051-.106.307-.139.353a.746.746,0,0,1-.245.2.812.812,0,0,1-.574.044,1.2,1.2,0,0,1-.49-.268.943.943,0,0,1-.164-.194.507.507,0,0,1-.077-.234,2.135,2.135,0,0,1,.071-.7,1.162,1.162,0,0,1,.286-.489,1,1,0,0,1,.259-.182.983.983,0,0,1,.175-.063,1.045,1.045,0,0,1,.465-.01,1.162,1.162,0,0,1,.413.17,1.015,1.015,0,0,1,.3.307.73.73,0,0,1,.117.4c-.006.073-.074.4-.2.368-.028-.023-.031-.247-.059-.338a.607.607,0,0,0-.131-.217l-.005-.006a.868.868,0,0,0-.233-.16.9.9,0,0,0-.278-.081.694.694,0,0,0-.27.019.59.59,0,0,0-.134.057.557.557,0,0,0-.1.073.78.78,0,0,0-.19.3A1.61,1.61,0,0,0,1629.384,623.076Zm-6.746-5.273c-.083-.067.075-.539.125-.618a.941.941,0,0,1,.385-.312,1.292,1.292,0,0,1,.5-.112,1.64,1.64,0,0,1,.526.069,1.524,1.524,0,0,1,.469.232,1.044,1.044,0,0,1,.325.391.833.833,0,0,1,.06.534,1.24,1.24,0,0,1-.309.573,2.382,2.382,0,0,1-.636.527,1.341,1.341,0,0,1-.376.135,1.038,1.038,0,0,1-.244.018.974.974,0,0,1-.526-.18,1.223,1.223,0,0,1-.352-.4,1.509,1.509,0,0,1-.177-1,.97.97,0,0,1,.19-.44c.045-.052.321-.3.4-.2,0,.022-.167.239-.205.323-.554,2.242,1.653.965,1.441.439S1622.792,617.193,1622.637,617.8Zm15.992,9a2.641,2.641,0,0,1-.016.375,2.278,2.278,0,0,1-.15.594,1.084,1.084,0,0,1-.255.4.473.473,0,0,1-.091.064.31.31,0,0,1-.119.035.257.257,0,0,1-.136-.025.284.284,0,0,1-.1-.082.524.524,0,0,1-.088-.225c-.011-.028-.016-.309.028-.311a1.369,1.369,0,0,1,.128.272.3.3,0,0,0,.088.132c.007.011.025.014.034.018s.019,0,.025,0a.182.182,0,0,0,.027-.017.35.35,0,0,0,.033-.037,1.212,1.212,0,0,0,.137-.333,2.653,2.653,0,0,0,.066-.525,2.237,2.237,0,0,0-.067-.578,1.514,1.514,0,0,0-.236-.509s-.013-.018-.015-.022a1.344,1.344,0,0,0-.442-.378,7.651,7.651,0,0,1-.855-.38c.043-.134.565-.1.667-.088a1.589,1.589,0,0,1,.365.086,1.441,1.441,0,0,1,.663.509.211.211,0,0,1,.017.025,1.655,1.655,0,0,1,.263.675A2.033,2.033,0,0,1,1638.629,626.8Zm-9.592.994a.985.985,0,0,1-.108.042,1.512,1.512,0,0,1-.457.066,2.168,2.168,0,0,0-.4.047,2.03,2.03,0,0,0-.218.048c-.023,0-.043.013-.067.017s-.024-.006-.047-.015-.031-.031-.016-.062a.231.231,0,0,1,.063-.077.861.861,0,0,1,.222-.141,3.153,3.153,0,0,1,.448-.153,1.089,1.089,0,0,0,.338-.105.42.42,0,0,0,.161-.125.3.3,0,0,0,.057-.126.631.631,0,0,0,.01-.14.173.173,0,0,1,0-.024,1.62,1.62,0,0,0-.116-.452c-.042-.1-.219-.434-.16-.525.086-.1.347.153.4.208a1.293,1.293,0,0,1,.107.128,1.223,1.223,0,0,1,.24.608.726.726,0,0,1,0,.1.82.82,0,0,1-.039.239.7.7,0,0,1-.192.3.859.859,0,0,1-.23.146Zm2.789,5.482a2.2,2.2,0,0,0-.341.286,1.232,1.232,0,0,0-.189.435,3.064,3.064,0,0,0-.1.656.991.991,0,0,0,.014.221c0,.007.01.034.01.037a.167.167,0,0,0-.031-.015.071.071,0,0,0-.027,0s-.009,0-.01,0,.04-.02.047-.025c.031,0,.256-.267.28-.251.033.054-.137.325-.173.373a.342.342,0,0,1-.091.075.129.129,0,0,1-.09.013.148.148,0,0,1-.077-.051.325.325,0,0,1-.053-.1.966.966,0,0,1-.058-.281,2.776,2.776,0,0,1,.04-.74,1.419,1.419,0,0,1,.242-.619,2.3,2.3,0,0,1,.48-.423.73.73,0,0,1,.223-.086.436.436,0,0,1,.232.017.4.4,0,0,1,.183.134.563.563,0,0,1,.1.182,1.152,1.152,0,0,1,.048.406,2.187,2.187,0,0,1-.208.84,1.043,1.043,0,0,1-.222.319.466.466,0,0,1-.176.105.35.35,0,0,1-.24-.009c.167-.451.219-.432.1-.413a.076.076,0,0,0-.031.013c0,.008.024-.019.039-.04a1.467,1.467,0,0,0,.164-.34c.063-.094.173-.736.3-.739.177.023.045.738.028.831a.324.324,0,0,1-.011.049,1.535,1.535,0,0,1-.137.413.517.517,0,0,1-.154.181.352.352,0,0,1-.135.055.321.321,0,0,1-.159-.014c.145-.395.214-.427.1-.4-.012,0,0,0,.006-.012a.787.787,0,0,0,.111-.19,1.987,1.987,0,0,0,.122-.383,2.086,2.086,0,0,0,.042-.286.834.834,0,0,0-.014-.25.244.244,0,0,0-.018-.044s.009.005.01,0,0,0-.009,0a.291.291,0,0,0-.1.032.624.624,0,0,0-.063.034Zm5.865-1.735a.481.481,0,0,0,.246-.015c.12-.04.373-.219.418-.2.093.123-.2.431-.3.507a.739.739,0,0,1-.555.094.783.783,0,0,1-.4-.217.9.9,0,0,1-.11-.136c-.087-.147-.261-.639-.051-.723.079-.014.2.174.236.229.063.075.121.149.188.223a1.016,1.016,0,0,0,.086.091.7.7,0,0,0,.18.127A.577.577,0,0,0,1637.692,631.543Zm-17.487-.907a2.582,2.582,0,0,0-.392.181.691.691,0,0,0-.2.165.585.585,0,0,0-.1.2.722.722,0,0,0,.025.467.861.861,0,0,0,.318.4,5.451,5.451,0,0,0,.582.2c-.059.144-.561.035-.69-.02a1.044,1.044,0,0,1-.47-.472,1,1,0,0,1-.09-.666.9.9,0,0,1,.147-.331,1,1,0,0,1,.293-.275,2.369,2.369,0,0,1,.843-.35,1.225,1.225,0,0,1,.695.074,1.037,1.037,0,0,1,.462.4s.018.029.02.033a1.205,1.205,0,0,1,.161.516,1.178,1.178,0,0,1-.086.555.87.87,0,0,1-.962.538c-.135-.029-.694-.237-.671-.4.031-.024.535.086.694.081a.717.717,0,0,0,.164-.021.533.533,0,0,0,.2-.1.559.559,0,0,0,.174-.262.845.845,0,0,0-.087-.693.337.337,0,0,0-.024-.036.624.624,0,0,0-.234-.2.8.8,0,0,0-.444-.062,1.587,1.587,0,0,0-.317.07Zm-.748,2.518c-.033-.044-.071-.089-.1-.134-.02-.028-.04-.05-.058-.082a.108.108,0,0,1-.013-.1c.013-.067.063-.078.125-.077a.384.384,0,0,1,.159.03.81.81,0,0,1,.311.188.527.527,0,0,1,.075.09.445.445,0,0,1,.075.207.268.268,0,0,1-.012.152.164.164,0,0,1-.035.068.064.064,0,0,1-.093.027.137.137,0,0,0-.076-.029.171.171,0,0,1-.044-.008.152.152,0,0,1-.056-.023l-.033-.021c-.039-.011-.105-.093-.128-.126-.01-.017-.035-.053-.042-.07S1619.471,633.181,1619.457,633.154Z" transform="translate(-1502.475 -601.389)" fill="#565d8d"/>
  <path id="Path_831" data-name="Path 831" d="M1221.216,853.6s.1-8.7,3.248-8.8,17.339.89,19.12,2.462,1.519,4.244.577,4.767c-.063.036-14.893-1.116-20.765,2.317C1222.242,855.021,1221.232,853.627,1221.216,853.6Z" transform="translate(-1199.588 -782.594)" fill="#565d8d" fill-rule="evenodd"/>
  <path id="Path_832" data-name="Path 832" d="M1590.47,855.261a155.921,155.921,0,0,0,30.415,6.852,143.962,143.962,0,0,1-14.818,3.784c-8.425,1.738-18.137,3.011-19,3.246-.945.258-1.433.645-1.59,1.115" transform="translate(-1481.993 -790.709)" fill="none" stroke="#565d8d" stroke-miterlimit="22.926" stroke-width="4.229" fill-rule="evenodd"/>
  <path id="Path_833" data-name="Path 833" d="M1821.53,845.136a7.729,7.729,0,0,1-1.423-.125,3.689,3.689,0,0,1-.993-.3v-.765a6.12,6.12,0,0,0,2.367.441,3.392,3.392,0,0,0,2.607-1.044,4.014,4.014,0,0,0,.993-2.814h-5.168v-.717h5.133a3.837,3.837,0,0,0-1-2.484,3.186,3.186,0,0,0-2.345-.845,6.6,6.6,0,0,0-2.217.5l-.242-.743a7.31,7.31,0,0,1,1.167-.35,5.824,5.824,0,0,1,1.275-.16,4.067,4.067,0,0,1,3.141,1.2,4.815,4.815,0,0,1,1.11,3.395,5.027,5.027,0,0,1-1.181,3.528A4.16,4.16,0,0,1,1821.53,845.136Z" transform="translate(-1663.13 -775.566)" fill="#565d8d"/>
  <path id="_1" data-name="1" d="M1865.583,836.488h1.023l-4.061,4.388,4.355,4.678h-1.111l-4.283-4.6v4.6h-.845v-9.066h.845v4.4Z" transform="translate(-1695.341 -776.155)" fill="#565d8d"/>
  <path id="_2" data-name="2" d="M1899.708,840.424a5.136,5.136,0,0,1-1.075,3.466,3.711,3.711,0,0,1-2.968,1.246,3.836,3.836,0,0,1-2.1-.575,3.665,3.665,0,0,1-1.392-1.653,5.979,5.979,0,0,1-.484-2.484,5.1,5.1,0,0,1,1.075-3.457,3.7,3.7,0,0,1,2.951-1.238,3.641,3.641,0,0,1,2.931,1.255A5.157,5.157,0,0,1,1899.708,840.424Zm-7.154,0a4.611,4.611,0,0,0,.823,2.914,3.1,3.1,0,0,0,4.643,0,4.614,4.614,0,0,0,.823-2.914,4.556,4.556,0,0,0-.83-2.911,2.818,2.818,0,0,0-2.331-1.033,2.781,2.781,0,0,0-2.313,1.03,4.611,4.611,0,0,0-.814,2.914Z" transform="translate(-1719.397 -775.566)" fill="#565d8d"/>
  <path id="_3" data-name="3" d="M1940.156,845.554h-.817v-8.3h-3.213a41.276,41.276,0,0,1-.612,5.025,7.043,7.043,0,0,1-.934,2.544,1.732,1.732,0,0,1-1.479.814,2.225,2.225,0,0,1-.566-.065v-.754a1.524,1.524,0,0,0,.45.051q.944,0,1.523-1.989a33.7,33.7,0,0,0,.879-6.394h4.77Z" transform="translate(-1751.064 -776.155)" fill="#565d8d"/>
  <path id="_4" data-name="4" d="M1985.64,840.424a5.136,5.136,0,0,1-1.076,3.466,3.71,3.71,0,0,1-2.967,1.246,3.836,3.836,0,0,1-2.1-.575,3.664,3.664,0,0,1-1.391-1.653,5.979,5.979,0,0,1-.484-2.484,5.1,5.1,0,0,1,1.075-3.457,3.7,3.7,0,0,1,2.951-1.238,3.64,3.64,0,0,1,2.931,1.255A5.157,5.157,0,0,1,1985.64,840.424Zm-7.154,0a4.616,4.616,0,0,0,.822,2.914,3.1,3.1,0,0,0,4.643,0,4.611,4.611,0,0,0,.823-2.914,4.554,4.554,0,0,0-.832-2.911,2.816,2.816,0,0,0-2.33-1.033,2.781,2.781,0,0,0-2.314,1.03,4.61,4.61,0,0,0-.813,2.914Z" transform="translate(-1786.018 -775.566)" fill="#565d8d"/>
  <path id="_5" data-name="5" d="M2029.806,837.205H2025.3v8.349h-.825v-9.066h5.33Z" transform="translate(-1822.345 -776.155)" fill="#565d8d"/>
  <path id="_6" data-name="6" d="M2057.24,836.488v6.556l-.051,1.71,5.374-8.266h1.1v9.066h-.793V839.04l.032-1.752-5.374,8.266h-1.074v-9.066Z" transform="translate(-1847.137 -776.155)" fill="#565d8d"/>
  <path id="_7" data-name="7" d="M2102.2,836.488v3.039a2.146,2.146,0,0,0,.559,1.659,2.484,2.484,0,0,0,1.715.51,4.183,4.183,0,0,0,1.559-.293,6.071,6.071,0,0,0,1.542-.934v-3.981h.824v9.066h-.824v-4.3a5.752,5.752,0,0,1-1.639.916,5.291,5.291,0,0,1-1.739.276,2.821,2.821,0,0,1-2.1-.726,2.872,2.872,0,0,1-.714-2.095v-3.139Z" transform="translate(-1881.966 -776.155)" fill="#565d8d"/>
  <path id="_8" data-name="8" d="M2147.977,845.136a3.956,3.956,0,0,1-3.082-1.218,4.892,4.892,0,0,1-1.1-3.412,5.307,5.307,0,0,1,1.068-3.472,3.521,3.521,0,0,1,2.877-1.306,3.11,3.11,0,0,1,2.526,1.113,4.568,4.568,0,0,1,.925,3.022v.663h-6.531a4.318,4.318,0,0,0,.874,2.868,3.055,3.055,0,0,0,2.447.99,7.691,7.691,0,0,0,1.363-.108,8.187,8.187,0,0,0,1.489-.467v.751a6.617,6.617,0,0,1-1.417.453A7.688,7.688,0,0,1,2147.977,845.136Zm-.241-8.69a2.713,2.713,0,0,0-2.1.865,4.107,4.107,0,0,0-.925,2.5h5.6a3.978,3.978,0,0,0-.684-2.473A2.248,2.248,0,0,0,2147.736,836.446Z" transform="translate(-1914.847 -775.566)" fill="#565d8d"/>
  <path id="_9" data-name="9" d="M2189.625,845.136a3.88,3.88,0,0,1-3.042-1.226,4.934,4.934,0,0,1-1.1-3.418,5.018,5.018,0,0,1,1.141-3.509,4.014,4.014,0,0,1,3.125-1.255,6.258,6.258,0,0,1,2.251.41l-.225.734a6.6,6.6,0,0,0-2.043-.392,3.1,3.1,0,0,0-2.524,1.03,4.514,4.514,0,0,0-.86,2.965,4.38,4.38,0,0,0,.86,2.871,2.942,2.942,0,0,0,2.4,1.039,5.912,5.912,0,0,0,2.291-.441v.765A5.176,5.176,0,0,1,2189.625,845.136Z" transform="translate(-1947.172 -775.566)" fill="#565d8d"/>
  <path id="_10" data-name="10" d="M2228.828,836.488h1.023l-4.061,4.388,4.354,4.678h-1.11l-4.283-4.6v4.6h-.845v-9.066h.845v4.4Z" transform="translate(-1976.959 -776.155)" fill="#565d8d"/>
  <path id="_11" data-name="11" d="M2262.953,840.424a5.136,5.136,0,0,1-1.076,3.466,3.711,3.711,0,0,1-2.968,1.246,3.839,3.839,0,0,1-2.1-.575,3.665,3.665,0,0,1-1.391-1.653,5.967,5.967,0,0,1-.484-2.484,5.1,5.1,0,0,1,1.075-3.457,3.7,3.7,0,0,1,2.952-1.238,3.637,3.637,0,0,1,2.93,1.255A5.154,5.154,0,0,1,2262.953,840.424Zm-7.154,0a4.613,4.613,0,0,0,.823,2.914,3.1,3.1,0,0,0,4.644,0,4.617,4.617,0,0,0,.822-2.914,4.554,4.554,0,0,0-.83-2.911,2.817,2.817,0,0,0-2.331-1.033,2.782,2.782,0,0,0-2.313,1.03,4.612,4.612,0,0,0-.813,2.914Z" transform="translate(-2001.015 -775.566)" fill="#565d8d"/>
  <path id="_12" data-name="12" d="M2303.656,845.136a3.954,3.954,0,0,1-3.082-1.218,4.893,4.893,0,0,1-1.1-3.412,5.314,5.314,0,0,1,1.067-3.472,3.523,3.523,0,0,1,2.877-1.306,3.11,3.11,0,0,1,2.527,1.113,4.571,4.571,0,0,1,.925,3.022v.663h-6.531a4.32,4.32,0,0,0,.874,2.868,3.057,3.057,0,0,0,2.447.99,7.689,7.689,0,0,0,1.363-.108,8.2,8.2,0,0,0,1.489-.467v.751a6.632,6.632,0,0,1-1.417.453A7.679,7.679,0,0,1,2303.656,845.136Zm-.241-8.69a2.715,2.715,0,0,0-2.1.865,4.11,4.11,0,0,0-.925,2.5h5.6a3.976,3.976,0,0,0-.683-2.473A2.25,2.25,0,0,0,2303.414,836.446Z" transform="translate(-2035.543 -775.566)" fill="#565d8d"/>
  <path id="_13" data-name="13" d="M1826.7,912.778h-.816V909.7h-6.938v3.073h-.816v-3.858h.6a12.317,12.317,0,0,0,1.753-3.693,17.189,17.189,0,0,0,.649-4.587h4.362v8.281h1.206Zm-2.035-3.858v-7.512h-2.817a14.548,14.548,0,0,1-2.186,7.512Z" transform="translate(-1662.364 -825.89)" fill="#565d8d"/>
  <path id="_14" data-name="14" d="M1871.771,902.83a1.992,1.992,0,0,1-.424,1.349,2.4,2.4,0,0,1-1.386.683v.057a2.538,2.538,0,0,1,1.579.629,1.985,1.985,0,0,1,.489,1.445,2.444,2.444,0,0,1-.862,2.009,3.917,3.917,0,0,1-2.524.7h-3.827v-9.066h3.844a4,4,0,0,1,2.331.561A1.878,1.878,0,0,1,1871.771,902.83Zm-.618,4.146q0-1.66-2.558-1.659h-2.954v3.6h3.07Q1871.153,908.919,1871.153,906.976Zm-.259-4.08a1.211,1.211,0,0,0-.567-1.133,3.4,3.4,0,0,0-1.7-.339h-2.985v3.107h2.885a3.215,3.215,0,0,0,1.818-.393A1.423,1.423,0,0,0,1870.894,902.9Z" transform="translate(-1698.563 -825.89)" fill="#565d8d"/>
  <path id="_15" data-name="15" d="M1908.6,900.638v6.556l-.051,1.71,5.377-8.267h1.1V909.7h-.789v-6.514l.031-1.753L1908.9,909.7h-1.079v-9.066Z" transform="translate(-1731.901 -825.89)" fill="#565d8d"/>
  <path id="_16" data-name="16" d="M1952.117,900.638h.833v4.4l3.895-4.4h1.007l-3.926,4.4,4.235,4.661H1957.1l-4.153-4.6v4.6h-.833v-4.6l-4.152,4.6h-1.055l4.216-4.63-3.911-4.436h1.007l3.894,4.4Z" transform="translate(-1762.208 -825.89)" fill="#565d8d"/>
  <path id="_17" data-name="17" d="M2004.281,909.287a3.953,3.953,0,0,1-3.081-1.218,4.891,4.891,0,0,1-1.1-3.412,5.311,5.311,0,0,1,1.068-3.472,3.52,3.52,0,0,1,2.877-1.306,3.111,3.111,0,0,1,2.526,1.112,4.571,4.571,0,0,1,.925,3.022v.663h-6.53a4.32,4.32,0,0,0,.873,2.868,3.055,3.055,0,0,0,2.448.99,7.729,7.729,0,0,0,1.363-.108,8.2,8.2,0,0,0,1.489-.467v.751a6.627,6.627,0,0,1-1.417.453,7.69,7.69,0,0,1-1.434.122Zm-.241-8.69a2.715,2.715,0,0,0-2.1.865,4.112,4.112,0,0,0-.925,2.5h5.6a3.977,3.977,0,0,0-.683-2.473A2.249,2.249,0,0,0,2004.04,900.6Z" transform="translate(-1803.442 -825.302)" fill="#565d8d"/>
  <path id="_18" data-name="18" d="M2044.948,900.638v3.978h5.754v-3.978h.817V909.7h-.817v-4.371h-5.754V909.7h-.829v-9.066Z" transform="translate(-1837.573 -825.89)" fill="#565d8d"/>
  <path id="_19" data-name="19" d="M2091.32,900.638v6.556l-.052,1.71,5.375-8.267h1.1V909.7h-.789v-6.514l.031-1.753-5.377,8.266h-1.075v-9.066Z" transform="translate(-1873.559 -825.89)" fill="#565d8d"/>
  <path id="_20" data-name="20" d="M2137.989,909.287a3.955,3.955,0,0,1-3.082-1.218,4.9,4.9,0,0,1-1.1-3.412,5.312,5.312,0,0,1,1.067-3.472,3.521,3.521,0,0,1,2.877-1.306,3.111,3.111,0,0,1,2.526,1.112,4.572,4.572,0,0,1,.926,3.022v.663h-6.531a4.324,4.324,0,0,0,.873,2.868,3.056,3.056,0,0,0,2.447.99,7.714,7.714,0,0,0,1.363-.108,8.182,8.182,0,0,0,1.489-.467v.751a6.608,6.608,0,0,1-1.417.453A7.673,7.673,0,0,1,2137.989,909.287Zm-.241-8.69a2.714,2.714,0,0,0-2.1.865,4.108,4.108,0,0,0-.925,2.5h5.6a3.974,3.974,0,0,0-.683-2.473A2.25,2.25,0,0,0,2137.747,900.6Z" transform="translate(-1907.104 -825.302)" fill="#565d8d"/>
</svg>
