<svg width="50" height="51" viewBox="0 0 50 51" fill="none" xmlns="http://www.w3.org/2000/svg">
<path id="        " d="M49.7897 36.071C49.1437 30.426 41.8297 28.56 40.0207 21.655C38.0337 14.065 39.7028 11.5021 36.6208 6.14708C34.5208 2.48808 32.4269 1.40702 31.3029 0.978015C29.1949 0.178015 27.3417 0.469066 25.2477 0.830066C22.3087 1.33707 15.0119 3.2061 14.7619 6.4431C14.5779 8.8131 18.3448 9.6771 18.3058 13.0891C18.2868 14.7431 17.3859 15.909 18.1579 17.077C18.3727 17.4245 18.6801 17.7053 19.0456 17.8879C19.411 18.0706 19.8198 18.1478 20.2267 18.1111C21.5967 17.8201 21.7366 15.4111 22.4416 15.4531C23.0326 15.4871 23.7538 17.232 23.3278 18.702C22.7838 20.579 20.205 21.241 19.34 21.508C12.195 23.718 2.67398 32.532 1.17398 41.008C0.945977 42.294 0.408746 45.328 1.91275 46.473C3.91275 47.997 7.33571 44.484 12.3727 42.316C12.8447 46.947 18.7437 50.608 25.9557 50.608C31.4557 50.608 36.1939 48.4771 38.3419 45.4081C41.4999 46.3911 44.1089 46.7831 45.8639 45.4711C47.2939 44.3939 48.4112 42.9554 49.1012 41.3033C49.7912 39.6513 50.0287 37.8453 49.7897 36.071Z" fill="#41093D"/>
</svg>
