<svg width="49" height="53" viewBox="0 0 49 53" fill="none" xmlns="http://www.w3.org/2000/svg">
<path id="        " d="M48.8981 35.604C48.2521 29.959 40.9381 28.093 39.1291 21.188C37.1421 13.598 38.8112 11.035 35.7292 5.68004C33.6292 2.02104 31.5353 0.939974 30.4113 0.510974C28.3033 -0.289026 26.4501 0.00202525 24.3561 0.363025C21.4171 0.870025 14.1203 2.73906 13.8703 5.97606C13.6863 8.34606 17.4532 9.21006 17.4142 12.6221C17.3952 14.2761 16.4943 15.442 17.2663 16.61C17.4811 16.9574 17.7885 17.2383 18.154 17.4209C18.5194 17.6035 18.9282 17.6808 19.3351 17.644C20.7051 17.353 20.845 14.9441 21.55 14.9861C22.141 15.0201 22.8622 16.765 22.4362 18.235C21.8922 20.112 19.3134 20.774 18.4484 21.041C11.3034 23.251 1.78238 32.065 0.282375 40.541C0.0543754 41.827 -0.482855 44.861 1.02114 46.006C3.02114 47.53 6.44411 44.017 11.4811 41.849C11.9531 46.48 2.288 53 9.5 53C15 53 28.2633 46.069 30.4113 43C33.5693 43.983 38.745 39.312 40.5 38C41.93 36.9228 47.5196 42.4883 48.2096 40.8363C48.8996 39.1843 49.1371 37.3783 48.8981 35.604Z" fill="#41093D"/>
</svg>
