<svg width="46" height="61" viewBox="0 0 46 61" fill="none" xmlns="http://www.w3.org/2000/svg">
<path id="        " d="M45 34C44.354 28.355 39.9385 28.093 38.1295 21.188C36.1425 13.598 37.8115 11.035 34.7295 5.68004C32.6295 2.02104 30.5357 0.939974 29.4117 0.510974C27.3037 -0.289026 25.4505 0.00202525 23.3565 0.363025C20.4175 0.870025 13.1207 2.73906 12.8707 5.97606C12.6867 8.34606 16.4536 9.21006 16.4146 12.6221C16.3956 14.2761 15.4947 15.442 16.2667 16.61C16.4815 16.9574 16.7889 17.2383 17.1544 17.4209C17.5198 17.6035 17.9287 17.6808 18.3355 17.644C19.7055 17.353 19.8454 14.9441 20.5504 14.9861C21.1414 15.0201 21.8626 16.765 21.4366 18.235C20.8926 20.112 18.3138 20.774 17.4488 21.041C10.3038 23.251 4.00008 31.024 2.50008 39.5C2.27208 40.786 -0.00319159 48.855 1.50081 50C3.50081 51.524 5.44451 44.017 10.4815 41.849C10.9535 46.48 9.94237 47 17.1544 47C22.6544 47 19.2886 63.069 21.4366 60C24.5946 60.983 33.7451 46.312 35.5001 45C36.9301 43.9228 44.31 45.652 45 44C45.69 42.348 45.239 35.7743 45 34Z" fill="#41093D"/>
</svg>
