<svg id="Insta_Icon" xmlns="http://www.w3.org/2000/svg" width="35" height="35" viewBox="0 0 35 35">
  <path id="Path_1001" data-name="Path 1001" d="M3258.707,299.509c4.673,0,5.226.018,7.072.1a9.681,9.681,0,0,1,3.249.6,5.792,5.792,0,0,1,3.321,3.321,9.68,9.68,0,0,1,.6,3.249c.084,1.845.1,2.4.1,7.072s-.018,5.226-.1,7.071a9.679,9.679,0,0,1-.6,3.249,5.792,5.792,0,0,1-3.321,3.321,9.683,9.683,0,0,1-3.249.6c-1.846.084-2.4.1-7.072.1s-5.226-.018-7.072-.1a9.685,9.685,0,0,1-3.25-.6,5.8,5.8,0,0,1-3.321-3.321,9.675,9.675,0,0,1-.6-3.249c-.085-1.845-.1-2.4-.1-7.071s.018-5.226.1-7.072a9.676,9.676,0,0,1,.6-3.249,5.8,5.8,0,0,1,3.321-3.321,9.683,9.683,0,0,1,3.25-.6c1.845-.084,2.4-.1,7.072-.1m0-3.153c-4.753,0-5.348.02-7.216.105a12.848,12.848,0,0,0-4.248.813,8.943,8.943,0,0,0-5.118,5.118,12.831,12.831,0,0,0-.813,4.248c-.085,1.867-.1,2.463-.1,7.215s.02,5.349.1,7.215a12.83,12.83,0,0,0,.813,4.248,8.944,8.944,0,0,0,5.118,5.118,12.856,12.856,0,0,0,4.248.813c1.868.085,2.462.105,7.216.105s5.349-.02,7.216-.105a12.84,12.84,0,0,0,4.247-.813,8.945,8.945,0,0,0,5.118-5.118,12.833,12.833,0,0,0,.815-4.248c.085-1.867.1-2.462.1-7.215s-.019-5.349-.1-7.215a12.834,12.834,0,0,0-.815-4.248,8.945,8.945,0,0,0-5.118-5.118,12.833,12.833,0,0,0-4.247-.813c-1.866-.085-2.462-.105-7.216-.105Z" transform="translate(-3241.207 -296.355)" fill="#565d8d"/>
  <path id="Path_1002" data-name="Path 1002" d="M3372.75,418.912a8.986,8.986,0,1,0,8.986,8.987A8.987,8.987,0,0,0,3372.75,418.912Zm0,14.82a5.833,5.833,0,1,1,5.833-5.833A5.834,5.834,0,0,1,3372.75,433.732Z" transform="translate(-3355.25 -410.398)" fill="#565d8d"/>
  <ellipse id="Ellipse_1274" data-name="Ellipse 1274" cx="2.1" cy="2.1" rx="2.1" ry="2.1" transform="translate(24.742 6.059)" fill="#565d8d"/>
</svg>
