<svg id="Mail_Icon" xmlns="http://www.w3.org/2000/svg" width="35" height="35" viewBox="0 0 35 35">
  <path id="Path_1032" data-name="Path 1032" d="M17.6,116.723c4.673,0,5.226.018,7.071.1a9.684,9.684,0,0,1,3.25.6,5.795,5.795,0,0,1,3.321,3.321,9.683,9.683,0,0,1,.6,3.25c.084,1.845.1,2.4.1,7.071s-.018,5.226-.1,7.072a9.683,9.683,0,0,1-.6,3.249,5.8,5.8,0,0,1-3.321,3.321,9.683,9.683,0,0,1-3.25.6c-1.845.084-2.4.1-7.071.1s-5.226-.018-7.071-.1a9.682,9.682,0,0,1-3.25-.6A5.422,5.422,0,0,1,5.268,143.4a5.423,5.423,0,0,1-1.309-2.012,9.685,9.685,0,0,1-.6-3.249c-.084-1.845-.1-2.4-.1-7.072s.018-5.226.1-7.071a9.685,9.685,0,0,1,.6-3.25,5.422,5.422,0,0,1,1.309-2.012,5.422,5.422,0,0,1,2.012-1.309,9.683,9.683,0,0,1,3.249-.6c1.845-.084,2.4-.1,7.072-.1m0-3.153c-4.753,0-5.349.02-7.215.105a12.846,12.846,0,0,0-4.248.813,8.578,8.578,0,0,0-3.1,2.018,8.579,8.579,0,0,0-2.018,3.1,12.844,12.844,0,0,0-.813,4.248C.121,125.721.1,126.317.1,131.07s.02,5.349.105,7.215a12.844,12.844,0,0,0,.813,4.248,8.579,8.579,0,0,0,2.018,3.1,8.576,8.576,0,0,0,3.1,2.018,12.844,12.844,0,0,0,4.248.813c1.866.085,2.462.105,7.215.105s5.349-.02,7.215-.105a12.844,12.844,0,0,0,4.248-.813,8.948,8.948,0,0,0,5.118-5.118A12.844,12.844,0,0,0,35,138.285c.085-1.867.105-2.462.105-7.215s-.02-5.349-.105-7.215a12.844,12.844,0,0,0-.813-4.248,8.948,8.948,0,0,0-5.118-5.118,12.846,12.846,0,0,0-4.248-.813c-1.867-.085-2.462-.105-7.215-.105Z" transform="translate(-0.101 -113.57)" fill="#565d8d"/>
  <path id="Path_1033" data-name="Path 1033" d="M39.14,177.748c3.67,2.493,9.418,7.063,12.452,8.921a1.307,1.307,0,0,0,1.389-.014c2.875-1.846,8.376-6.318,11.9-8.817a1.305,1.305,0,0,1,2.059,1.067h0c0,.447-.233,1.641-.61,1.881-3.251,2.067-10.043,7.675-13.353,9.8a1.306,1.306,0,0,1-1.389.014c-3.462-2.118-10.455-7.767-13.868-9.836-.391-.237-.625-1.438-.625-1.895v-.042A1.306,1.306,0,0,1,39.14,177.748Z" transform="translate(-34.53 -171.328)" fill="#565d8d"/>
</svg>
