<svg xmlns="http://www.w3.org/2000/svg" width="36" height="36" viewBox="0 0 36 36">
  <g id="Vk_Icon" transform="translate(0.5 0.5)">
    <path id="Path_1001" data-name="Path 1001" d="M3258.707,299.509c4.673,0,5.226.018,7.072.1a9.681,9.681,0,0,1,3.249.6,5.792,5.792,0,0,1,3.321,3.321,9.68,9.68,0,0,1,.6,3.249c.084,1.845.1,2.4.1,7.072s-.018,5.226-.1,7.071a9.679,9.679,0,0,1-.6,3.249,5.792,5.792,0,0,1-3.321,3.321,9.683,9.683,0,0,1-3.249.6c-1.846.084-2.4.1-7.072.1s-5.226-.018-7.072-.1a9.685,9.685,0,0,1-3.25-.6,5.8,5.8,0,0,1-3.321-3.321,9.675,9.675,0,0,1-.6-3.249c-.085-1.845-.1-2.4-.1-7.071s.018-5.226.1-7.072a9.676,9.676,0,0,1,.6-3.249,5.8,5.8,0,0,1,3.321-3.321,9.683,9.683,0,0,1,3.25-.6c1.845-.084,2.4-.1,7.072-.1m0-3.153c-4.753,0-5.348.02-7.216.105a12.848,12.848,0,0,0-4.248.813,8.943,8.943,0,0,0-5.118,5.118,12.831,12.831,0,0,0-.813,4.248c-.085,1.867-.1,2.463-.1,7.215s.02,5.349.1,7.215a12.83,12.83,0,0,0,.813,4.248,8.944,8.944,0,0,0,5.118,5.118,12.856,12.856,0,0,0,4.248.813c1.868.085,2.462.105,7.216.105s5.349-.02,7.216-.105a12.84,12.84,0,0,0,4.247-.813,8.945,8.945,0,0,0,5.118-5.118,12.833,12.833,0,0,0,.815-4.248c.085-1.867.1-2.462.1-7.215s-.019-5.349-.1-7.215a12.834,12.834,0,0,0-.815-4.248,8.945,8.945,0,0,0-5.118-5.118,12.833,12.833,0,0,0-4.247-.813c-1.866-.085-2.462-.105-7.216-.105Z" transform="translate(-3241.207 -296.355)" fill="#565d8d" stroke="rgba(0,0,0,0)" stroke-width="1"/>
    <path id="vk-logo-svgrepo-com" d="M17.121,35.151l-5.037-4.308L17.336,24.5a.712.712,0,0,0-1.1-.908l-5.7,6.881a.7.7,0,0,0-.074.11V24.047a.712.712,0,0,0-.712-.712h-.9a.712.712,0,0,0,0,1.424h.192v8.854l-7.767-10a.712.712,0,0,0-1.125.873L9.191,36.128a.712.712,0,0,0,1.275-.437v-4.42a.709.709,0,0,0,.16.2l5.569,4.764a.712.712,0,0,0,.926-1.082Z" transform="translate(8.75 -11.084)" fill="#565d8d" stroke="#565d8d" stroke-width="1"/>
  </g>
</svg>
