<svg id="Logo_ECO-Z" xmlns="http://www.w3.org/2000/svg" width="54.487" height="36.752" viewBox="0 0 54.487 36.752">
  <path id="Path_792" data-name="Path 792" d="M1127.971,722.4c3.006-.731,10.927-2.437,10.927-2.437l4.224,2.356s-.162,5.484.731,8.571,1.787,5.605,1.787,5.605a.89.89,0,0,1-.606,1.249,7.713,7.713,0,0,0-1.926.774,12.939,12.939,0,0,1-3.764,1.836,19.716,19.716,0,0,1-8.974-.315c-1.517-.377-2.731-.637-2.887-1.229a3.55,3.55,0,0,1,0-2.478c.095-.21.721-.3.569-.69-.217-.557-1.4-1.291-2.072-1.869-1.4-.121-1.215,3.717-.244,4.915,1.2,1.48,9.7,4.988,15.395,3.737s5.89-2.417,6.459-3.473a17.285,17.285,0,0,0,1.056-3.392,36.9,36.9,0,0,0-.58-3.848,9.959,9.959,0,0,1,1.073,3.8c-.163,1.462-1.168,5.413-1.168,5.413s2.386.457,3.361-.4a19.792,19.792,0,0,0,.731-2.864l1.787,3.392c.968-.142,3.038-.541,3.331-1.036.117-.2-1.95-2.153-2.6-3.168-.359-.561.583-1.84,1.5-2.874-.258,2.9,1.662,6.578,3.711,6.56,2.515-.022,2.047-1.025,2.721-1.361,1.97-.979,2.649-4.181.139-7.517-1-1.332-3.473-1.377-4.831-.648a3.034,3.034,0,0,0-.862.687,6.88,6.88,0,0,0-1.362-1.266l-3.575,4s-.2-3.879-.244-4.123c-.034-.2-2.91.1-3.919.205q-.1-.6-.229-1.3c-1.056-5.93,0-4.7-1.1-6.012s-6.431-3.989-7.637-4.1a29.086,29.086,0,0,0-5.55.821,42.215,42.215,0,0,0-6.006,1.779c-.8.444-.209,1.109.751,2.843,1.344,2.427,1.5,1.349,1.556.578A17.76,17.76,0,0,0,1127.971,722.4Zm29,5.742c1.585-.021,1.372.177,1.533-.955a54.092,54.092,0,0,1,7.3.33,98.2,98.2,0,0,1,10.317,1.8c-.483.438-2.743,2.34-5.655,5.189-3.451,3.377-7.081,7.347-6.8,7.743.528.731,6.3-2.468,11.983-.315a11.141,11.141,0,0,1,1.686-2.752c-4.085-.75-6.708-.915-10.415.609l6.056-6.122,6.146-5.394c.366-.321.026-1.106-.2-1.128-3.584-.34-6.976-.56-9.909-.99-4.381-.643-8.583-2.168-14.807-3.69-.2-.048-.665.293-.645.488a7.182,7.182,0,0,0,1.277,2.165c.548.773,1.211,1.382,1.594,1.965.136.207.09.469.163.647a.664.664,0,0,0,.373.412Zm4.732,9.211c1.055-.8.869-2.67-.107-3.608-1.084-1.042-2.5-.7-2.792.74C1158.4,736.452,1160.539,738.236,1161.7,737.357Z" transform="translate(-1124.969 -705.943)" fill="#565d8d" fill-rule="evenodd"/>
  <g id="Group_3" data-name="Group 3" transform="translate(39.773 3.955)">
    <path id="Path_793" data-name="Path 793" d="M1581.642,614.653l.1-.12h0l.044.032.04.023.034.014.028.007h.024l.021,0,.02-.008.02-.013.021-.019.021-.025.021-.031.021-.037.02-.042.019-.047.018-.05.017-.054.016-.056.015-.059.014-.06.014-.061.013-.062.012-.062.012-.062.012-.061.011-.059.012-.058.012-.055.012-.053.012-.05.013-.046.014-.043.016-.039.14.064-.011.029-.012.035-.012.041-.012.046-.011.05-.011.054-.011.056-.011.059-.011.06-.012.062-.012.063-.013.063-.014.063-.015.063-.016.062-.017.061-.018.058-.02.056-.022.054-.024.051-.026.047-.03.044-.033.039-.038.034-.043.027-.048.019-.052.009-.054,0-.055-.013-.055-.022-.056-.032-.057-.041Zm-.163-.706.147-.046.005.019,0,.019,0,.02,0,.021,0,.021,0,.022,0,.023,0,.023,0,.024,0,.024,0,.025,0,.025,0,.025,0,.025,0,.025,0,.025,0,.025,0,.024,0,.023,0,.023,0,.022,0,.021,0,.02,0,.019.005.018.005.016.006.014.006.012.006.01.005.008,0,.006,0,0-.1.12-.018-.017-.016-.019-.014-.02-.012-.021-.01-.021-.009-.022-.008-.023-.007-.023-.006-.024-.006-.025,0-.025,0-.025,0-.026,0-.026,0-.026,0-.026,0-.026,0-.026,0-.026,0-.026,0-.025,0-.024,0-.024,0-.023,0-.022,0-.021,0-.02,0-.018,0-.017,0-.015,0-.013Z" transform="translate(-1581.479 -613.395)" fill="#565d8d"/>
  </g>
  <g id="Group_4" data-name="Group 4" transform="translate(37.592 6.07)">
    <path id="Path_794" data-name="Path 794" d="M1557.573,638.2l.078.133-.033.016-.037.013-.04.01-.044.009-.048.008-.052.006-.055,0-.057,0h-.12l-.062,0-.062,0-.062-.006-.061-.008-.06-.01-.059-.013-.056-.015-.053-.018-.051-.021-.047-.025-.043-.029-.038-.035-.031-.041-.023-.047-.012-.052v-.055l.012-.056.023-.056.033-.057.044-.058.054-.059.066-.062.1.115-.058.055-.046.05-.034.045-.023.039-.014.033-.006.027v.021l0,.018.009.017.014.018.021.019.027.018.033.018.039.016.044.015.048.013.051.011.054.009.056.007.057.005.057,0,.057,0h.111l.053,0,.05,0,.046-.005.042-.007.037-.007.03-.008.023-.008Z" transform="translate(-1556.444 -637.677)" fill="#565d8d"/>
  </g>
  <g id="Group_5" data-name="Group 5" transform="translate(38.555 6.624)">
    <path id="Path_795" data-name="Path 795" d="M1568.033,644.7l.027.151h0l-.035.005-.035,0h-.069l-.034,0-.033,0-.033-.006-.032-.009-.031-.011-.031-.013-.03-.015-.028-.018-.027-.02-.025-.022-.023-.025-.021-.027-.018-.029-.016-.031-.013-.033-.01-.035-.007-.037,0-.038v-.04l0-.041.005-.042.009-.044.012-.045.015-.046.018-.048.022-.049.025-.051.029-.052.133.077-.026.047-.022.045-.019.043-.016.04-.012.038-.01.036-.006.034,0,.032v.057l0,.025,0,.023.006.022.008.02.009.018.011.017.012.016.013.014.015.013.016.012.018.011.019.01.02.009.021.007.023.006.023,0,.024,0,.025,0h.052l.027,0,.027,0Zm.553-.425.147.046-.006.018-.008.017-.009.017-.01.018-.011.018-.012.018-.013.018-.014.019-.016.019-.016.019-.017.02-.019.02-.019.019-.02.02-.021.02-.022.02-.022.019-.024.019-.024.019-.025.018-.026.018-.026.017-.027.016-.027.016-.028.015-.028.014-.029.013-.029.012-.03.011-.03.009-.031.008-.031.006-.027-.151.023,0,.023-.006.024-.007.024-.008.024-.01.024-.01.024-.012.023-.012.023-.013.023-.014.022-.015.022-.015.022-.016.021-.016.021-.017.02-.017.02-.017.018-.017.017-.018.017-.017.016-.017.015-.017.014-.017.013-.016.012-.016.011-.015.009-.014.008-.013.007-.012.005-.011,0-.009Z" transform="translate(-1567.501 -644.031)" fill="#565d8d"/>
  </g>
  <g id="Group_6" data-name="Group 6" transform="translate(35.432 6.479)">
    <path id="Path_796" data-name="Path 796" d="M1533.152,642.957l-.012.153-.049,0-.051-.005-.051-.006-.052-.007-.052-.008-.053-.009-.053-.01-.053-.011-.053-.012-.054-.013-.053-.014-.053-.015-.053-.016-.052-.017-.052-.018-.051-.019-.051-.021-.05-.022-.049-.023-.048-.024-.047-.025-.045-.027-.044-.028-.043-.029-.041-.03-.039-.032-.038-.033-.036-.034-.034-.036-.031-.037-.029-.039-.027-.041.131-.08.021.033.024.032.026.031.028.03.03.029.032.029.034.027.036.027.038.026.04.025.041.024.043.023.044.022.045.021.047.02.047.019.048.018.049.017.049.016.05.015.05.014.051.013.051.012.051.011.051.01.051.009.05.009.05.008.049.007.049.006.048.005Z" transform="translate(-1531.652 -642.365)" fill="#565d8d"/>
  </g>
  <g id="Group_7" data-name="Group 7" transform="translate(35.34 5.193)">
    <path id="Path_797" data-name="Path 797" d="M1532,628.36l-.03.151h0l-.031-.006-.032-.006-.033-.006-.034-.006-.035-.005-.037-.005-.037,0-.038,0-.039,0-.04,0-.04,0h-.124l-.042,0-.042,0-.042.006-.042.007-.042.008-.042.01-.042.012-.042.014-.042.016-.041.018-.041.02-.04.022-.04.024-.039.027-.038.029-.038.032-.037.035-.037.037-.113-.1.042-.043.043-.04.044-.037.045-.034.046-.031.046-.028.047-.026.047-.023.048-.021.048-.018.048-.016.048-.014.048-.012.048-.01.048-.008.047-.006.047,0,.047,0,.046,0h.09l.044,0,.043,0,.042,0,.041,0,.04,0,.039.005.038.006.037.006.035.006.033.006.032.006Zm-.117.1.136-.073-.054-.039h.041l.007,0h0l-.024.15h-.013l-.01,0h0l.03-.151h0l.009,0-.009,0h-.012l-.024.15h-.031l-.054-.039Zm.054.039-.036-.007-.017-.033Zm.167-.9.1.114-.008.008-.009.011-.01.014-.01.016-.01.018-.01.021-.011.022-.01.024-.01.026-.01.027-.01.028-.009.028-.008.029-.009.03-.008.029-.007.03-.007.03-.006.029-.006.029,0,.028,0,.028,0,.026,0,.025,0,.024,0,.022v.075l0,0-.136.073-.009-.022-.005-.021,0-.02v-.09l0-.025,0-.027,0-.028,0-.029,0-.03.005-.031.006-.031.006-.032.007-.032.008-.032.008-.033.009-.032.009-.032.01-.032.01-.031.011-.03.011-.029.012-.029.012-.027.013-.026.014-.025.015-.024.016-.022.017-.02Z" transform="translate(-1530.605 -627.605)" fill="#565d8d"/>
  </g>
  <g id="Group_8" data-name="Group 8" transform="translate(36.802 1.209)">
    <path id="Path_798" data-name="Path 798" d="M1549.5,585.272l-.124-.09h0l.063-.09.059-.094.056-.1.053-.1.05-.1.047-.1.045-.107.042-.109.041-.111.039-.112.037-.113.036-.114.035-.114.034-.115.034-.115.034-.114.034-.114.034-.113.034-.112.035-.111.036-.109.037-.108.039-.105.041-.1.043-.1.045-.1.048-.095.051-.092.054-.088.058-.084.061-.08.066-.075.113.1-.059.068-.056.073-.053.078-.05.082-.048.086-.045.09-.043.093-.041.1-.04.1-.038.1-.037.105-.035.107-.035.109-.034.111-.034.112-.033.114-.034.115-.034.115-.035.115-.036.116-.037.115-.038.115-.04.114-.042.113-.044.112-.046.111-.049.109-.052.107-.055.1-.059.1-.062.1-.067.1h0Zm-2.126.719.127-.087.046.062.047.053.048.046.05.038.051.031.052.025.053.018.054.013.055.007.057,0,.058,0,.059-.009.061-.014.062-.019.063-.024.064-.029.065-.033.065-.038.065-.042.065-.046.065-.049.065-.053.065-.056.064-.059.063-.061.063-.064.062-.066.06-.068.059-.07.058-.071.056-.072.055-.073.124.09-.056.076-.058.075-.06.074-.061.072-.063.071-.064.069-.065.067-.066.064-.067.062-.068.059-.069.056-.07.052-.07.049-.071.045-.071.041-.071.037-.072.032-.072.027-.072.022-.072.016-.072.011-.072,0-.071,0-.071-.009-.069-.016-.068-.024-.067-.032-.064-.04-.062-.048-.059-.055-.056-.064Z" transform="translate(-1547.378 -581.881)" fill="#565d8d"/>
  </g>
  <g id="Group_9" data-name="Group 9" transform="translate(40.583 0.023)">
    <path id="Path_799" data-name="Path 799" d="M1590.93,570.536l-.148-.042.011-.039.011-.044.012-.049.013-.054.013-.059.013-.062.014-.066.014-.07.015-.072.015-.075.015-.077.015-.079.015-.081.015-.082.015-.083.015-.084.014-.084.015-.084.014-.084.013-.083.013-.082.012-.08.012-.079.011-.077.011-.074.01-.072.009-.069.008-.065.007-.061.006-.057,0-.053,0-.048.153.01,0,.05,0,.055-.006.059-.007.063-.008.067-.009.07-.01.073-.011.075-.011.078-.012.08-.013.081-.013.082-.014.084-.014.084-.014.085-.015.085-.015.084-.015.084-.015.083-.016.082-.015.08-.015.078-.015.076-.015.073-.015.07-.014.067-.014.063-.014.06-.013.056-.012.051-.012.046Z" transform="translate(-1590.782 -568.263)" fill="#565d8d"/>
  </g>
  <g id="Group_10" data-name="Group 10" transform="translate(40.186 0)">
    <path id="Path_800" data-name="Path 800" d="M1586.31,570.146l-.092-.123.045-.037.044-.042.042-.046.04-.051.039-.055.037-.058.035-.062.034-.065.032-.067.031-.07.029-.072.028-.073.026-.075.025-.076.023-.077.022-.077.021-.077.02-.077.019-.076.018-.075.017-.074.017-.072.016-.07.015-.068.015-.066.014-.063.014-.06.014-.057.014-.053.014-.049.014-.045.015-.041.143.056-.012.035-.013.04-.013.046-.013.05-.014.054-.014.058-.014.062-.015.065-.015.068-.016.07-.017.073-.018.075-.018.076-.02.077-.02.078-.021.079-.023.079-.024.079-.026.079-.027.078-.029.077-.03.076-.032.074-.034.072-.036.07-.038.067-.041.065-.043.061-.046.058-.049.054-.052.05Z" transform="translate(-1586.218 -568)" fill="#565d8d"/>
  </g>
  <g id="Group_11" data-name="Group 11" transform="translate(31.522 11.68)">
    <path id="Path_801" data-name="Path 801" d="M1486.924,703.475l-.151-.03.016-.078.018-.075.019-.072.02-.07.021-.067.022-.065.023-.063.023-.06.025-.058.026-.056.026-.053.027-.051.028-.049.028-.047.029-.045.029-.042.03-.041.03-.039.03-.036.031-.035.031-.033.031-.031.031-.029.031-.027.031-.025.031-.023.031-.022.031-.02.031-.019.03-.017.03-.015.03-.014.062.141-.024.011-.025.013-.026.014-.026.016-.026.017-.027.019-.027.021-.027.022-.027.024-.027.026-.027.027-.028.029-.027.031-.027.033-.027.035-.027.037-.027.039-.026.041-.026.043-.026.045-.025.047-.025.05-.024.052-.023.054-.022.057-.021.059-.021.061-.02.064-.019.066-.018.069-.017.071Z" transform="translate(-1486.774 -702.068)" fill="#565d8d"/>
  </g>
  <g id="Group_12" data-name="Group 12" transform="translate(30.938 12.796)">
    <path id="Path_802" data-name="Path 802" d="M1481.409,714.874l.1.113-.039.036-.038.036-.037.035-.037.035-.037.035-.036.034-.036.034-.036.034-.036.033-.036.033-.036.033-.036.033-.037.032-.038.032-.038.032-.039.031-.04.031-.04.031-.041.031-.042.031-.043.031-.044.03-.046.03-.047.03-.048.03-.05.029-.051.029-.053.03-.055.029-.057.029-.059.029-.06.029-.066-.139.059-.028.057-.028.055-.028.053-.028.051-.028.049-.028.048-.028.046-.028.045-.029.043-.029.042-.029.041-.029.04-.029.039-.03.039-.03.038-.03.037-.03.037-.03.036-.031.036-.031.036-.032.036-.032.035-.032.035-.033.036-.033.036-.034.036-.034.036-.034.037-.035.038-.035.038-.036Z" transform="translate(-1480.079 -714.874)" fill="#565d8d"/>
  </g>
  <g id="Group_13" data-name="Group 13" transform="translate(33.093 10.282)">
    <path id="Path_803" data-name="Path 803" d="M1505.264,686.4l-.151-.027.08.09-.04,0h-.072l-.032,0-.031,0-.029-.006-.026-.007-.025-.01-.024-.011-.021-.014-.019-.015-.017-.017-.015-.019-.012-.02-.009-.021-.006-.021,0-.021,0-.02v-.04l0-.019,0-.019,0-.018,0-.018,0-.017,0-.017,0-.016,0-.015.005-.015,0-.014,0-.013,0-.012.147.045,0,.014,0,.014,0,.014,0,.014,0,.014,0,.014,0,.013,0,.013,0,.013,0,.012,0,.012v.049l0,0,0,0,0,0,0,0,.005,0,.007,0,.009,0,.012,0,.015,0,.018,0,.021,0,.024,0h.093Zm-.08-.09.1-.006-.017.1Zm.426.321-.01.154h0l-.031,0-.03,0-.029,0-.028-.006-.028-.007-.026-.008-.025-.008-.024-.009-.024-.01-.022-.011-.021-.012-.02-.012-.019-.013-.018-.013-.017-.014-.016-.015-.014-.015-.014-.015-.013-.016-.012-.016-.011-.016-.01-.016-.009-.016-.008-.017-.007-.017-.005-.016,0-.017,0-.017,0-.017v-.034l0-.017.151.027v.025l0,.007,0,.008,0,.008,0,.009,0,.009.006.009.006.01.007.009.008.01.009.01.01.01.01.009.012.009.012.009.013.009.014.009.015.008.016.008.017.007.018.007.019.007.02.006.021.005.022,0,.023,0,.024,0,.025,0Zm.635-.244.093.123-.029.022-.029.021-.028.019-.028.018-.027.018-.027.017-.026.016-.026.015-.025.014-.025.013-.024.012-.025.011-.024.01-.023.01-.024.009-.022.008-.023.007-.022.007-.022.006-.022.005-.021,0-.021,0-.021,0-.021,0-.02,0-.02,0h-.115l.01-.154h.11l.017,0,.016,0,.017,0,.017,0,.017,0,.018,0,.018,0,.019-.005.019-.006.019-.007.02-.007.02-.008.021-.009.021-.01.022-.01.022-.011.023-.012.023-.013.024-.014.024-.015.025-.016.026-.017.026-.018.027-.019Z" transform="translate(-1504.808 -686.017)" fill="#565d8d"/>
  </g>
  <g id="Group_14" data-name="Group 14" transform="translate(33.729 8.624)">
    <path id="Path_804" data-name="Path 804" d="M1513.671,666.986l.122.093-.043.053-.044.049-.046.046-.048.043-.049.04-.051.037-.052.034-.053.032-.054.029-.054.027-.055.025-.056.023-.056.021-.056.019-.057.017-.057.016-.057.014-.057.013-.056.012-.056.011-.055.01-.055.009-.054.008-.053.008-.052.008-.052.007-.05.007-.049.007-.048.007-.046.007-.045.008-.043.008-.03-.151.046-.009.047-.008.048-.008.049-.007.05-.007.051-.007.051-.007.052-.008.052-.008.053-.008.053-.009.053-.01.054-.01.054-.011.054-.012.053-.013.053-.015.053-.016.052-.018.052-.019.051-.021.05-.022.049-.024.048-.026.047-.028.046-.031.045-.033.043-.035.042-.038.041-.041.039-.043Z" transform="translate(-1512.104 -666.986)" fill="#565d8d"/>
  </g>
  <g id="Group_15" data-name="Group 15" transform="translate(34.334 8.033)">
    <path id="Path_805" data-name="Path 805" d="M1520.752,660.238l.151-.03.007.043.005.048,0,.052,0,.057v.06l0,.064-.006.068-.01.071-.013.073-.016.076-.02.078-.025.08-.029.081-.034.082-.038.083-.044.083-.049.083-.055.083-.061.082-.067.081-.073.079-.08.077-.087.075-.094.072-.1.069-.109.066-.117.062-.125.058-.133.054-.142.049-.15.044-.159.039-.033-.15.152-.037.143-.042.134-.047.126-.051.118-.055.109-.059.1-.062.094-.064.087-.067.081-.069.074-.071.068-.073.062-.074.056-.075.05-.076.045-.076.04-.076.035-.076.031-.076.026-.074.022-.073.019-.071.015-.07.012-.068.009-.065.006-.061,0-.058v-.1l0-.046,0-.04Z" transform="translate(-1519.049 -660.208)" fill="#565d8d"/>
  </g>
  <g id="Group_16" data-name="Group 16" transform="translate(31.433 14.054)">
    <path id="Path_806" data-name="Path 806" d="M1487.157,729.7l.066.139-.05.021-.052.018-.054.015-.055.012-.057.009-.058.007-.059,0-.06,0h-.06l-.06,0-.06-.005-.06-.007-.06-.01-.059-.012-.058-.014-.057-.016-.056-.018-.054-.02-.052-.022-.05-.024-.048-.026-.045-.028-.042-.031-.039-.033-.036-.035-.032-.038-.028-.04-.023-.042-.018-.045-.012-.047-.005-.049v-.05l.153.015v.029l0,.028.007.027.011.027.015.027.019.027.023.027.027.026.031.026.034.024.037.024.041.022.043.021.046.02.048.018.049.016.051.015.052.013.054.011.054.009.054.007.055,0,.055,0h.054l.054,0,.052,0,.051-.006.049-.008.047-.011.046-.013.043-.015Z" transform="translate(-1485.758 -729.311)" fill="#565d8d"/>
  </g>
  <g id="Group_17" data-name="Group 17" transform="translate(28.471 16.037)">
    <path id="Path_807" data-name="Path 807" d="M1453.25,753.321l.109.109-.054.047-.057.038-.06.028-.062.018-.063.009H1453l-.063-.009-.063-.016-.062-.023-.061-.029-.06-.035-.059-.04-.058-.045-.057-.049-.057-.053-.055-.057-.054-.06-.053-.063-.052-.065-.05-.067-.048-.069-.047-.071-.045-.072-.043-.072-.041-.073-.038-.073-.035-.072-.033-.072-.03-.071-.027-.069-.024-.067-.021-.065.148-.043.019.06.022.062.026.065.028.066.031.068.034.069.036.069.039.069.041.069.043.068.045.067.046.066.048.064.049.062.05.059.05.056.051.052.052.049.052.044.051.04.051.035.05.03.049.024.048.018.046.012.044.006h.042l.041-.006.04-.012.039-.018.039-.026Z" transform="translate(-1451.762 -752.069)" fill="#565d8d"/>
  </g>
  <g id="Group_18" data-name="Group 18" transform="translate(28.807 16.101)">
    <path id="Path_808" data-name="Path 808" d="M1455.613,752.845l.149-.04.019.061.025.064.031.066.037.068.043.069.048.07.053.071.057.071.062.071.066.07.069.07.073.069.076.068.078.066.081.064.083.062.085.059.086.057.087.054.088.051.089.047.089.043.088.039.088.035.087.03.086.025.084.02.082.014.08.009.077,0,.074,0,.071-.009.026.152-.085.01-.087,0-.089,0-.09-.01-.091-.016-.093-.022-.093-.027-.094-.032-.094-.037-.094-.041-.094-.045-.093-.049-.093-.053-.091-.056-.09-.059-.089-.062-.086-.065-.084-.067-.082-.069-.079-.071-.076-.072-.073-.073-.069-.074-.065-.075-.061-.076-.056-.075-.052-.076-.047-.075-.041-.075-.036-.074-.03-.074Z" transform="translate(-1455.613 -752.805)" fill="#565d8d"/>
  </g>
  <g id="Group_19" data-name="Group 19" transform="translate(27.763 15.906)">
    <path id="Path_809" data-name="Path 809" d="M1444.76,752.38l-.062.141-.041-.019-.04-.02-.037-.022-.035-.023-.033-.024-.031-.024-.029-.025-.027-.026-.025-.027-.023-.027-.021-.028-.019-.029-.017-.029-.015-.029-.014-.029-.012-.03-.01-.03-.009-.03-.008-.03-.006-.03,0-.029,0-.029,0-.029v-.111l0-.027,0-.026,0-.026,0-.024,0-.024.151.031,0,.02,0,.021,0,.021,0,.022,0,.022v.091l0,.023,0,.023,0,.024,0,.023.006.023.007.023.008.023.009.023.01.023.012.023.013.022.015.022.016.022.018.021.02.021.021.02.023.02.025.02.027.019.029.018.031.018.033.017Zm-1.12-1.808.15.033v.03l0,.027.008.033.012.038.016.043.019.047.022.05.026.053.03.055.033.058.036.06.039.061.042.062.045.063.048.064.051.064.053.064.056.063.059.063.061.062.063.06.065.059.067.057.069.054.071.052.073.049.074.046.076.042.077.038.078.034.079.03-.05.145-.087-.033-.085-.038-.083-.042-.082-.045-.079-.049-.078-.052-.075-.055-.073-.057-.071-.06-.069-.062-.066-.064-.064-.065-.061-.066-.059-.067-.056-.067-.053-.067-.05-.067-.048-.066-.045-.066-.041-.064-.038-.063-.035-.061-.032-.059-.029-.057-.025-.055-.022-.052-.018-.05-.014-.047-.01-.044-.007-.042,0-.04Z" transform="translate(-1443.636 -750.572)" fill="#565d8d"/>
  </g>
  <g id="Group_20" data-name="Group 20" transform="translate(34.772 7.154)">
    <path id="Path_810" data-name="Path 810" d="M1525.11,650.77l.118-.1-.091.119-.076-.032-.072-.026-.067-.02-.062-.014-.058-.009-.054,0h-.05l-.046,0-.043.008-.04.011-.036.013-.034.016-.031.018-.029.02-.027.022-.025.023-.022.024-.021.025-.018.026-.017.026-.015.026-.013.025-.011.024-.009.023-.008.021-.007.02-.005.017,0,.015,0,.011v.007h0l-.141-.048.13.083-.141-.051,0-.012,0-.013,0-.015.005-.019.007-.022.008-.024.01-.027.012-.028.014-.03.016-.031.018-.032.021-.033.024-.033.026-.032.029-.032.033-.031.036-.029.039-.027.042-.024.046-.021.049-.018.053-.014.056-.01.059-.005h.063l.066,0,.069.01.073.016.076.022.08.029.084.035Zm.118-.1.211.255-.3-.136Zm-.089-.56.109.109-.019.02-.018.02-.016.019-.014.018-.012.018-.011.017-.009.016-.007.016-.006.015,0,.014,0,.014,0,.013,0,.013v.037l0,.012,0,.012,0,.012,0,.012,0,.012.005.012.006.013.007.013.007.012.008.013.009.013.009.013.009.013.01.013.01.013.01.013-.118.1-.012-.015-.012-.015-.012-.015-.012-.016-.011-.016-.01-.016-.01-.017-.01-.018-.009-.018-.009-.018-.008-.019-.007-.02-.006-.02-.005-.021,0-.021,0-.021v-.044l0-.022,0-.023.005-.023.006-.023.008-.023.01-.023.011-.023.013-.024.014-.023.016-.023.018-.024.02-.024.021-.024Z" transform="translate(-1524.08 -650.113)" fill="#565d8d"/>
  </g>
  <g id="Group_21" data-name="Group 21" transform="translate(37.277 1.241)">
    <path id="Path_811" data-name="Path 811" d="M1555.691,582.713l-.147-.044h0l.005-.015.005-.015.006-.015.006-.014.007-.014.007-.015.008-.014.008-.014.008-.014.008-.013.008-.014.009-.014.008-.014.009-.014.009-.013.008-.013.009-.014.008-.013.008-.013.008-.013.008-.013.007-.013.007-.012.007-.013.007-.013.006-.013.006-.012.005-.012.005-.012,0-.012,0-.012,0-.011.148.042-.005.017-.005.016-.006.016-.006.016-.007.016-.007.016-.008.015-.008.015-.008.015-.009.015-.008.015-.008.014-.008.014-.009.014-.009.014-.009.013-.008.013-.009.014-.008.013-.008.013-.008.012-.007.012-.007.013-.007.012-.006.012-.006.011-.006.011-.005.011,0,.01,0,.01,0,.01,0,.01Zm-1.372,2.759-.124-.09h0l.061-.083.058-.079.055-.075.053-.072.051-.07.049-.067.047-.065.045-.064.043-.063.042-.062.041-.061.04-.062.039-.062.037-.063.037-.065.036-.066.036-.068.035-.071.035-.074.036-.077.035-.081.036-.085.036-.09.036-.1.038-.1.038-.107.039-.113.04-.12.041-.127.043-.134.044-.142.046-.15.147.044-.046.151-.044.143-.043.135-.042.128-.041.121-.04.114-.039.108-.038.1-.037.1-.037.092-.036.088-.037.084-.036.08-.036.076-.037.074-.037.071-.037.068-.038.067-.039.065-.04.064-.041.064-.042.063-.043.064-.045.064-.046.065-.048.066-.049.068-.052.07-.053.072-.055.075-.058.079-.06.082h0Zm-1.425,1.144-.06-.141.046-.02.046-.022.047-.024.048-.026.048-.028.049-.029.049-.03.049-.032.05-.033.049-.034.05-.035.05-.036.049-.037.049-.038.048-.038.047-.039.047-.039.046-.039.045-.04.044-.04.043-.039.042-.039.04-.039.039-.039.037-.038.035-.037.033-.036.032-.035.029-.035.028-.033.025-.032.023-.03.124.09-.025.034-.027.035-.029.036-.031.037-.033.037-.035.038-.037.039-.038.039-.04.04-.041.04-.043.041-.044.041-.045.041-.046.041-.047.041-.048.04-.049.04-.05.039-.05.039-.051.038-.051.037-.051.037-.052.036-.052.035-.052.033-.052.032-.052.031-.051.029-.051.028-.051.026-.05.024Z" transform="translate(-1552.834 -582.243)" fill="#565d8d"/>
  </g>
  <g id="Group_22" data-name="Group 22" transform="translate(46.328 18.455)">
    <path id="Path_812" data-name="Path 812" d="M1656.758,780.116l.113.039h0l-.011.036-.008.037-.005.037,0,.037v.038l0,.038.006.038.009.038.012.038.015.038.018.038.021.038.024.037.027.037.03.036.033.036.037.035.04.034.043.033.046.031.05.03.053.029.056.027.059.025.062.024.066.022.069.02.072.018.075.015.079.013.082.011.086.008-.009.119-.09-.008-.086-.011-.083-.014-.08-.016-.077-.019-.074-.021-.071-.023-.067-.026-.064-.027-.061-.03-.058-.031-.054-.033-.051-.035-.048-.036-.045-.038-.042-.039-.038-.04-.035-.042-.032-.043-.028-.044-.025-.044-.022-.045-.018-.046-.015-.046-.011-.046-.008-.047,0-.047V780.3l0-.047.006-.046.01-.046.014-.045Zm1.612.192-.069.1-.078-.054-.076-.05-.074-.046-.072-.043-.07-.039-.069-.036-.066-.033-.064-.029-.062-.026-.06-.023-.058-.02-.056-.017-.054-.014-.051-.011-.049-.008-.046-.005-.044,0h-.042l-.039,0-.036,0-.034.007-.032.009-.029.011-.027.012-.025.014-.022.016-.02.018-.018.019-.016.021-.014.023-.013.025-.01.026-.113-.039.014-.036.017-.034.021-.033.023-.03.026-.028.029-.025.032-.022.034-.02.036-.017.039-.014.041-.011.043-.008.045-.005.047,0h.049l.051,0,.052.006.054.009.056.012.058.015.06.018.062.021.064.025.065.027.068.031.069.034.071.038.073.041.075.044.077.048.078.051Z" transform="translate(-1656.725 -779.828)" fill="#565d8d"/>
  </g>
  <g id="Group_23" data-name="Group 23" transform="translate(47.903 17.066)">
    <path id="Path_813" data-name="Path 813" d="M1674.956,764.62l.111.044h0l-.016.04-.015.041-.014.041-.013.041-.013.041-.012.041-.011.041-.01.041-.009.04-.008.04-.007.04-.006.039-.005.039,0,.038,0,.037,0,.037v.1l0,.033,0,.032,0,.03.005.029.007.028.008.026.009.025.01.023.011.022.012.02.013.018.014.017.015.015-.08.089-.023-.022-.021-.024-.019-.026-.017-.028-.015-.029-.013-.03-.012-.031-.01-.032-.008-.034-.007-.035-.005-.035,0-.036,0-.037v-.116l0-.04,0-.04,0-.041.006-.041.007-.042.008-.042.009-.042.01-.043.011-.043.011-.043.013-.043.013-.043.014-.043.015-.043.016-.042.016-.042h0Zm.7-.726.013.119h0l-.03,0-.029.006-.028.007-.026.008-.026.009-.025.011-.024.012-.023.013-.023.014-.022.015-.021.016-.02.018-.02.019-.019.019-.019.021-.018.022-.017.022-.017.023-.016.024-.016.025-.016.026-.015.026-.015.027-.014.028-.014.028-.014.029-.014.029-.013.029-.013.03-.012.03-.013.03-.012.031-.111-.044.012-.031.013-.031.013-.031.013-.031.014-.031.014-.03.014-.03.015-.03.016-.03.016-.029.016-.029.017-.028.018-.028.018-.027.019-.026.02-.026.021-.025.022-.024.022-.023.023-.022.025-.021.026-.02.026-.019.028-.017.028-.016.03-.015.031-.013.032-.011.033-.01.034-.008.035-.007.036,0h0Zm.689.246-.068.1h0l-.016-.011-.016-.011-.015-.012-.015-.012-.015-.011-.015-.012-.014-.011-.014-.011-.014-.011-.014-.011-.014-.01-.015-.01-.015-.01-.015-.009-.015-.009-.016-.009-.016-.008-.016-.008-.017-.007-.018-.007-.019-.006-.02-.005-.021-.005-.022,0-.023,0-.024,0-.025,0h-.085l-.031,0-.033,0-.013-.119.037,0,.035,0h.1l.03,0,.029,0,.028,0,.026.005.025.006.024.007.024.008.022.008.021.009.021.01.02.01.019.01.019.011.018.011.017.011.017.012.016.012.016.012.015.012.015.012.015.012.014.011.014.011.014.011.014.01.014.01.014.01Zm.548.139-.01.119.04-.011-.021.014-.021.013-.02.011-.02.01-.02.009-.02.007-.021.006-.02,0-.02,0h-.04l-.02,0-.019,0-.019,0-.019-.006-.018-.007-.019-.007-.018-.009-.018-.01-.018-.01-.019-.011-.019-.012-.019-.012-.02-.013-.02-.014-.02-.014-.021-.015-.021-.015-.023-.016-.023-.016-.024-.017-.025-.017.068-.1.025.018.025.017.023.016.022.016.021.015.021.014.02.014.019.013.018.012.017.011.017.01.016.009.015.008.015.007.014.006.013.005.013,0,.012,0,.012,0,.011,0h.033l.012,0,.012,0,.012,0,.013,0,.014-.006.015-.007.016-.009.016-.01.017-.012Zm-.04.011.018-.013.022,0Zm.3.188.021.118h-.035l-.016,0-.015-.007-.013-.008-.01-.009-.009-.009-.008-.009-.006-.009-.006-.009-.005-.009-.005-.009-.005-.009,0-.008-.005-.008-.005-.008,0-.008-.005-.007-.005-.007-.006-.007-.006-.007-.006-.006-.007-.006-.007-.005-.008-.005-.009,0-.01,0-.01,0-.011,0-.012,0-.014,0-.016,0,.01-.119.022,0,.022,0,.021,0,.019.006.018.007.017.008.016.009.015.01.013.01.013.011.011.011.01.011.009.011.008.011.008.011.007.011.006.01.006.01.005.009,0,.008,0,.008,0,.006,0,.005,0,0,0,0h0l0,0h-.009Zm.029-.193.086.083h0l-.009.01-.008.009-.007.009-.006.009-.005.008,0,.007,0,.008,0,.007,0,.007,0,.006,0,.006v.052h0l0,0h0v0l0,.012-.048.068-.021-.118-.049.067,0,.011h0v0h0l0,0,0-.005,0,0,0-.006v-.006l0-.008v-.075l0-.011,0-.011,0-.012,0-.012.005-.012.006-.012.007-.012.008-.013.008-.013.009-.012.01-.013.011-.013.012-.013Zm.35-.375.117-.025.007.036,0,.034,0,.032v.03l0,.028,0,.027-.006.025-.008.024-.01.022-.013.02-.014.018-.015.016-.016.014-.017.013-.018.011-.018.01-.018.009-.018.008-.018.007-.018.007-.018.006-.018.007-.017.006-.017.006-.016.007-.016.007-.015.008-.014.008-.014.009-.013.009-.012.01-.011.011-.086-.083.018-.017.019-.015.019-.014.02-.012.019-.011.02-.01.02-.009.019-.008.019-.007.019-.007.018-.006.017-.006.017-.006.016-.006.014-.006.014-.006.012-.006.011-.007.01-.007.008-.007.007-.008.007-.008.005-.009,0-.01,0-.012,0-.014,0-.016v-.04l0-.024,0-.028Z" transform="translate(-1674.797 -763.885)" fill="#565d8d"/>
  </g>
  <g id="Group_24" data-name="Group 24" transform="translate(50.911 16.895)">
    <path id="Path_814" data-name="Path 814" d="M1709.816,762.472h-.12v-.047l0-.045-.006-.042-.008-.039-.01-.036-.011-.034-.013-.031-.014-.028-.015-.025-.015-.022-.016-.019-.016-.016-.015-.013-.015-.011-.014-.008-.013-.005-.012,0h-.017l-.006,0-.006,0-.005,0-.006.006-.006.009-.005.013,0,.017,0,.021v.055l0,.034.007.038.011.042-.115.032-.012-.049-.009-.046,0-.042v-.04l0-.037.005-.034.009-.032.012-.029.017-.026.02-.022.024-.018.026-.013.028-.008.029,0,.029,0,.028.007.027.011.026.014.025.018.024.021.023.024.022.027.021.03.019.033.018.036.016.038.014.041.011.044.009.046.007.049,0,.052Z" transform="translate(-1709.321 -761.926)" fill="#565d8d"/>
  </g>
  <g id="Group_25" data-name="Group 25" transform="translate(49.628 18.84)">
    <path id="Path_815" data-name="Path 815" d="M1695.046,784.334l.051.108h0l-.031.015-.028.015-.027.016-.025.016-.024.016-.022.016-.021.017-.019.017-.018.017-.016.017-.015.018-.014.019-.013.018-.012.019-.011.019-.01.019-.009.02-.009.021-.008.021-.007.021-.006.021-.006.022-.005.022,0,.023,0,.024,0,.024,0,.024,0,.025,0,.025,0,.026v.053l-.12-.005v-.028l0-.028,0-.028,0-.027,0-.027,0-.027,0-.026,0-.026.005-.027.006-.026.007-.026.008-.025.009-.025.01-.025.01-.024.012-.024.013-.024.014-.024.015-.023.016-.023.017-.022.019-.022.02-.022.021-.021.023-.021.025-.02.026-.019.027-.019.029-.018.031-.018.032-.017.034-.017Zm.894.663-.117-.022,0-.023,0-.026v-.056l0-.03,0-.031-.006-.031-.008-.032-.009-.032-.011-.032-.013-.031-.014-.031-.016-.03-.018-.029-.019-.028-.021-.026-.023-.024-.024-.022-.026-.02-.027-.018-.029-.016-.031-.013-.032-.011-.035-.008-.037-.005-.039,0-.041,0-.044.006-.047.01-.049.014-.052.019-.055.024-.051-.108.061-.027.059-.022.058-.017.056-.012.054-.007.052,0,.05,0,.047.006.046.01.043.014.041.018.038.021.036.024.033.026.031.029.028.031.026.032.024.034.021.035.019.036.017.037.015.037.013.037.011.038.009.038.007.037,0,.037,0,.036v.069l0,.033,0,.032Z" transform="translate(-1694.595 -784.248)" fill="#565d8d"/>
  </g>
  <g id="Group_26" data-name="Group 26" transform="translate(51.06 19.451)">
    <path id="Path_816" data-name="Path 816" d="M1711.057,791.561l.09.079h0l-.022.016h-.05l-.027-.024-.007-.016,0-.011v-.078l0-.011,0-.012,0-.012,0-.013,0-.013,0-.014,0-.015,0-.015,0-.015,0-.016,0-.016,0-.016,0-.016,0-.016,0-.017.005-.017.005-.017.005-.018.114.036-.005.016,0,.016,0,.016,0,.016,0,.016,0,.016,0,.015,0,.015,0,.014,0,.014,0,.014,0,.013,0,.013,0,.012,0,.011,0,.011,0,.011v.057h0v-.005l-.005-.013-.025-.022h-.048l-.019.014Zm.721.027-.117.025,0-.016-.005-.015-.006-.014-.007-.013-.008-.012-.009-.012-.01-.011-.011-.01-.012-.009-.013-.008-.013-.007-.014-.006-.015-.005-.016,0-.016,0-.017,0h-.037l-.019,0-.02,0-.021,0-.021.006-.021.008-.022.01-.022.011-.022.013-.022.015-.022.017-.022.018-.022.02-.023.022-.022.024-.09-.079.026-.028.026-.026.027-.024.027-.022.027-.02.027-.018.028-.016.028-.014.028-.012.028-.01.028-.009.027-.006.028,0,.028,0h.052l.026,0,.025,0,.025.006.024.008.023.01.022.012.021.013.02.015.018.016.017.018.015.019.014.021.012.022.01.023.008.024Z" transform="translate(-1711.037 -791.258)" fill="#565d8d"/>
  </g>
  <g id="Group_27" data-name="Group 27" transform="translate(53.566 20.503)">
    <path id="Path_817" data-name="Path 817" d="M1740.028,803.334l.12,0v.071l0,.023,0,.022,0,.022,0,.021,0,.021,0,.021,0,.02-.005.02-.005.019-.006.018-.007.018-.008.017-.009.017-.01.016-.011.015-.012.014-.014.013-.015.012-.016.011-.017.009-.018.008-.019.006-.02,0-.02,0-.021,0h-.044l-.023,0-.023,0,.023-.117.018,0,.016,0h.041l.011,0,.01,0,.009,0,.008,0,.007,0,.007,0,.007-.005.006-.006.006-.007.006-.008.006-.009.005-.01.005-.011.005-.012,0-.013,0-.014,0-.015,0-.016,0-.017,0-.018,0-.019,0-.02,0-.02v-.088Z" transform="translate(-1739.8 -803.334)" fill="#565d8d"/>
  </g>
  <g id="Group_28" data-name="Group 28" transform="translate(51.812 19.997)">
    <path id="Path_818" data-name="Path 818" d="M1719.731,798.009l.079.089-.08-.089.015-.014.014-.015.013-.015.012-.016.011-.017.011-.017.009-.017.008-.017.007-.018.006-.017,0-.017,0-.017,0-.016,0-.016v-.042l0-.012,0-.011,0-.01,0-.009-.006-.008-.007-.008-.008-.007-.01-.006-.011-.005-.013,0-.016,0-.018,0h-.044l-.026,0-.014-.119.033,0h.032l.03,0,.029,0,.027.007.025.009.024.011.021.014.02.016.017.018.015.019.012.021.009.022.007.022,0,.023,0,.023v.047l0,.024,0,.024-.006.023-.007.024-.009.023-.01.023-.011.023-.012.023-.013.022-.015.021-.016.021-.017.02-.018.019-.019.018Zm.4-.039.114-.037-.087.07-.012-.007-.012-.006-.011,0-.011,0-.011,0-.011,0-.011,0h-.054l-.011,0-.011,0-.011,0-.011,0-.011,0-.011,0-.011.005-.011.006-.011.006-.011.007-.011.007-.011.007-.011.008-.011.008-.01.008-.01.008-.011.008-.01.008-.01.009-.01.009-.079-.089.011-.01.011-.01.012-.01.012-.009.012-.01.013-.009.013-.009.013-.009.014-.009.014-.008.014-.008.014-.008.015-.007.015-.007.015-.006.016-.006.016-.005.016,0,.016,0,.017,0,.017,0h.053l.018,0,.018,0,.018,0,.018,0,.018.006.018.007.018.009.018.01-.087.07Zm.114-.037.049.15-.136-.08Zm.451-.365-.03.116h0l-.024-.005-.023,0-.023,0h-.067l-.021,0-.021,0-.021.005-.02.006-.019.007-.019.008-.018.009-.017.01-.016.01-.016.011-.014.011-.014.012-.012.012-.011.013-.01.013-.009.013-.008.013-.006.013-.006.013,0,.012,0,.012,0,.011v.03l0,.009-.114.037-.006-.022,0-.023v-.045l0-.022.005-.021.007-.021.009-.02.01-.02.012-.02.013-.019.015-.018.016-.018.017-.017.018-.016.02-.016.021-.014.022-.014.022-.013.024-.012.024-.01.025-.009.026-.008.027-.007.028-.005.028,0,.029,0h.059l.03,0,.03.005.031.007Zm.588.63-.117.024-.005-.022-.006-.022-.007-.022-.008-.022-.009-.022-.01-.022-.01-.022-.012-.022-.012-.022-.013-.021-.014-.021-.014-.02-.015-.02-.015-.02L1721,797.9l-.017-.019-.018-.018-.018-.018-.019-.017-.019-.016-.019-.016-.02-.015-.02-.014-.02-.013-.02-.013-.021-.012-.021-.011-.021-.01-.021-.009-.021-.008-.021-.007-.021-.006.03-.116.026.007.026.009.026.01.025.011.025.012.025.013.024.014.024.015.023.016.023.016.023.017.022.018.021.019.021.02.02.02.02.021.019.021.019.022.018.022.017.023.017.024.016.024.015.025.014.025.013.025.012.026.011.026.01.026.009.026.008.027.007.027Z" transform="translate(-1719.661 -797.53)" fill="#565d8d"/>
  </g>
  <g id="Group_29" data-name="Group 29" transform="translate(52.672 19.211)">
    <path id="Path_819" data-name="Path 819" d="M1730.3,788.616l-.086.083-.015-.014-.016-.013-.017-.011-.018-.01-.018-.008-.02-.007-.02-.005-.021,0-.022,0h-.068l-.023,0-.023,0-.023,0-.023.005-.023.006-.023.007-.021.008-.021.009-.02.009-.02.009-.018.01-.017.01-.016.01-.014.01-.012.01-.011.01-.009.009-.007.008,0,.007,0,.005-.11-.047.01-.019.011-.017.013-.016.015-.016.016-.015.018-.014.019-.014.02-.013.021-.013.023-.012.023-.012.024-.011.025-.01.026-.009.027-.008.027-.007.028-.006.028-.005.029,0,.029,0h.058l.029,0,.029,0,.029.006.029.008.028.01.027.012.027.014.026.017.024.02Z" transform="translate(-1729.541 -788.503)" fill="#565d8d"/>
  </g>
  <g id="Group_30" data-name="Group 30" transform="translate(51.413 17.641)">
    <path id="Path_820" data-name="Path 820" d="M1715.609,770.479l.007.119h0l-.024,0-.023,0-.023,0-.022.005-.022.006-.021.007-.021.008-.02.008-.019.009-.019.01-.018.01-.017.011-.017.012-.016.012-.015.013-.014.013-.014.013-.012.014-.012.014-.011.014-.01.014-.009.014-.008.014-.007.014-.006.014-.005.014,0,.014,0,.013,0,.013v.035l-.12.011v-.041l0-.021,0-.021,0-.021.006-.02.007-.02.009-.02.01-.019.011-.02.012-.019.013-.019.014-.019.015-.018.016-.018.017-.017.018-.017.019-.016.02-.015.021-.015.022-.014.022-.013.023-.012.024-.012.025-.011.026-.01.027-.009.027-.007.028-.006.028-.005.029,0,.03,0h0Zm.952.47-.118.016h0l0-.014-.005-.015-.007-.015-.01-.016-.013-.017-.015-.017-.018-.017-.02-.017-.022-.017-.024-.017-.026-.017-.028-.016-.029-.016-.03-.015-.031-.015-.032-.014-.033-.013-.034-.013-.034-.012-.035-.011-.034-.01-.035-.01-.035-.009-.034-.008-.034-.007-.033-.006-.032,0-.031,0-.03,0h-.08l-.007-.119h.062l.033,0,.034,0,.034,0,.036.005.036.006.036.007.037.008.037.009.037.01.037.011.037.012.037.013.036.014.036.015.035.015.034.016.034.017.032.018.031.018.03.02.028.02.027.021.025.022.023.023.021.024.019.025.016.026.013.028.01.029.006.03Zm-.213.272-.042-.112h0l.008,0,.008,0,.008,0,.008,0,.008,0,.007,0,.007,0,.007-.005.007-.005.006-.005.006-.006.006-.006.005-.006.005-.006.005-.006,0-.006,0-.005,0-.006,0-.006,0-.005,0-.006,0,0,0-.005,0,0v-.021h0l.118-.016v.041l0,.01,0,.01,0,.009,0,.01,0,.009,0,.009,0,.01-.005.009-.005.009-.006.009-.006.009-.007.009-.007.009-.007.009-.008.009-.008.009-.009.008-.009.008-.009.008-.01.008-.01.007-.01.007-.011.007-.011.007-.012.006-.012.006-.013.005-.012.005Zm-.4-.028,0,.12-.042-.1.01-.009.011-.008.011-.007.012-.006.011,0,.012,0,.012,0,.011,0,.012,0,.013,0,.013,0,.012,0,.013,0,.013,0,.013,0,.013,0,.014,0,.013,0,.013,0,.014,0,.013,0,.013,0,.013,0,.013,0,.013,0,.012,0,.012,0,.012,0,.011,0,.011,0,.011,0,.011,0,.042.112-.014.005-.015,0-.014,0-.015,0-.015,0-.015,0-.015,0-.014,0-.015,0-.015,0-.014,0-.014,0-.014,0-.014,0h-.014l-.013,0-.013,0-.012,0-.011,0-.012,0-.011,0-.01,0-.009,0-.009,0-.009,0-.007,0-.006,0-.006,0,0,0,0,0,0,0h0l-.042-.1Zm0,.12-.158,0,.116-.108Zm.334.141-.117-.025V771.4l0,0,0,0,0,0,0,0,0,0,0,0,0,0-.005,0-.006,0-.006,0-.008,0-.008,0-.009,0-.009,0-.01,0-.01,0-.011,0-.011,0-.011,0-.012,0-.012,0h-.066l0-.12h.068l.016,0,.016,0,.016,0,.016,0,.015,0,.015,0,.014,0,.015.005.014.006.013.006.013.007.013.007.012.008.011.009.011.009.01.011.01.01.009.012.008.013.007.013.006.013.005.014,0,.015,0,.015v.047Z" transform="translate(-1715.083 -770.478)" fill="#565d8d"/>
  </g>
  <path id="Path_821" data-name="Path 821" d="M1585.046,597.656c.346.145.3.007.6.583.166.32.335.573.5.871l1.1,1.671a2.347,2.347,0,0,0-1.2-.115c-.554.144-.958.68-.778,1.14.113.287,1.143.831,1.242.919-.034.351-.168.9.509,1.056l.111-.579c.036-.223.068-.331.222-.349a1.329,1.329,0,0,0,.18-.428l-.024-.115a8.944,8.944,0,0,1-1.281-.751c.035-.047.006-.142.335-.089.166.026.3.045.452.062.244.026.49.176.806.222.281.041.63-.048.789-.012.294.067.405.225.807.2a.635.635,0,0,0,.151-.329l-.269-.263c-.078-.109-.025,0-.075-.133a7.826,7.826,0,0,1-.822-.582,4.755,4.755,0,0,1-.725-.72,9.371,9.371,0,0,1-1.021-1.661c-.243-.2-.682-1.366-.97-1.6a.438.438,0,0,0-.473-.052c-.215.134-.3.214-.651-.446-.157-.291-.146-.408-.054-.834.414.155.774.672,1.264.774.143-.167.125-.077.218-.153.235-.193.059-.543,0-.844a7.48,7.48,0,0,1-.278-1.447c.363.088,1.372.478,1.571.055-.288-.216-.448-.9-.631-1.331a22.894,22.894,0,0,0-.9-2.354c-.167-.126-.21-.724-.357-.879a.428.428,0,0,1-.36-.593c-.073-.057-.211.041-.28.188a1.532,1.532,0,0,0,.09.9,12.519,12.519,0,0,0,.579,1.447c.294.713.5,1.5.646,1.735a.593.593,0,0,1,.113.363c-.695-.147-.362-.862-1.145-.833-.162.161-.182.175-.2.507-.025.648.3.938.232,1.836-.278-.106-.513-.343-.871-.313-.56.047-.757,1.587-.309,2.286a2.184,2.184,0,0,0,1.159.988Z" transform="translate(-1543.678 -586.744)" fill="#565d8d" fill-rule="evenodd"/>
  <path id="Path_822" data-name="Path 822" d="M1459.533,731.813l4.346.616c-.117-.159-.661-.224-.889-.315-.282-.113-.621-.211-.877-.33.1-.422.1-.5-.284-.612-.361-.105-1.1-.443-1.511-.53-.3-.063-.6-.1-.888-.162a.177.177,0,0,1-.009-.036l-.038-.225c-.183-.066-.378-.088-.546-.162-.311-.137-.135-.126-.223-.249-.163-.227-.565-.246-.667-.538.206-.022.833.049,1.188.031.271-.014.25-.121.267-.155-.191-.149-.394-.135-.528-.239-.334-.261-.646-.206-.779-.412a.662.662,0,0,1-.264-.527c.045-.159.268-.239.481-.208a1.441,1.441,0,0,1,.494.225c-.031-.126-.2-.22-.354-.261a.754.754,0,0,0-.631.059c-.245.2.137.675.079.751-.527-.108-1.445-.2-.94.719a2.334,2.334,0,0,0,.823.781c.131.058.22.057.328.118.156.088,0,.068.262.13s.56.107.834.166c.072.252.145.192.443.319.227.1.423.135.665.216.219.074.43.139.651.219s.474.161.539.3c-.179.2-.212.065-.822-.181-.323-.13-.6-.248-.937-.371-.4-.144.021.126-.908-.263-.373-.156-.456-.024-.531.076-.042.057-.119.054-.152.1.088.16.258.207.393.342C1458.89,731.438,1459.2,731.586,1459.533,731.813Z" transform="translate(-1427.9 -713.771)" fill="#565d8d" fill-rule="evenodd"/>
  <path id="Path_823" data-name="Path 823" d="M1534.759,666.9c-.069-.148-.19-.021-.2-.053,0-.009-.02.006-.03.005a2.852,2.852,0,0,0-.413-1.637c-.079.294-.037.329-.152.793-.059.238.022.449-.032.73l-.168.037a29.139,29.139,0,0,0-2.051,2.387c-.125.133-.86.837-.486,1.179a.461.461,0,0,0,.3.086.644.644,0,0,0,.063-.017l.029-.012c.215-.087.224-.152.305-.3a2.2,2.2,0,0,1,.365-.448,23.914,23.914,0,0,0,1.685-2.173c.208.143.1.166.245.3a1.071,1.071,0,0,0,.426.156c.182.378.094.63.417,1.148a.843.843,0,0,0,1.07.44c-.029-.141-.056-.051.009-.187,0-.009.011-.019.016-.028l.093-.166a.908.908,0,0,1-.123-.1c-.228-.211-.28-.183-.4-.4a6.488,6.488,0,0,1-.424-1.432c-.054-.337-.024-.471-.466-.529l-.08.227Z" transform="translate(-1495.738 -656.745)" fill="#565d8d" fill-rule="evenodd"/>
  <path id="Path_824" data-name="Path 824" d="M1561.321,731.729l.16,0c.2-.268.524-.023.641-.968a.353.353,0,0,0-.331-.453h-.017l-.017,0-.13.034-.028,0-.061-.019c0-.013-.023-.007-.041-.014l0-.37-.251-.139a.275.275,0,0,0-.349.072c-.239.268-.168.695-.339.875-.008.008-.183.155-.185.156-.119.086-.1.094-.279.031-.228-.146.143-.272-.346-.582-.1-.064-.04.024-.094-.153l-.06.2-.087-.148c-.085.217-.149.088-.207.381a1.235,1.235,0,0,0,0,.429.724.724,0,0,0,.4.557c.688.389.644-.1,1.172.005.164.034.276.077.454.105Z" transform="translate(-1521.438 -715.673)" fill="#565d8d" fill-rule="evenodd"/>
  <path id="Path_825" data-name="Path 825" d="M1524.515,735.511c.1.038.1.082.233.048a.479.479,0,0,0,.328-.313c.156-.334.1-.151.339-.323.161-.116.173-.219.367-.232.155.146.073.208.3.678.089.025.22.036.274.046.2.037-.012-.025.166.089.076-.294.018-.088.111-.172,0,0,.052-.034.072-.053l.022-.019c.114-.114.111-.287.145-.468.081-.432.1-.854-.417-.769-.629.1-.35-.4-.707-.6-.521-.292-.862.468-1.065.771l-.423.75c-.045.088-.015-.01-.041.076-.039.135-.025-.01.021.159,0,.01.007.022.01.032l.032.128c.007.028.018.089.027.132Z" transform="translate(-1489.416 -718.95)" fill="#565d8d" fill-rule="evenodd"/>
  <path id="Path_826" data-name="Path 826" d="M1513.333,692.577c.005,0,.056-.024.066-.026l.231.028c.128.029.141.035.253-.1a22,22,0,0,0,1.122-1.911c-.617-.424-.915.218-1.161.433-.333-.08-.48-.156-.781-.032-.35.146-.939.481-.926.914.01.339.352.347.576.38.2-.341.332-.462.613-.49C1513.094,692.689,1513.36,692.151,1513.333,692.577Z" transform="translate(-1478.406 -679.765)" fill="#565d8d" fill-rule="evenodd"/>
  <path id="Path_827" data-name="Path 827" d="M1541.256,771.9a24.689,24.689,0,0,0,2.452.336c.046-.03-.058-.107.126-.037a7.256,7.256,0,0,1-1.607-.606,2.958,2.958,0,0,1-.662-.408c-.262-.225-.266-.332-.69-.328-.2.261-.283.427.02.771A1.076,1.076,0,0,0,1541.256,771.9Z" transform="translate(-1504.476 -753.185)" fill="#565d8d" fill-rule="evenodd"/>
  <path id="Path_828" data-name="Path 828" d="M1502.966,733.8c-.462-.069-1.458,1.094-1.33,1.285.18.267.647-.356.749-.5C1502.51,734.409,1502.912,733.935,1502.966,733.8Z" transform="translate(-1468.809 -719.356)" fill="#565d8d" fill-rule="evenodd"/>
  <path id="Path_829" data-name="Path 829" d="M1607.783,600.191a6.583,6.583,0,0,1,.78.767,2.907,2.907,0,0,1,.235.413,3.005,3.005,0,0,1-.31-.365c-.237-.263-.709-.595-1.01-.89a3.734,3.734,0,0,1-.4-.459,2.97,2.97,0,0,1-.193-.308c-.073-.146-.365-.882-.233-1.011.021.01.143.418.161.468a3.394,3.394,0,0,0,.225.458c.068.115.138.219.216.326a5.1,5.1,0,0,0,.341.41C1607.659,600.066,1607.72,600.129,1607.783,600.191Zm4.079-3.622a3.033,3.033,0,0,1-.325.1c-.133.038-.68.335-.685.335a1.674,1.674,0,0,1,.657-.441,1.949,1.949,0,0,0,.893-.537,1.58,1.58,0,0,0,.355-.659c0-.008.013-.052.015-.055.03-.15.036-1.405.037-1.408.054-.013.145.414.15.445a2.481,2.481,0,0,1,.042.657.827.827,0,0,1,.081-.176,3.943,3.943,0,0,1-.148.742,1.535,1.535,0,0,1-.251.524,2.523,2.523,0,0,1-.547.508,7.531,7.531,0,0,1-.921.506l-.026.014a3.139,3.139,0,0,0-.669.44,1.67,1.67,0,0,0-.46.7,1.106,1.106,0,0,0-.057.493c-.113-.078-.047-.417-.019-.519a1.71,1.71,0,0,1,.449-.772,3.073,3.073,0,0,1,.683-.485C1611.373,596.846,1611.619,596.721,1611.862,596.569Zm-1.261-4.205c-.01.079-.1.555-.2.573-.016-.02.038-.529.037-.615s-.01-.151-.018-.229a2.3,2.3,0,0,1-.052-.51c.04-.018.124.14.136.164a.934.934,0,0,1,.1.345,1.213,1.213,0,0,1,0,.24S1610.6,592.359,1610.6,592.363Zm-1.854,4.106a2.882,2.882,0,0,0,.1.814c.043.15.474,1.155.474,1.167-.18-.07-.539-.96-.6-1.134a2.375,2.375,0,0,1-.079-1.3,3.09,3.09,0,0,1,.287-.692,6.415,6.415,0,0,1,1.118-1.225c.029.066-.264.418-.307.468a5.49,5.49,0,0,0-.686.907,3.228,3.228,0,0,0-.246.592,1.629,1.629,0,0,0-.068.406Zm1.147,6.176c.011-.054.1-.561.161-.558.1.041-.042.835-.063.95-.047.223-.221.276-.158-.051C1609.858,602.874,1609.867,602.757,1609.894,602.645Zm.471.034a3.042,3.042,0,0,0,.012.342.317.317,0,0,0,.011.062,4.867,4.867,0,0,1,.294-1.45,1.555,1.555,0,0,1,.493-.444c.04-.025.08-.048.121-.071.149-.079.962-.426,1.137-.332.123-.05.247-.1.377-.139.218-.072.433-.132.656-.189.1-.026.208-.051.313-.075.07-.016.4-.089.772-.163.078-.053.154-.11.226-.169a2.454,2.454,0,0,0,.292-.293,2.8,2.8,0,0,0,.45-1c.126.221-.2.893-.343,1.092a2.752,2.752,0,0,1-.276.306,3.781,3.781,0,0,1,.761-.106,7.237,7.237,0,0,1-.962.278,3.512,3.512,0,0,1-.357.238c-.056.032-.112.062-.169.091-.1.048-1.131.5-1.229.39-.03-.055.212-.147.238-.158.328-.142.645-.256.964-.424-.312.078-.568.14-.637.159-.23.06-.471.141-.7.218-.183.062-.36.127-.538.2-.076.033-.906.51-.91.51-.034-.085.331-.366.384-.4a2.936,2.936,0,0,1,.342-.2l-.1.036a5.441,5.441,0,0,0-.606.3c-.054.031-.107.063-.159.1a1.622,1.622,0,0,0-.408.35.564.564,0,0,0-.035.057c-.09.2-.342,1.451-.351,1.459a.119.119,0,0,1-.03-.058.035.035,0,0,1-.019,0,.071.071,0,0,1-.037-.023.289.289,0,0,1-.067-.119,1.37,1.37,0,0,1-.074-.4,2.6,2.6,0,0,1,0-.312c0-.051.034-.444.137-.424.042.008.047.087.049.118a2.06,2.06,0,0,1-.005.338c-.006.094-.013.187-.018.281C1610.365,602.651,1610.365,602.668,1610.365,602.679Zm3.368,1.469c.049.033.1.063.146.091l.036-.017c0,.008,0,.018-.014.03l.032.017a.974.974,0,0,0,.4.123.811.811,0,0,0,.438-.106c.1-.058.56-.436.56-.437-.012.116-.414.459-.511.525a.917.917,0,0,1-.493.147,1.077,1.077,0,0,1-.461-.12q-.053-.026-.1-.054a.532.532,0,0,1-.137.034,1.177,1.177,0,0,1-.412-.038c-.309-.077-.594-.2-.9-.293a2.587,2.587,0,0,0-.985-.119,1.943,1.943,0,0,0-.365.066,1.545,1.545,0,0,0-.36.153,1.135,1.135,0,0,0-.432.443c-.044.094-.122.585-.128.591-.123-.051-.041-.52,0-.633l.006-.016a1.155,1.155,0,0,1,.463-.535,1.555,1.555,0,0,1,.465-.2,2,2,0,0,1,.339-.052,2.429,2.429,0,0,1,.652.052,3.181,3.181,0,0,1,.392.107c.3.106.578.239.878.335a1.288,1.288,0,0,0,.381.067.66.66,0,0,0,.072-.006c-.09-.054-.175-.111-.265-.174-.194-.136-.378-.271-.584-.391a2.071,2.071,0,0,0-.317-.149,1.365,1.365,0,0,0-.526-.084c-.078,0-.672.13-.674.129.016-.094.471-.237.551-.255.037-.008.074-.014.112-.019a1.367,1.367,0,0,1,.595.062,2,2,0,0,1,.4.188,6.6,6.6,0,0,1,.541.384C1613.595,604.05,1613.663,604.1,1613.732,604.149Zm.509-5.7q-.008.038-.015.075a1.124,1.124,0,0,1-.011.313,1.531,1.531,0,0,1-.07.257c-.007.081-.013.163-.018.247a.682.682,0,0,1-.234.481c-.006-.108.134-.14.134-.479-.116.2-.375.6-.473.621,0,0,.389-.669.427-.754.016-.041.031-.08.044-.119a4.242,4.242,0,0,1,.051-.61c0-.015-.007-.03-.011-.046a1.728,1.728,0,0,1-.008-.825,2,2,0,0,1,.254-.621c.032-.051.065-.1.1-.147a1.652,1.652,0,0,1,.642-.522c.139-.055.733-.2.817-.05-.005.005-.535.09-.6.115a1.617,1.617,0,0,0-.147.069,1.7,1.7,0,0,0-.562.5,1.79,1.79,0,0,0-.122.186,2.023,2.023,0,0,0-.21.513,1.852,1.852,0,0,0-.055.381v.028q.032-.114.073-.229c.015-.04.031-.078.047-.117a1.955,1.955,0,0,1,.311-.5c.067-.073.454-.42.557-.342,0,.015-.272.248-.308.285s-.086.1-.127.156a2.632,2.632,0,0,0-.283.516c-.01.023-.02.046-.029.069A4.164,4.164,0,0,0,1614.241,598.448Zm-5.349,10.222-.339-.094c.087-.107,0-.046.134-.1a2.519,2.519,0,0,1,.526-.233C1609.135,608.6,1609.209,608.234,1608.892,608.67Zm-.385-.545c.074-.221.122-.233.3-.3a.818.818,0,0,1,.4-.088A1.112,1.112,0,0,1,1608.507,608.125Zm1.321-1.681-.1.273C1609.3,606.644,1609.224,606.26,1609.828,606.444Zm7.269-4.82c-.151-.075.124-1.241.124-1.492a5.832,5.832,0,0,0-.059-.751c-.034-.249-.079-.5-.1-.746a2.245,2.245,0,0,0-.022-.381c-.186.081-.086.957-.066,1.109a5.743,5.743,0,0,1-.379,2.97c-.594,1.3-.78,1.6-2.723,2.923a11.993,11.993,0,0,1-2.169.847c-1.11.3-1.046.085-1.239.1a1.416,1.416,0,0,1-1.07.005c-.077-.021-.167-.1-.258-.124.269,0,.587.084.795-.1-.208-.026-.664-.058-.833-.091a1.5,1.5,0,0,0-.643-.072c-.034.068-.044.122.292.242s.164.052.343.275a.648.648,0,0,0-.425.012c.01.172.115.2.266.3-.186.245-.206.011-.292.272.241.072.338-.032.588-.026a2.482,2.482,0,0,1-.527.407l-.007.12c.241-.015.435-.19.7-.233a1.351,1.351,0,0,1-.733.5c-.1-.135-.021-.254-.252-.292l-.192.02c-.217.042-.059-.049-.22.1a.877.877,0,0,1-.088-.441.683.683,0,0,0-.016-.245c-.055-.209-.037,0-.079-.221l-.091-.042c-.235-.095.089.159-.164-.023-.056-.034-.114-.019-.123.061-.083-.065-.1-.1-.19,0a.845.845,0,0,0-.111.226,4.853,4.853,0,0,0-1.087-.31c-.388-.045-.567.172-.624.524.3.253-.058.09.6.248.7.168.637.246.644.476s.067.1.073.307c.289.171.247-.05.535.209.588.53.953.058.961.054.143-.06.105.031.527-.077-.155.15-.271.058-.454.2.053.141.075.1.209.194s.2.3.459.087c.066-.055.058-.069.106-.12l.074-.067c.006-.015.017-.015.027-.02.026.019.048.033.04.074.012.089-.053.019-.049.144a3.156,3.156,0,0,0,.143.439,9.513,9.513,0,0,0,.3-1.47l.3-.93c.079-.217.018-.131-.012-.285l.223-.025c.191,0,.579-.039.676-.047a4.468,4.468,0,0,0,2.228-.538,9.1,9.1,0,0,0,2.439-1.538,5.281,5.281,0,0,0,1.629-2.744Zm-.927-5.393a6.251,6.251,0,0,1,.544,2.546c-.433-1.623-.178-1.755-1.216-3.434,0,0-.022-.036-.026-.041a9.64,9.64,0,0,0-.78-1.049c-.029-.032-.444-.447-.525-.537.036.13.1.408.048.452,0,0-.15-.4-.18-.464a1.235,1.235,0,0,0-.261-.346,1.662,1.662,0,0,0-.222-.167c-.1-.06-.656-.3-.665-.33.008-.046.277,0,.305,0a1.269,1.269,0,0,1,.479.188,1.187,1.187,0,0,1,.223.192c.006,0,.058.069.066.079a1.207,1.207,0,0,1,.19.337l.011.036c.025-.011.074.009.133.046a1.161,1.161,0,0,1,.363.192,4.769,4.769,0,0,1,.966.989s.015.021.018.025a6.016,6.016,0,0,1,.47.749,5.869,5.869,0,0,1,.67,2.092,12.561,12.561,0,0,0-.97-2.276A7.29,7.29,0,0,1,1616.17,596.231Zm-2.918-3.757a2.737,2.737,0,0,1,.627.43,2.22,2.22,0,0,1,.257.357c-.021.018-.308-.273-.331-.293a6.693,6.693,0,0,0-.952-.508c-.119-.052-.238-.1-.358-.151-.051-.02-.587-.2-.841-.278a1.6,1.6,0,0,1,.151.219l.007.011c.031.052.062.1.1.152l.013.017a.366.366,0,0,0,.077.065.041.041,0,0,0,.025.008.254.254,0,0,0,.054-.006c.008,0,.042-.013.053-.016a.053.053,0,0,1,.019,0s.02.009.028.01.025.006.027.026a.072.072,0,0,1-.006.038.19.19,0,0,1-.055.08.274.274,0,0,1-.1.06.23.23,0,0,1-.132.007.457.457,0,0,1-.2-.107.74.74,0,0,1-.166-.19h0c-.047-.086-.194-.411-.03-.462a.09.09,0,0,1,.062.015,1.2,1.2,0,0,1,.284,0,2.72,2.72,0,0,1,.742.2c.111.046.218.095.325.148s.217.111.324.171Zm-4.176-1.412a5.551,5.551,0,0,1,1.415.42s-1.3-.252-1.542-.273a3.587,3.587,0,0,0-.639-.007,1.708,1.708,0,0,0-.219.033.437.437,0,0,0-.157.066s-.009.011-.01.009,0,0,0,0,0,.005,0,.005a.118.118,0,0,0,.035.036.445.445,0,0,0,.09.05c.037.027.338.106.336.13-.032.049-.327,0-.378-.012a.487.487,0,0,1-.074-.026c-.017-.007-.033-.016-.049-.023a.261.261,0,0,1-.085-.072.165.165,0,0,1-.024-.05.15.15,0,0,1,0-.058.177.177,0,0,1,.05-.1.492.492,0,0,1,.227-.121,1.333,1.333,0,0,1,.288-.049,3.256,3.256,0,0,1,.635.028l.107.017Zm-1.911.064a.8.8,0,0,1,.187.058c.068.032.44.238.448.309-.024.008-.427-.158-.5-.179a.633.633,0,0,0-.16-.031.22.22,0,0,0-.1.014.171.171,0,0,0-.066.052.378.378,0,0,0-.03.044.531.531,0,0,0-.033.069c-.036.051-.125.474-.171.47s-.04-.227-.039-.255a.9.9,0,0,1,.042-.279.556.556,0,0,1,.057-.118.463.463,0,0,1,.039-.051.321.321,0,0,1,.149-.1.384.384,0,0,1,.177-.007Zm-1.3,2.2c0,.011.028.071.029.076a2.545,2.545,0,0,1,.081.313.608.608,0,0,0,.2.291,5.765,5.765,0,0,1,.552.549,5.828,5.828,0,0,1-.628-.463.752.752,0,0,1-.254-.338,2.976,2.976,0,0,0-.09-.294,1.792,1.792,0,0,1-.152-.887c.006-.074.016-.144.029-.217.029-.141.278-1,.424-1.049a2.113,2.113,0,0,1-.111.473,5.823,5.823,0,0,0-.137.606c-.012.083-.021.162-.026.246A1.807,1.807,0,0,0,1605.865,593.321Zm.946.973a1.8,1.8,0,0,0,.214.295c.239.236,1.01.632,1.039.682a3.524,3.524,0,0,1-1.143-.587,2.054,2.054,0,0,1-.49-.841c-.027-.087-.05-.172-.069-.261a3.788,3.788,0,0,1-.076-.745c0-.048.006-.661.01-.667.093.024.129.424.132.5,0,.053.005.1.01.157a6.055,6.055,0,0,0,.112.76c.015.068.032.133.052.2a2.418,2.418,0,0,0,.208.5Zm1.514,2.817c.013.1.028.192.049.289.3,1.192.691,1.2.954,1.757-.447-.19-.967-1.264-1.1-1.725a3.021,3.021,0,0,1,0-1.5,3.258,3.258,0,0,1,.138-.411,5.207,5.207,0,0,1,.574-.786c.021-.034.228-.535.24-.545.114.084-.086.524-.131.609,0,.007-.039.069-.046.079a5.237,5.237,0,0,0-.474.709,3.55,3.55,0,0,0-.142.457,3.128,3.128,0,0,0-.065,1.065Zm-.972,3.292c.208.178.427.33.643.5s.828.735.815,1.023a4.808,4.808,0,0,0-.892-.921,4.927,4.927,0,0,1-.975-.773,3.45,3.45,0,0,1-.4-.564,2.066,2.066,0,0,1-.216-.565,1.393,1.393,0,0,1,0-.6c.024-.094.193-.547.3-.549,0,.011-.16.5-.171.573,0,0,0,.018,0,.022a1.462,1.462,0,0,0,.041.513,2.282,2.282,0,0,0,.241.568,3.96,3.96,0,0,0,.341.489A2.569,2.569,0,0,0,1607.353,600.4Z" transform="translate(-1563.56 -589.006)" fill="#565d8d" stroke="#565d8d" stroke-miterlimit="22.926" stroke-width="0.34"/>
  <path id="Path_830" data-name="Path 830" d="M1614.863,621.377a.124.124,0,0,1-.011-.021.019.019,0,0,1,0-.014c.005-.011.011-.009.015-.029s.007-.031.029-.038a.085.085,0,0,1,.04-.006.139.139,0,0,1,.075.021.061.061,0,0,1,.017.016.06.06,0,0,1,.009.045.066.066,0,0,1-.013.038.061.061,0,0,1-.015.018.025.025,0,0,1-.034.005.031.031,0,0,0-.031-.006l-.016,0-.017,0h-.009a.027.027,0,0,1-.028-.011.05.05,0,0,1-.006-.01S1614.863,621.381,1614.863,621.377Zm-1.255-8.9c.007-.023.012-.046.016-.069a.338.338,0,0,0-.016-.129.542.542,0,0,0-.086-.174.3.3,0,0,0-.143-.11.257.257,0,0,0-.1-.012c-.02,0-.134.027-.136.017-.006-.029.106-.075.127-.082a.311.311,0,0,1,.129-.008.374.374,0,0,1,.213.121.644.644,0,0,1,.128.206.464.464,0,0,1,.034.2.7.7,0,0,1-.083.267.362.362,0,0,1-.163.148.323.323,0,0,1-.174.024l-.023,0a.416.416,0,0,1-.173-.078.447.447,0,0,1-.124-.141.35.35,0,0,1-.047-.179.284.284,0,0,1,.067-.179c.025-.026.163-.133.2-.09,0,.016-.085.108-.108.155a.2.2,0,0,0-.019.068.187.187,0,0,0,0,.041.242.242,0,0,0,.043.1.333.333,0,0,0,.086.082.282.282,0,0,0,.1.043.189.189,0,0,0,.031,0,.159.159,0,0,0,.063-.011.2.2,0,0,0,.088-.076A.509.509,0,0,0,1613.607,612.472Zm-1.556,2.781c0,.028,0,.054,0,.081a.064.064,0,0,0,.008.022.222.222,0,0,0,.034.048.357.357,0,0,0,.129.088.232.232,0,0,0,.152.011.237.237,0,0,0,.08-.042c.018-.009.092-.095.1-.087s-.041.119-.054.137a.292.292,0,0,1-.094.077.316.316,0,0,1-.223.017.467.467,0,0,1-.19-.1.375.375,0,0,1-.063-.075.2.2,0,0,1-.03-.091.825.825,0,0,1,.027-.273.458.458,0,0,1,.111-.19.4.4,0,0,1,.1-.071.358.358,0,0,1,.068-.025.407.407,0,0,1,.18,0,.447.447,0,0,1,.16.066.388.388,0,0,1,.117.119.28.28,0,0,1,.046.155c0,.028-.029.155-.078.143a1.241,1.241,0,0,1-.023-.131.229.229,0,0,0-.051-.084l0,0a.332.332,0,0,0-.09-.062.345.345,0,0,0-.108-.031.27.27,0,0,0-.1.008.222.222,0,0,0-.052.022.208.208,0,0,0-.038.028.3.3,0,0,0-.074.116A.61.61,0,0,0,1612.051,615.253Zm5.694,3.445c0,.027-.036.139-.076.13s-.056-.141-.092-.145c0,0,0,0,0,.008s0,0,0,0-.025-.07-.006-.106a.077.077,0,0,1,.072-.035.09.09,0,0,1,.058.015.132.132,0,0,1,.035.041.129.129,0,0,1,.015.054A.144.144,0,0,1,1617.745,618.7Zm-2-7.006a.712.712,0,0,0,.034.167.376.376,0,0,0,.076.137.164.164,0,0,0,.1.054.284.284,0,0,0,.163-.041.143.143,0,0,0,.05-.046.288.288,0,0,0,.039-.082.5.5,0,0,0,.017-.21.338.338,0,0,0-.024-.088.152.152,0,0,0-.037-.054.081.081,0,0,0-.049-.019c-.016-.007-.093.02-.1.015,0-.022.074-.055.094-.06a.125.125,0,0,1,.085.016.19.19,0,0,1,.067.07.365.365,0,0,1,.042.106.556.556,0,0,1,0,.253.409.409,0,0,1-.046.116.252.252,0,0,1-.085.087.408.408,0,0,1-.235.068.3.3,0,0,1-.19-.088.5.5,0,0,1-.116-.185.87.87,0,0,1-.052-.23.8.8,0,0,1,.079-.45.371.371,0,0,1,.066-.085.278.278,0,0,1,.093-.059.265.265,0,0,1,.114-.017.347.347,0,0,1,.12.032.627.627,0,0,1,.068.034.822.822,0,0,1,.3.255.654.654,0,0,1,.115.359c0,.089-.083.658-.182.695a2.323,2.323,0,0,1,.033-.5,1.128,1.128,0,0,0-.006-.183.54.54,0,0,0-.1-.268.773.773,0,0,0-.294-.22l-.01,0a.171.171,0,0,0-.058-.017.089.089,0,0,0-.038,0,.105.105,0,0,0-.035.022.2.2,0,0,0-.036.045.652.652,0,0,0-.071.349S1615.746,611.689,1615.746,611.692Zm4.331,3.125c.006-.023.011-.046.016-.069a.33.33,0,0,0-.016-.129.54.54,0,0,0-.086-.174.3.3,0,0,0-.143-.11.254.254,0,0,0-.1-.013c-.021,0-.131.026-.136.017,0-.029.106-.075.127-.082a.312.312,0,0,1,.129-.008.375.375,0,0,1,.213.121.637.637,0,0,1,.127.206.454.454,0,0,1,.033.2.7.7,0,0,1-.083.266.363.363,0,0,1-.163.148.326.326,0,0,1-.174.024l-.023,0a.417.417,0,0,1-.173-.078.445.445,0,0,1-.124-.14.351.351,0,0,1-.047-.179.286.286,0,0,1,.068-.179c.025-.026.163-.133.2-.09,0,.016-.085.108-.108.155a.194.194,0,0,0-.019.068.2.2,0,0,0,0,.04.244.244,0,0,0,.044.1.33.33,0,0,0,.085.082.28.28,0,0,0,.1.043.2.2,0,0,0,.031,0,.159.159,0,0,0,.062-.011.2.2,0,0,0,.089-.076A.513.513,0,0,0,1620.077,614.816Zm-1.4.906c0,.027,0,.054,0,.081a.062.062,0,0,0,.007.021.22.22,0,0,0,.035.048.356.356,0,0,0,.129.088.222.222,0,0,0,.232-.031c.018-.008.092-.095.1-.087s-.041.119-.054.137a.289.289,0,0,1-.095.077.315.315,0,0,1-.223.017.468.468,0,0,1-.19-.1.366.366,0,0,1-.063-.075.2.2,0,0,1-.03-.091.824.824,0,0,1,.027-.273.449.449,0,0,1,.111-.19.366.366,0,0,1,.168-.1.405.405,0,0,1,.18,0,.45.45,0,0,1,.16.066.394.394,0,0,1,.117.119.284.284,0,0,1,.045.155c0,.028-.029.155-.078.143-.011-.009-.012-.1-.023-.131a.233.233,0,0,0-.051-.084l0,0a.336.336,0,0,0-.09-.062.349.349,0,0,0-.108-.031.269.269,0,0,0-.1.008.232.232,0,0,0-.052.022.215.215,0,0,0-.037.028.3.3,0,0,0-.074.116A.626.626,0,0,0,1618.675,615.722Zm-2.616-2.045c-.032-.026.029-.209.048-.24a.364.364,0,0,1,.149-.121.5.5,0,0,1,.195-.044.636.636,0,0,1,.2.027.592.592,0,0,1,.182.09.406.406,0,0,1,.126.152.324.324,0,0,1,.023.207.481.481,0,0,1-.12.222.926.926,0,0,1-.247.2.518.518,0,0,1-.146.053.4.4,0,0,1-.094.007.377.377,0,0,1-.2-.07.473.473,0,0,1-.136-.153.585.585,0,0,1-.069-.388.376.376,0,0,1,.074-.171c.017-.02.124-.117.156-.077,0,.008-.064.093-.079.125-.215.869.641.374.559.17S1616.119,613.441,1616.059,613.678Zm6.2,3.489a1.018,1.018,0,0,1-.006.145.882.882,0,0,1-.058.23.421.421,0,0,1-.1.156.189.189,0,0,1-.035.025.121.121,0,0,1-.046.014.1.1,0,0,1-.052-.01.111.111,0,0,1-.039-.032.2.2,0,0,1-.034-.087c0-.011-.006-.12.011-.121a.532.532,0,0,1,.05.106.117.117,0,0,0,.034.051s.01.005.013.007.007,0,.01,0l.011-.007.013-.014a.469.469,0,0,0,.053-.129,1.027,1.027,0,0,0,.026-.2.866.866,0,0,0-.026-.224.587.587,0,0,0-.092-.2l-.006-.009a.52.52,0,0,0-.172-.147,2.962,2.962,0,0,1-.332-.147c.017-.052.219-.039.259-.034a.623.623,0,0,1,.142.033.559.559,0,0,1,.257.2l.007.01a.64.64,0,0,1,.1.262A.774.774,0,0,1,1622.259,617.167Zm-3.719.385-.042.016a.587.587,0,0,1-.177.026.843.843,0,0,0-.154.018.779.779,0,0,0-.084.018l-.026.006c-.01,0-.009,0-.018-.006s-.012-.012-.006-.024a.088.088,0,0,1,.025-.03.331.331,0,0,1,.086-.055,1.228,1.228,0,0,1,.174-.059.42.42,0,0,0,.131-.041.162.162,0,0,0,.062-.048.114.114,0,0,0,.022-.049.243.243,0,0,0,0-.054.064.064,0,0,1,0-.009.628.628,0,0,0-.045-.175c-.016-.04-.085-.168-.062-.2s.135.059.154.081a.546.546,0,0,1,.042.05.475.475,0,0,1,.093.236.285.285,0,0,1,0,.037.319.319,0,0,1-.015.093.272.272,0,0,1-.075.117.334.334,0,0,1-.089.057Zm1.081,2.125a.861.861,0,0,0-.132.111.477.477,0,0,0-.073.169,1.2,1.2,0,0,0-.04.254.39.39,0,0,0,.006.086s0,.013,0,.014a.066.066,0,0,0-.012-.006h-.01l0,0s.016-.008.018-.01.1-.1.109-.1-.053.126-.067.145a.134.134,0,0,1-.035.029.054.054,0,0,1-.017.006.055.055,0,0,1-.018,0,.057.057,0,0,1-.03-.02.121.121,0,0,1-.021-.037.376.376,0,0,1-.023-.109,1.077,1.077,0,0,1,.015-.287.551.551,0,0,1,.094-.24.89.89,0,0,1,.186-.164.283.283,0,0,1,.086-.034.169.169,0,0,1,.09.007.158.158,0,0,1,.071.052.217.217,0,0,1,.037.071.448.448,0,0,1,.019.158.847.847,0,0,1-.081.326.4.4,0,0,1-.086.123.179.179,0,0,1-.068.041.135.135,0,0,1-.093,0c.064-.175.085-.167.041-.16a.03.03,0,0,0-.012.005s.009-.007.015-.015a.572.572,0,0,0,.064-.132c.024-.037.067-.285.116-.287.069.009.018.286.011.322a.13.13,0,0,1,0,.019.6.6,0,0,1-.053.16.2.2,0,0,1-.06.07.137.137,0,0,1-.052.021.125.125,0,0,1-.062-.005c.056-.153.083-.165.037-.157,0,0,0,0,0,0a.306.306,0,0,0,.043-.074.78.78,0,0,0,.047-.149.806.806,0,0,0,.016-.111.323.323,0,0,0-.006-.1.1.1,0,0,0-.007-.017s0,0,0,0h0a.112.112,0,0,0-.037.012.233.233,0,0,0-.025.013Zm2.274-.673a.186.186,0,0,0,.1-.006c.046-.015.145-.085.162-.079.036.048-.076.167-.116.2a.287.287,0,0,1-.215.037.3.3,0,0,1-.153-.084.344.344,0,0,1-.043-.052c-.034-.057-.1-.248-.02-.28.031-.005.076.067.092.089s.047.058.073.086a.4.4,0,0,0,.033.035.271.271,0,0,0,.07.049Zm-6.78-.352a1.013,1.013,0,0,0-.152.07.268.268,0,0,0-.077.064.226.226,0,0,0-.041.078.28.28,0,0,0,.01.181.334.334,0,0,0,.123.157,2.089,2.089,0,0,0,.226.076c-.023.056-.218.014-.268-.008a.4.4,0,0,1-.182-.183.387.387,0,0,1-.035-.258.352.352,0,0,1,.057-.128.386.386,0,0,1,.114-.107.918.918,0,0,1,.327-.136.475.475,0,0,1,.269.029.4.4,0,0,1,.179.155l.008.013a.467.467,0,0,1,.062.2.458.458,0,0,1-.033.215.337.337,0,0,1-.373.208c-.052-.011-.269-.092-.26-.154.012-.009.207.033.269.031a.28.28,0,0,0,.064-.008.207.207,0,0,0,.076-.039.216.216,0,0,0,.068-.1.319.319,0,0,0,.012-.137.315.315,0,0,0-.046-.132l-.009-.014a.242.242,0,0,0-.091-.077.31.31,0,0,0-.172-.024A.615.615,0,0,0,1615.116,618.654Zm-.29.976c-.013-.017-.028-.035-.04-.052s-.015-.02-.022-.032a.042.042,0,0,1-.005-.037c.005-.026.024-.03.048-.03a.15.15,0,0,1,.062.012.314.314,0,0,1,.12.073.205.205,0,0,1,.029.035.173.173,0,0,1,.029.08.1.1,0,0,1,0,.059.064.064,0,0,1-.014.026.025.025,0,0,1-.036.01.052.052,0,0,0-.03-.011.065.065,0,0,1-.017,0,.059.059,0,0,1-.022-.009l-.013-.008c-.015,0-.041-.036-.05-.049s-.013-.021-.016-.027S1614.832,619.64,1614.826,619.63Z" transform="translate(-1569.471 -607.314)" fill="#565d8d"/>
  <path id="Path_831" data-name="Path 831" d="M1221.216,848.208s.041-3.372,1.259-3.412,6.722.345,7.413.954.589,1.645.224,1.848c-.025.014-5.774-.433-8.051.9C1221.614,848.758,1221.222,848.218,1221.216,848.208Z" transform="translate(-1212.83 -820.678)" fill="#565d8d" fill-rule="evenodd"/>
  <path id="Path_832" data-name="Path 832" d="M1587.412,855.261a60.455,60.455,0,0,0,11.792,2.656,55.836,55.836,0,0,1-5.745,1.467c-3.267.674-7.032,1.167-7.367,1.259-.367.1-.556.25-.616.432" transform="translate(-1545.354 -830.234)" fill="none" stroke="#565d8d" stroke-miterlimit="22.926" stroke-width="1.23" fill-rule="evenodd"/>
</svg>
