<svg xmlns="http://www.w3.org/2000/svg" width="140" height="480.889" viewBox="0 0 140 480.889">
  <path id="Subtraction_2" data-name="Subtraction 2" d="M33,517.888V37H152.647c-8.814,10.792-13.159,21.615-13.673,34.063a82.241,82.241,0,0,0,1.3,17.155c.977,5.847,2.371,11.83,3.848,18.163,4.169,17.888,8.894,38.16,5.881,63.364-2.126,17.778-5.918,30.682-9.585,43.162-2.227,7.577-4.529,15.412-6.363,24.11a192.5,192.5,0,0,0-3.849,30.3,325.621,325.621,0,0,0,1.038,43.156c1.5,18.22,4.217,38.723,8.3,62.682,9.139,45.3,17.751,81.726,23.366,104.308,6.114,24.589,10.057,38.4,10.1,38.538Z" transform="translate(-33 -37)" fill="#2d356b"/>
</svg>
