<svg xmlns="http://www.w3.org/2000/svg" width="65" height="59.081" viewBox="0 0 65 59.081">
  <g id="president_logo" transform="translate(-37.824 -36.508)">
    <g id="Group_45" data-name="Group 45" transform="translate(55.574 36.508)">
      <path id="Path_848" data-name="Path 848" d="M125.5,50.534H111.656a3.335,3.335,0,0,0-3.133,2.194L103.16,67.462a3.334,3.334,0,0,1-3.13,2.187h13.842a3.334,3.334,0,0,0,3.133-2.194l5.363-14.735A3.334,3.334,0,0,1,125.5,50.534Z" transform="translate(-95.593 -45.514)" fill="#cf9d60"/>
      <path id="Path_849" data-name="Path 849" d="M99.583,43.366a4.389,4.389,0,0,1,4.112-2.88h1.381l.8-2.192a2.723,2.723,0,0,1,2.556-1.786h-11.3A2.723,2.723,0,0,0,94.567,38.3l-4.38,12.033a2.723,2.723,0,0,1-2.556,1.787H96.4Z" transform="translate(-87.631 -36.508)" fill="#e3c9a6"/>
    </g>
    <g id="Group_50" data-name="Group 50" transform="translate(37.824 66.573)">
      <g id="Group_46" data-name="Group 46" transform="translate(8.483 0)">
        <path id="Path_850" data-name="Path 850" d="M64.475,124.253h-.543v-3.047H62.071v3.047h-.543v-3.531h2.947Z" transform="translate(-61.528 -120.648)" fill="#d2d1d1"/>
        <path id="Path_851" data-name="Path 851" d="M74.244,120.806a1.249,1.249,0,0,1,.422.253,1.085,1.085,0,0,1,.28.385,1.2,1.2,0,0,1,.1.5,1.222,1.222,0,0,1-.105.516,1.107,1.107,0,0,1-.3.39,1.277,1.277,0,0,1-.448.247,1.651,1.651,0,0,1-.543.084h-.9v1.07H72.2v-3.531h1.5A1.747,1.747,0,0,1,74.244,120.806Zm-.606,1.913a.937.937,0,0,0,.638-.205.709.709,0,0,0,.232-.564.75.75,0,0,0-.216-.564.876.876,0,0,0-.617-.2h-.928v1.534Z" transform="translate(-68.383 -120.648)" fill="#d2d1d1"/>
        <path id="Path_852" data-name="Path 852" d="M82.671,123.452l2.029-2.73h.485v3.531h-.527v-2.662l-1.982,2.662h-.532v-3.531h.527Z" transform="translate(-74.79 -120.648)" fill="#d2d1d1"/>
        <path id="Path_853" data-name="Path 853" d="M100.45,124.253h-.543v-3.047H98.046v3.047H97.5v-3.531h2.947Z" transform="translate(-84.67 -120.648)" fill="#d2d1d1"/>
        <path id="Path_854" data-name="Path 854" d="M110.352,120.652a1.812,1.812,0,0,1,.585.39,1.79,1.79,0,0,1,.379.585,2.07,2.07,0,0,1,.132.728,1.847,1.847,0,0,1-.511,1.3,1.837,1.837,0,0,1-.591.39,1.815,1.815,0,0,1-.754.148,1.905,1.905,0,0,1-.754-.142,1.77,1.77,0,0,1-.59-.4,1.907,1.907,0,0,1-.38-.58,2.048,2.048,0,0,1-.131-.722,1.933,1.933,0,0,1,.137-.722,1.668,1.668,0,0,1,.385-.58,1.783,1.783,0,0,1,.579-.39,1.874,1.874,0,0,1,.754-.147A2.053,2.053,0,0,1,110.352,120.652Zm-1.313.438a1.133,1.133,0,0,0-.416.29,1.27,1.27,0,0,0-.258.432,1.692,1.692,0,0,0,0,1.086,1.382,1.382,0,0,0,.263.432,1.215,1.215,0,0,0,.411.29,1.441,1.441,0,0,0,.554.105,1.507,1.507,0,0,0,.553-.1,1.287,1.287,0,0,0,.422-.29,1.246,1.246,0,0,0,.258-.438,1.63,1.63,0,0,0,.089-.543,1.572,1.572,0,0,0-.094-.554,1.174,1.174,0,0,0-.675-.717,1.52,1.52,0,0,0-.553-.1A1.4,1.4,0,0,0,109.04,121.09Z" transform="translate(-91.255 -120.515)" fill="#d2d1d1"/>
        <path id="Path_855" data-name="Path 855" d="M122.843,123.784h.517v.237l-.053,1h-.448l-.037-.764H120l-.048.764H119.5l-.037-.991v-.237h.142a.418.418,0,0,0,.269-.126.844.844,0,0,0,.232-.369,3.728,3.728,0,0,0,.121-.453c.037-.169.063-.348.09-.538s.037-.385.047-.591.016-.406.016-.611v-.379h2.467Zm-2.077-.98a2.3,2.3,0,0,1-.353.98h1.9v-2.6H120.9A9.415,9.415,0,0,1,120.766,122.8Z" transform="translate(-98.795 -120.648)" fill="#d2d1d1"/>
        <path id="Path_856" data-name="Path 856" d="M135.155,123.784h.517v.237l-.053,1h-.448l-.037-.764h-2.825l-.047.764h-.453l-.037-.991v-.237h.142a.418.418,0,0,0,.269-.126.844.844,0,0,0,.232-.369,3.728,3.728,0,0,0,.121-.453c.037-.169.063-.348.09-.538s.036-.385.047-.591.016-.406.016-.611v-.379h2.467Zm-2.077-.98a2.307,2.307,0,0,1-.353.98h1.9v-2.6H133.21A9.378,9.378,0,0,1,133.078,122.8Z" transform="translate(-106.716 -120.648)" fill="#d2d1d1"/>
        <path id="Path_857" data-name="Path 857" d="M147.138,121.191h-2.014v1H146.9v.464h-1.771v1.128h2.109v.474H144.6v-3.531h2.541Z" transform="translate(-114.964 -120.648)" fill="#d2d1d1"/>
        <path id="Path_858" data-name="Path 858" d="M156.077,120.806a1.247,1.247,0,0,1,.422.253,1.08,1.08,0,0,1,.279.385,1.193,1.193,0,0,1,.1.5,1.217,1.217,0,0,1-.106.516,1.11,1.11,0,0,1-.3.39,1.28,1.28,0,0,1-.448.247,1.651,1.651,0,0,1-.543.084h-.9v1.07h-.543v-3.531h1.5A1.743,1.743,0,0,1,156.077,120.806Zm-.606,1.913a.937.937,0,0,0,.638-.205.71.71,0,0,0,.232-.564.75.75,0,0,0-.216-.564.877.877,0,0,0-.617-.2h-.928v1.534Z" transform="translate(-121.037 -120.648)" fill="#d2d1d1"/>
        <path id="Path_859" data-name="Path 859" d="M164.4,122.124l.569.031v-1.433h.516v1.433l.569-.031.949-1.4h.633l-1.155,1.613,1.318,1.919h-.627l-1.091-1.655h-.6v1.655h-.516V122.6h-.6l-1.086,1.655h-.632l1.318-1.919-1.155-1.613h.632Z" transform="translate(-126.608 -120.648)" fill="#d2d1d1"/>
        <path id="Path_860" data-name="Path 860" d="M179.112,122.171l.548-.042,1.149-1.407h.664l-1.376,1.634,1.507,1.9h-.685l-1.249-1.645h-.559v1.645h-.527v-3.531h.527Z" transform="translate(-136.84 -120.648)" fill="#d2d1d1"/>
        <path id="Path_861" data-name="Path 861" d="M191.331,121.191h-2.014v1h1.771v.464h-1.771v1.128h2.108v.474h-2.635v-3.531h2.54Z" transform="translate(-143.393 -120.648)" fill="#d2d1d1"/>
      </g>
      <g id="Group_47" data-name="Group 47" transform="translate(18.348 7.246)">
        <path id="Path_862" data-name="Path 862" d="M92.677,141.387h.414a2.265,2.265,0,0,1,.773.119,1.708,1.708,0,0,1,.618.337,1.6,1.6,0,0,1,.393.562,1.935,1.935,0,0,1,.141.752,1.776,1.776,0,0,1-.155.766,1.669,1.669,0,0,1-.422.562,1.693,1.693,0,0,1-.611.351,2.309,2.309,0,0,1-.738.12h-.414v.612H91.63v-.612h-.414a2.323,2.323,0,0,1-.78-.12,1.643,1.643,0,0,1-.6-.337,1.6,1.6,0,0,1-.393-.563,1.938,1.938,0,0,1-.141-.752,1.778,1.778,0,0,1,.155-.766,1.663,1.663,0,0,1,.422-.562,1.734,1.734,0,0,1,.6-.351,2.35,2.35,0,0,1,.738-.119h.414v-.626h1.047Zm-1.427.906a.819.819,0,0,0-.907.885.806.806,0,0,0,.246.64.928.928,0,0,0,.66.225h.379v-1.75Zm1.806,1.757a.818.818,0,0,0,.907-.885.853.853,0,0,0-.239-.64.97.97,0,0,0-.667-.225h-.379v1.75Z" transform="translate(-89.297 -140.761)" fill="#e8e8e8"/>
        <path id="Path_863" data-name="Path 863" d="M110.8,140.944a2.292,2.292,0,0,1,.787.52,2.215,2.215,0,0,1,.513.773,2.632,2.632,0,0,1,.183.977,2.512,2.512,0,0,1-.183.949,2.384,2.384,0,0,1-.513.787,2.436,2.436,0,0,1-.787.52,2.534,2.534,0,0,1-1.019.2,2.717,2.717,0,0,1-1-.183,2.443,2.443,0,0,1-.787-.52,2.207,2.207,0,0,1-.52-.78,2.616,2.616,0,0,1-.183-.97,2.569,2.569,0,0,1,.183-.956,2.207,2.207,0,0,1,.52-.78,2.438,2.438,0,0,1,.787-.52,2.465,2.465,0,0,1,1-.2A2.794,2.794,0,0,1,110.8,140.944Zm-1.63.878a1.382,1.382,0,0,0-.738.8,1.789,1.789,0,0,0-.1.59,1.864,1.864,0,0,0,.1.6,1.316,1.316,0,0,0,.288.478,1.535,1.535,0,0,0,.457.324,1.627,1.627,0,0,0,.6.112,1.5,1.5,0,0,0,.612-.12,1.293,1.293,0,0,0,.463-.33,1.534,1.534,0,0,0,.281-.478,1.989,1.989,0,0,0,.091-.583,1.8,1.8,0,0,0-.1-.6,1.286,1.286,0,0,0-.288-.485,1.3,1.3,0,0,0-.45-.316,1.67,1.67,0,0,0-1.223.007Z" transform="translate(-100.846 -140.761)" fill="#e8e8e8"/>
        <path id="Path_864" data-name="Path 864" d="M124.778,142.877h2.059v-1.841H127.9v4.708h-1.061v-1.89h-2.059v1.89h-1.061v-4.708h1.061Z" transform="translate(-111.398 -140.938)" fill="#e8e8e8"/>
        <path id="Path_865" data-name="Path 865" d="M142.447,144.8h.681v.288l-.091,1.645h-.948l-.042-.984h-3.183l-.056.984h-.956l-.056-1.637V144.8h.2a.5.5,0,0,0,.3-.106.768.768,0,0,0,.246-.33,3.9,3.9,0,0,0,.274-1.089,11.784,11.784,0,0,0,.084-1.476v-.766h3.556Zm-2.642-1.11a3.983,3.983,0,0,1-.323,1.11h1.911v-2.818h-1.462A11.5,11.5,0,0,1,139.8,143.685Z" transform="translate(-120.438 -140.938)" fill="#e8e8e8"/>
        <path id="Path_866" data-name="Path 866" d="M159.346,145.731H158.18l-.359-.935H155.8l-.352.935h-1.145l1.932-4.715H157.4Zm-1.869-1.862-.625-1.792h-.071l-.632,1.792Z" transform="translate(-131.041 -140.925)" fill="#e8e8e8"/>
      </g>
      <g id="Group_48" data-name="Group 48" transform="translate(0 15.678)">
        <path id="Path_867" data-name="Path 867" d="M41.942,169.306H40.881v-3.731h-2v3.731H37.824V164.6h4.118Z" transform="translate(-37.824 -164.5)" fill="#e8e8e8"/>
        <path id="Path_868" data-name="Path 868" d="M55.273,164.724a1.839,1.839,0,0,1,.6.337,1.683,1.683,0,0,1,.379.534,1.9,1.9,0,0,1-.014,1.433,1.5,1.5,0,0,1-.422.534,1.551,1.551,0,0,1-.618.337,2.312,2.312,0,0,1-.773.12h-.956v1.286H52.413V164.6h2.094A2.223,2.223,0,0,1,55.273,164.724Zm-.85,2.361a.97.97,0,0,0,.661-.211.715.715,0,0,0,.239-.569.735.735,0,0,0-.211-.555.9.9,0,0,0-.646-.211h-1v1.546Z" transform="translate(-47.192 -164.5)" fill="#e8e8e8"/>
        <path id="Path_869" data-name="Path 869" d="M69.5,165.547h-2.48v.885h2.213v.921H67.021v1h2.6v.949h-3.64V164.6H69.5Z" transform="translate(-55.928 -164.5)" fill="#e8e8e8"/>
        <path id="Path_870" data-name="Path 870" d="M80.521,166.136a.414.414,0,0,0,.141-.33.467.467,0,0,0-.183-.4,1.006,1.006,0,0,0-.611-.141,1.992,1.992,0,0,0-1.237.443l-.548-.724a2.559,2.559,0,0,1,.85-.5,2.966,2.966,0,0,1,1-.162,2.718,2.718,0,0,1,.752.1,1.679,1.679,0,0,1,.562.274,1.322,1.322,0,0,1,.358.415,1.27,1.27,0,0,1,.12.541,1.2,1.2,0,0,1-.12.541.9.9,0,0,1-.372.387v.063a1.046,1.046,0,0,1,.527.379,1.149,1.149,0,0,1,.19.667,1.39,1.39,0,0,1-.134.611,1.274,1.274,0,0,1-.379.485,1.992,1.992,0,0,1-.646.323,3.049,3.049,0,0,1-.892.119,3.839,3.839,0,0,1-.583-.042,2.441,2.441,0,0,1-.52-.12,2.378,2.378,0,0,1-.471-.218,2.875,2.875,0,0,1-.443-.316l.555-.773a2.442,2.442,0,0,0,.724.408,2.67,2.67,0,0,0,.808.12,1.18,1.18,0,0,0,.7-.169.56.56,0,0,0,.225-.457c0-.33-.211-.492-.64-.492H79.06v-.914h1.075A.59.59,0,0,0,80.521,166.136Z" transform="translate(-63.578 -164.323)" fill="#e8e8e8"/>
        <path id="Path_871" data-name="Path 871" d="M92.683,167.732,94.96,164.6h.927v4.708H94.84v-2.958l-2.164,2.958H91.643V164.6h1.04Z" transform="translate(-72.429 -164.5)" fill="#e8e8e8"/>
        <path id="Path_872" data-name="Path 872" d="M110.55,168.357h.681v.288l-.091,1.645h-.948l-.043-.984h-3.183l-.056.984h-.956l-.056-1.637v-.288h.2a.5.5,0,0,0,.295-.106.766.766,0,0,0,.246-.33,3.894,3.894,0,0,0,.274-1.089,11.783,11.783,0,0,0,.084-1.476V164.6h3.556Zm-2.642-1.11a3.994,3.994,0,0,1-.324,1.11H109.5V165.54h-1.462A11.506,11.506,0,0,1,107.908,167.247Z" transform="translate(-81.595 -164.5)" fill="#e8e8e8"/>
        <path id="Path_873" data-name="Path 873" d="M126.716,165.547h-2.48v.885h2.214v.921h-2.214v1h2.6v.949H123.2V164.6h3.52Z" transform="translate(-92.716 -164.5)" fill="#e8e8e8"/>
        <path id="Path_874" data-name="Path 874" d="M137.02,166.439h2.059V164.6h1.061v4.708h-1.061v-1.89H137.02v1.89h-1.061V164.6h1.061Z" transform="translate(-100.923 -164.5)" fill="#e8e8e8"/>
        <path id="Path_875" data-name="Path 875" d="M154.283,165.554h-1.609v3.752h-1.047v-3.752h-1.609V164.6h4.265Z" transform="translate(-109.963 -164.5)" fill="#e8e8e8"/>
        <path id="Path_876" data-name="Path 876" d="M166.394,165.405a1.905,1.905,0,0,0-.71-.12,1.768,1.768,0,0,0-.625.105,1.443,1.443,0,0,0-.471.309,1.414,1.414,0,0,0-.3.478,1.635,1.635,0,0,0-.106.6,1.684,1.684,0,0,0,.106.611,1.344,1.344,0,0,0,.309.464,1.447,1.447,0,0,0,.471.309,1.673,1.673,0,0,0,.6.106,2.233,2.233,0,0,0,.752-.133,2.078,2.078,0,0,0,.618-.4l.6.738a2.827,2.827,0,0,1-2.024.759,2.871,2.871,0,0,1-1-.169,2.443,2.443,0,0,1-.787-.492,2.33,2.33,0,0,1-.506-.773,2.693,2.693,0,0,1-.183-1,2.437,2.437,0,0,1,.183-.956,2.184,2.184,0,0,1,.513-.787,2.412,2.412,0,0,1,.815-.527,2.779,2.779,0,0,1,1.083-.2,2.872,2.872,0,0,1,1,.169,2.452,2.452,0,0,1,.815.478l-.583.766A1.538,1.538,0,0,0,166.394,165.405Z" transform="translate(-118.396 -164.323)" fill="#e8e8e8"/>
        <path id="Path_877" data-name="Path 877" d="M179.154,166.39l.513-.056L181,164.6h1.3l-1.749,2.2,1.918,2.508h-1.356l-1.433-2.01h-.52v2.01h-1.04V164.6h1.04Z" transform="translate(-128.028 -164.5)" fill="#e8e8e8"/>
        <path id="Path_878" data-name="Path 878" d="M193.409,167.732l2.277-3.134h.928v4.708h-1.047v-2.958l-2.164,2.958h-1.033V164.6h1.04Z" transform="translate(-137.207 -164.5)" fill="#e8e8e8"/>
        <path id="Path_879" data-name="Path 879" d="M208.644,166.278h.07l.934-1.68h1.3l-1.5,2.319,1.651,2.389h-1.363l-1.054-1.813h-.071l-1.04,1.813h-1.356l1.651-2.445-1.5-2.263h1.314Z" transform="translate(-146.096 -164.5)" fill="#e8e8e8"/>
      </g>
      <g id="Group_49" data-name="Group 49" transform="translate(15.428 24.111)">
        <path id="Path_880" data-name="Path 880" d="M84.7,189.115H82.192v3.752H81.138v-4.708H84.7Z" transform="translate(-81.138 -188.061)" fill="#e8e8e8"/>
        <path id="Path_881" data-name="Path 881" d="M96.211,188.286a1.839,1.839,0,0,1,.6.337,1.683,1.683,0,0,1,.379.534,1.9,1.9,0,0,1-.014,1.433,1.5,1.5,0,0,1-.422.534,1.557,1.557,0,0,1-.618.337,2.319,2.319,0,0,1-.773.119H94.4v1.286H93.351v-4.708h2.094A2.221,2.221,0,0,1,96.211,188.286Zm-.85,2.361a.967.967,0,0,0,.661-.211.713.713,0,0,0,.239-.569.736.736,0,0,0-.211-.555.9.9,0,0,0-.647-.21h-1v1.546Z" transform="translate(-88.98 -188.061)" fill="#e8e8e8"/>
        <path id="Path_882" data-name="Path 882" d="M110.387,192.855h-1.166l-.359-.934h-2.017l-.351.934h-1.145l1.932-4.715h1.159Zm-1.869-1.862-.625-1.792h-.07l-.633,1.792Z" transform="translate(-96.684 -188.049)" fill="#e8e8e8"/>
        <path id="Path_883" data-name="Path 883" d="M122.765,190h2.059v-1.841h1.061v4.708h-1.061v-1.89h-2.059v1.89H121.7v-4.708h1.061Z" transform="translate(-107.186 -188.061)" fill="#e8e8e8"/>
        <path id="Path_884" data-name="Path 884" d="M140.027,189.115h-1.609v3.752h-1.047v-3.752h-1.609v-.956h4.265Z" transform="translate(-116.213 -188.061)" fill="#e8e8e8"/>
        <path id="Path_885" data-name="Path 885" d="M152.391,188.068a2.3,2.3,0,0,1,.787.52,2.22,2.22,0,0,1,.513.773,2.63,2.63,0,0,1,.183.977,2.513,2.513,0,0,1-.183.949,2.387,2.387,0,0,1-.513.787,2.445,2.445,0,0,1-.787.52,2.539,2.539,0,0,1-1.019.2,2.718,2.718,0,0,1-1-.183,2.424,2.424,0,0,1-.787-.52,2.2,2.2,0,0,1-.52-.78,2.613,2.613,0,0,1-.183-.97,2.566,2.566,0,0,1,.183-.956,2.2,2.2,0,0,1,.52-.78,2.43,2.43,0,0,1,.787-.52,2.459,2.459,0,0,1,1-.2A2.793,2.793,0,0,1,152.391,188.068Zm-1.63.879a1.383,1.383,0,0,0-.738.8,1.793,1.793,0,0,0-.1.591,1.865,1.865,0,0,0,.1.6,1.317,1.317,0,0,0,.288.478,1.534,1.534,0,0,0,.457.323,1.62,1.62,0,0,0,.6.112,1.5,1.5,0,0,0,.611-.12,1.3,1.3,0,0,0,.463-.33,1.538,1.538,0,0,0,.281-.478,1.99,1.99,0,0,0,.091-.583,1.8,1.8,0,0,0-.1-.6,1.29,1.29,0,0,0-.288-.485,1.314,1.314,0,0,0-.45-.316,1.668,1.668,0,0,0-1.223.008Z" transform="translate(-124.634 -187.885)" fill="#e8e8e8"/>
        <path id="Path_886" data-name="Path 886" d="M168.6,188.5a1.137,1.137,0,0,1,.429.942,1.159,1.159,0,0,1-.12.527.837.837,0,0,1-.337.344v.063a1.033,1.033,0,0,1,.548.407,1.1,1.1,0,0,1,.211.675,1.608,1.608,0,0,1-.1.548,1.166,1.166,0,0,1-.323.443,1.6,1.6,0,0,1-.541.3,2.34,2.34,0,0,1-.78.112h-2.277v-4.708h2.08A1.85,1.85,0,0,1,168.6,188.5Zm-1.166,1.511a.654.654,0,0,0,.422-.127.466.466,0,0,0,.148-.358c0-.316-.2-.471-.6-.471h-1.04v.956Zm.169,1.953c.463,0,.7-.183.7-.555a.466.466,0,0,0-.183-.4.8.8,0,0,0-.52-.141H166.36v1.1Z" transform="translate(-135.188 -188.061)" fill="#e8e8e8"/>
      </g>
    </g>
  </g>
</svg>
