<svg xmlns="http://www.w3.org/2000/svg" width="327.507" height="36.266" viewBox="0 0 327.507 36.266">
  <g id="Group_51" data-name="Group 51" transform="translate(4840.007 16799.064)">
    <g id="BG" transform="translate(-4838.339 -16560.287) rotate(-90)" fill="#fffaeb" stroke-linecap="round">
      <path d="M 203.5845031738281 326.3332824707031 L 203.1902465820312 325.4583129882812 L 203.4534759521484 325.3610534667969 L 203.6770935058594 325.855712890625 L 203.5845031738281 326.3332824707031 Z M 204.0418548583984 325.2483520507812 C 204.0418701171875 325.2472229003906 204.0419006347656 325.2461242675781 204.0419158935547 325.2449951171875 C 204.0493316650391 324.8542785644531 204.0553283691406 324.2870788574219 204.0602874755859 323.5109252929688 C 204.0696258544922 322.0571594238281 204.074951171875 319.8746948242188 204.0766296386719 316.8387756347656 C 204.0797424316406 311.0180053710938 204.0693359375 302.528076171875 204.0561676025391 291.7794799804688 C 204.0375366210938 276.5920715332031 204.0143280029297 257.6908569335938 204.0143280029297 235.3295745849609 C 204.0143280029297 209.4339141845703 204.0135040283203 192.0287017822266 204.0126190185547 174.5507507324219 C 204.0109558105469 139.8739013671875 204.0092163085938 104.0162811279297 204.0143127441406 -1.168376445770264 C 206.768310546875 -1.167897582054138 220.2955932617188 -1.165631413459778 229.6400756835938 -1.165631413459778 C 231.8157958984375 -1.165631413459778 233.6080474853516 -1.165757060050964 235.0113677978516 -1.166003584861755 C 234.2619171142578 -0.7346735596656799 233.5551910400391 -0.1650204360485077 232.8944549560547 0.5414519309997559 C 230.018798828125 3.616160154342651 227.9522094726562 9.246368408203125 226.5764923095703 17.75382614135742 C 225.3511199951172 25.33182716369629 224.6894989013672 35.11524200439453 224.5538787841797 47.66315841674805 C 224.3007965087891 71.07862091064453 225.9250793457031 100.6104125976562 227.6447143554688 131.8761596679688 C 229.5901184082031 167.2476654052734 231.6018371582031 203.8233642578125 231.182373046875 235.9673614501953 C 230.9554138183594 253.3596954345703 230.0449981689453 267.6728210449219 228.3991241455078 279.7246704101562 C 227.5037841796875 286.2808227539062 226.3731231689453 292.1993713378906 225.0385894775391 297.3158264160156 C 223.6360015869141 302.6930847167969 221.9622039794922 307.3618774414062 220.0637512207031 311.1925354003906 C 216.0150451660156 319.3644714355469 210.6268157958984 324.0900573730469 204.0418548583984 325.2483520507812 Z" stroke="none"/>
      <path d="M 204.5142517089844 -0.6683349609375 C 204.5092163085938 104.1293182373047 204.5109252929688 139.9290161132812 204.5126190185547 174.5507507324219 C 204.5134582519531 192.0287017822266 204.5142974853516 209.4338684082031 204.5142974853516 235.3295745849609 C 204.5142974853516 257.6915283203125 204.5375061035156 276.5931701660156 204.5561218261719 291.7808227539062 C 204.5693359375 302.5290832519531 204.5797424316406 311.0186462402344 204.5765838623047 316.8395690917969 C 204.5749206542969 319.8762817382812 204.569580078125 322.0596313476562 204.5602874755859 323.5142517089844 C 204.5574645996094 323.9544067382812 204.5543060302734 324.3277282714844 204.5507354736328 324.6400756835938 C 207.4867858886719 324.0158081054688 210.192626953125 322.6383361816406 212.6087951660156 320.535400390625 C 215.2547912597656 318.2324523925781 217.6122436523438 315.014404296875 219.6157531738281 310.9705200195312 C 221.4990844726562 307.17041015625 223.1607971191406 302.5338745117188 224.5547485351562 297.1896057128906 C 225.8843383789062 292.0923767089844 227.0110778808594 286.1934814453125 227.9037475585938 279.6569519042969 C 229.5467987060547 267.6255798339844 230.4556732177734 253.3324127197266 230.6823272705078 235.9607543945312 C 231.1015472412109 203.8337097167969 229.0902862548828 167.2665710449219 227.1452484130859 131.9034118652344 C 225.4251251220703 100.6292419433594 223.8003692626953 71.08949279785156 224.0535888671875 47.65762329101562 C 224.3399963378906 21.15615844726562 227.0330810546875 6.07611083984375 232.5288696289062 0.199920654296875 C 232.8227081298828 -0.1142578125 233.1253509521484 -0.40289306640625 233.4365234375 -0.66583251953125 C 232.3382110595703 -0.665740966796875 231.0722198486328 -0.665679931640625 229.6400756835938 -0.665679931640625 C 220.7693939208984 -0.665679931640625 208.1292419433594 -0.667724609375 204.5142517089844 -0.6683349609375 M 203.5142974853516 -1.66851806640625 C 203.5142974853516 -1.66851806640625 219.1917419433594 -1.6656494140625 229.6400756835938 -1.6656494140625 C 234.3983764648438 -1.6656494140625 238.0706329345703 -1.666259765625 238.6863861083984 -1.66796875 C 203.0640258789062 -1.242767333984375 252.1432037353516 247.5895690917969 220.5117492675781 311.4145812988281 C 216.4749145507812 319.5625 210.8901977539062 324.7925415039062 203.5154876708984 325.8380737304688 C 203.6549224853516 325.7186279296875 203.5142974853516 289.9563598632812 203.5142974853516 235.3295745849609 C 203.5142974853516 157.3165283203125 203.5066680908203 156.3605346679688 203.5142974853516 -1.66851806640625 Z M 238.7774658203125 -1.66851806640625 C 238.7777862548828 -1.668304443359375 238.7468109130859 -1.668121337890625 238.6863861083984 -1.66796875 C 238.7168579101562 -1.6683349609375 238.7468719482422 -1.66851806640625 238.7774658203125 -1.66851806640625 Z M 203.5154876708984 325.8380737304688 C 203.5152435302734 325.8382873535156 203.5150146484375 325.83837890625 203.5147705078125 325.83837890625 C 203.5146179199219 325.83837890625 203.5144500732422 325.8383483886719 203.5142974853516 325.8382568359375 C 203.5147399902344 325.8381652832031 203.5150299072266 325.838134765625 203.5154876708984 325.8380737304688 Z" stroke="none" fill="#fff"/>
    </g>
    <path id="BG-2" data-name="BG" d="M238.777-1.668c-35.8,0,13.393,249.2-18.266,313.083-4.037,8.148-9.622,13.379-17,14.424.141.082,0-35.728,0-90.509,0-78.013-.008-78.969,0-237C203.514-1.668,238.789-1.662,238.777-1.668Z" transform="translate(-4838.339 -16559.287) rotate(-90)" fill="#fffaeb"/>
  </g>
</svg>
