<svg width="45" height="48" viewBox="0 0 45 48" fill="none" xmlns="http://www.w3.org/2000/svg">
<g id="Path 604">
<path d="M41.5289 9.302L44.82 5.76099C43.1602 5.26006 41.4076 5.14614 39.6969 5.42798C38.8974 5.56345 38.1153 5.78682 37.3649 6.09399L37.9059 4.84399L35.4479 6.13501L36.2399 4.63501C35.5433 4.62815 34.857 4.80447 34.2501 5.14636C33.6432 5.48826 33.137 5.98372 32.7819 6.58301L33.6989 4.71802C32.9805 4.73849 32.2787 4.93895 31.6578 5.30103C30.7509 5.8514 30.0711 6.70842 29.7418 7.71692C30.0338 6.85558 30.3255 5.9947 30.6168 5.13403C29.3292 5.55584 28.1975 6.35372 27.3678 7.42493C26.824 8.13548 26.4298 8.94883 26.2089 9.81592C26.2755 9.17192 26.3422 8.52803 26.4088 7.88403C25.7429 8.44493 25.2034 9.14043 24.8258 9.92493C24.2944 11.0731 24.1183 12.354 24.32 13.603C24.1693 13.0297 24.0185 12.4563 23.8678 11.8829C23.4927 12.9578 23.2682 14.0795 23.2008 15.2159C23.1375 16.398 23.2416 17.583 23.5099 18.736C21.1519 16.971 19.7639 16.768 18.1329 14.536C16.7329 12.619 16.6409 11.2459 15.6329 9.94495C16.0872 7.86283 15.9658 5.69635 15.2818 3.67798C14.9081 2.60403 14.3743 1.59263 13.6987 0.677979C13.8019 1.88842 13.4448 3.09329 12.6986 4.052C12.2276 4.602 11.8367 4.715 11.2817 5.302C10.7512 5.87284 10.3572 6.55671 10.1296 7.302C10.0556 7.302 9.98265 7.30201 9.90665 7.31201C9.78365 7.32301 9.66459 7.34401 9.54459 7.36401C8.74926 5.49735 7.95363 3.6286 7.15763 1.75793C6.89163 3.13893 6.65162 4.59796 6.44962 6.13196C6.30862 7.20496 6.19858 8.24298 6.10758 9.25098C4.96686 10.4359 3.93388 11.72 3.02067 13.088C2.26575 14.1433 1.59693 15.2574 1.02067 16.4199C0.853307 16.7236 0.756433 17.0611 0.737218 17.4074C0.718003 17.7536 0.776856 18.0996 0.909581 18.4199C1.60358 19.8089 4.22355 19.7629 4.79655 19.7529C5.81955 19.7349 5.98862 19.52 6.57462 19.642C7.91162 19.919 8.74064 21.392 9.24064 22.642L5.01969 22.4199C3.35569 21.0759 1.39657 21.082 0.576573 21.975C-0.375427 23.011 0.470573 24.9539 0.576573 25.1959C1.16057 26.5399 2.65153 28.069 4.13053 27.751C4.66288 27.6145 5.13298 27.301 5.46354 26.8619L8.46354 29.528C7.4067 30.1778 6.58831 31.1519 6.13053 32.3049C4.94353 35.5129 7.18974 40.0799 12.0177 43.1899L9.49552 43.09C7.68498 43.0147 5.90931 43.6029 4.50162 44.744L3.91666 45.218C3.75988 45.3445 3.63898 45.5098 3.56608 45.6976C3.49317 45.8854 3.47078 46.0891 3.50113 46.2882C3.53149 46.4873 3.61362 46.675 3.73917 46.8325C3.86472 46.99 4.02936 47.112 4.21671 47.186L4.23673 47.194L4.27164 47.208C5.59374 47.7033 7.04552 47.7311 8.38566 47.287C9.09968 47.0577 9.82865 46.8782 10.5675 46.75C13.3205 46.2903 16.1447 46.5191 18.7877 47.416C21.251 47.7112 23.744 47.2048 25.8969 45.9719C25.9779 45.9219 26.0539 45.8719 26.1329 45.8159C27.4942 45.9923 28.8776 45.8702 30.1869 45.458C31.6976 44.924 33.0757 44.0714 34.2279 42.958C35.5513 41.8265 36.7022 40.5075 37.6439 39.043L36.3939 39.084C36.8854 38.8714 37.3364 38.5754 37.7269 38.209C38.5195 37.4402 39.0327 36.4286 39.1849 35.335L38.018 36.001C39.184 34.7921 39.9413 33.248 40.1837 31.5859C40.2824 30.8384 40.2682 30.0804 40.1417 29.337L39.5167 29.629C40.1706 28.4346 40.3773 27.0461 40.0997 25.713L39.4747 26.171C40.0445 24.7085 40.0295 23.0827 39.4327 21.631L38.5167 22.922C38.8221 21.3113 39.1274 19.7006 39.4327 18.09L38.1408 19.881L40.0158 15.257L38.9738 15.84L42.4308 9.04993L41.5289 9.302Z" fill="#0F1849"/>
<path d="M41.3696 9.52051L44.6606 5.97949C43.0008 5.47857 41.2482 5.36465 39.5376 5.64648C38.7381 5.78196 37.956 6.00533 37.2055 6.3125L37.7465 5.0625L35.2885 6.35352L36.0805 4.85352C35.384 4.84666 34.6977 5.02297 34.0908 5.36487C33.4839 5.70676 32.9776 6.20223 32.6225 6.80151L33.5395 4.93652C32.8211 4.95699 32.1192 5.15746 31.4984 5.51953C30.5915 6.06991 29.9117 6.92693 29.5824 7.93542C29.8744 7.07409 30.1661 6.21321 30.4574 5.35254C29.1698 5.77435 28.0381 6.57223 27.2084 7.64343C26.6645 8.35399 26.2703 9.16733 26.0494 10.0344C26.1161 9.39042 26.1827 8.74654 26.2494 8.10254C25.5835 8.66344 25.044 9.35894 24.6664 10.1434C24.135 11.2916 23.9589 12.5725 24.1605 13.8215C24.0099 13.2482 23.859 12.6748 23.7084 12.1014C23.3332 13.1763 23.1088 14.298 23.0414 15.4344C22.9781 16.6165 23.0822 17.8015 23.3505 18.9545C20.9925 17.1895 19.6045 16.9865 17.9735 14.7545C16.5735 12.8375 16.4815 11.4645 15.4735 10.1635C15.9278 8.08134 15.8064 5.91485 15.1224 3.89648C14.7487 2.82253 14.215 1.81114 13.5394 0.896484C13.6427 2.10693 13.2856 3.31179 12.5394 4.27051C12.0684 4.82051 11.6774 4.93351 11.1224 5.52051C10.592 6.09135 10.198 6.77522 9.97035 7.52051C9.89635 7.52051 9.82345 7.52052 9.74745 7.53052C9.62445 7.54152 9.50539 7.56252 9.38539 7.58252C8.59006 5.71585 7.79443 3.84711 6.99843 1.97644C6.73243 3.35744 6.49242 4.81646 6.29042 6.35046C6.14942 7.42346 6.03938 8.46148 5.94838 9.46948C4.80767 10.6544 3.77469 11.9385 2.86147 13.3065C2.10656 14.3618 1.43774 15.4759 0.861473 16.6384C0.694115 16.9421 0.597241 17.2796 0.578026 17.6259C0.558811 17.9721 0.617664 18.3181 0.750389 18.6384C1.44439 20.0274 4.06435 19.9814 4.63735 19.9714C5.66035 19.9534 5.82942 19.7385 6.41542 19.8605C7.75242 20.1375 8.58143 21.6105 9.08143 22.8605L5.45566 20.802C3.79166 19.458 1.83255 19.4641 1.01255 20.3571C0.0605479 21.3931 0.906548 23.336 1.01255 23.578C1.59655 24.922 2.01616 25.7335 3.49516 25.4155C4.02751 25.2791 5.11121 27.1575 5.44177 26.7185L8.30433 29.7465C7.24749 30.3963 6.42911 31.3704 5.97133 32.5234C4.78433 35.7314 7.03053 40.2984 11.8585 43.4084L9.33632 43.3085C7.52577 43.2332 5.75012 43.8214 4.34243 44.9625L3.75747 45.4365C3.60069 45.563 3.47979 45.7284 3.40688 45.9161C3.33398 46.1039 3.31159 46.3076 3.34194 46.5067C3.3723 46.7059 3.45443 46.8935 3.57998 47.051C3.70553 47.2086 3.87017 47.3305 4.05752 47.4045L4.07754 47.4125L4.11245 47.4265C5.43455 47.9218 6.88632 47.9496 8.22645 47.5055C8.94047 47.2762 9.66945 47.0968 10.4083 46.9685C13.1613 46.5088 15.9852 46.7376 18.6283 47.6345C21.0916 47.9297 23.5845 47.4233 25.7374 46.1904C25.8184 46.1404 25.8945 46.0904 25.9735 46.0344C27.3348 46.2108 28.7182 46.0887 30.0275 45.6765C31.5381 45.1425 32.9164 44.2899 34.0686 43.1765C35.3919 42.045 36.5428 40.726 37.4846 39.2615L36.2346 39.3025C36.7261 39.0899 37.1771 38.7939 37.5676 38.4275C38.3602 37.6587 38.8733 36.6471 39.0256 35.5535L37.8586 36.2195C39.0247 35.0106 39.782 33.4665 40.0244 31.8044C40.123 31.0569 40.1089 30.2989 39.9824 29.5555L39.3574 29.8475C40.0112 28.6531 40.218 27.2646 39.9404 25.9315L39.3154 26.3895C39.8851 24.927 39.8701 23.3012 39.2734 21.8495L38.3574 23.1405C38.6627 21.5298 38.9681 19.9191 39.2734 18.3085L37.9814 20.0995L39.8564 15.4755L38.8144 16.0585L42.2714 9.26843L41.3696 9.52051Z" fill="#0F1849"/>
</g>
</svg>
